<ttFont>
    <TTGlyph name="A" xMin="60" yMin="-66" xMax="1553" yMax="1472">
      <contour>
        <pt x="1397" y="1403" on="1"/>
        <pt x="1428" y="1472" on="0"/>
        <pt x="1441" y="1472" on="1"/>
        <pt x="1446" y="1472" on="1"/>
        <pt x="1461" y="1472" on="0"/>
        <pt x="1553" y="1408" on="0"/>
        <pt x="1553" y="1380" on="1"/>
        <pt x="1553" y="1341" on="0"/>
        <pt x="1041" y="211" on="0"/>
        <pt x="966" y="74" on="0"/>
        <pt x="938" y="28" on="0"/>
        <pt x="914" y="0" on="1"/>
        <pt x="871" y="-53" on="0"/>
        <pt x="807" y="-53" on="1"/>
        <pt x="781" y="-53" on="0"/>
        <pt x="741" y="-66" on="0"/>
        <pt x="737" y="-66" on="1"/>
        <pt x="705" y="-66" on="0"/>
        <pt x="705" y="-51" on="1"/>
        <pt x="705" y="-48" on="0"/>
        <pt x="722" y="-5" on="0"/>
        <pt x="942" y="459" on="1"/>
        <pt x="707" y="468" on="0"/>
        <pt x="529" y="473" on="1"/>
        <pt x="358" y="258" on="0"/>
        <pt x="219" y="23" on="1"/>
        <pt x="202" y="-10" on="0"/>
        <pt x="172" y="-37" on="0"/>
        <pt x="120" y="-37" on="0"/>
        <pt x="60" y="16" on="0"/>
        <pt x="60" y="51" on="1"/>
        <pt x="60" y="151" on="0"/>
        <pt x="318" y="479" on="1"/>
        <pt x="197" y="479" on="0"/>
        <pt x="132" y="467" on="0"/>
        <pt x="123" y="467" on="1"/>
        <pt x="96" y="467" on="0"/>
        <pt x="96" y="558" on="0"/>
        <pt x="203" y="627" on="0"/>
        <pt x="293" y="627" on="1"/>
        <pt x="300" y="627" on="0"/>
        <pt x="318" y="628" on="1"/>
        <pt x="380" y="631" on="0"/>
        <pt x="445" y="633" on="1"/>
        <pt x="663" y="889" on="0"/>
        <pt x="1139" y="1327" on="0"/>
        <pt x="1313" y="1415" on="1"/>
        <pt x="1341" y="1429" on="0"/>
        <pt x="1374" y="1428" on="0"/>
      </contour>
      <contour>
        <pt x="1327" y="1262" on="1"/>
        <pt x="962" y="985" on="0"/>
        <pt x="660" y="633" on="1"/>
        <pt x="837" y="629" on="0"/>
        <pt x="1018" y="618" on="1"/>
        <pt x="1200" y="1001" on="0"/>
      </contour>
    </TTGlyph>
    <TTGlyph name="AE" xMin="60" yMin="-66" xMax="2270" yMax="1472">
      <contour>
        <pt x="1397" y="1403" on="1"/>
        <pt x="1428" y="1472" on="0"/>
        <pt x="1441" y="1472" on="1"/>
        <pt x="1446" y="1472" on="1"/>
        <pt x="1461" y="1472" on="0"/>
        <pt x="1553" y="1408" on="0"/>
        <pt x="1553" y="1380" on="1"/>
        <pt x="1553" y="1370" on="0"/>
        <pt x="1537" y="1328" on="1"/>
        <pt x="1654" y="1387" on="0"/>
        <pt x="1914" y="1456" on="0"/>
        <pt x="1989" y="1456" on="1"/>
        <pt x="2126" y="1456" on="0"/>
        <pt x="2187" y="1437" on="1"/>
        <pt x="2224" y="1419" on="0"/>
        <pt x="2270" y="1354" on="0"/>
        <pt x="2270" y="1307" on="0"/>
        <pt x="2258" y="1269" on="0"/>
        <pt x="2244" y="1258" on="1"/>
        <pt x="2224" y="1243" on="0"/>
        <pt x="2174" y="1227" on="0"/>
        <pt x="2170" y="1225" on="1"/>
        <pt x="2092" y="1192" on="0"/>
        <pt x="2036" y="1192" on="1"/>
        <pt x="1936" y="1192" on="0"/>
        <pt x="1927" y="1218" on="1"/>
        <pt x="1929" y="1244" on="0"/>
        <pt x="1949" y="1278" on="1"/>
        <pt x="1854" y="1274" on="0"/>
        <pt x="1650" y="1205" on="0"/>
        <pt x="1501" y="1112" on="0"/>
        <pt x="1405" y="1012" on="0"/>
        <pt x="1405" y="978" on="1"/>
        <pt x="1405" y="913" on="0"/>
        <pt x="1632" y="913" on="1"/>
        <pt x="1688" y="913" on="0"/>
        <pt x="1715" y="925" on="1"/>
        <pt x="1786" y="959" on="0"/>
        <pt x="1993" y="959" on="0"/>
        <pt x="1993" y="906" on="1"/>
        <pt x="1993" y="885" on="0"/>
        <pt x="1958" y="804" on="0"/>
        <pt x="1941" y="786" on="0"/>
        <pt x="1829" y="755" on="0"/>
        <pt x="1796" y="752" on="0"/>
        <pt x="1785" y="750" on="0"/>
        <pt x="1770" y="748" on="0"/>
        <pt x="1718" y="739" on="0"/>
        <pt x="1706" y="744" on="1"/>
        <pt x="1375" y="581" on="0"/>
        <pt x="1251" y="386" on="1"/>
        <pt x="1195" y="298" on="0"/>
        <pt x="1195" y="235" on="1"/>
        <pt x="1195" y="136" on="0"/>
        <pt x="1332" y="136" on="1"/>
        <pt x="1439" y="136" on="0"/>
        <pt x="1769" y="304" on="0"/>
        <pt x="2024" y="543" on="0"/>
        <pt x="2024" y="631" on="1"/>
        <pt x="2024" y="659" on="0"/>
        <pt x="2066" y="659" on="1"/>
        <pt x="2163" y="659" on="0"/>
        <pt x="2163" y="544" on="1"/>
        <pt x="2163" y="490" on="0"/>
        <pt x="2069" y="341" on="0"/>
        <pt x="1901" y="188" on="0"/>
        <pt x="1695" y="56" on="0"/>
        <pt x="1444" y="-28" on="0"/>
        <pt x="1222" y="-28" on="0"/>
        <pt x="1047" y="78" on="0"/>
        <pt x="1022" y="181" on="1"/>
        <pt x="961" y="55" on="0"/>
        <pt x="891" y="-29" on="0"/>
        <pt x="839" y="-53" on="0"/>
        <pt x="781" y="-53" on="0"/>
        <pt x="741" y="-66" on="0"/>
        <pt x="737" y="-66" on="1"/>
        <pt x="705" y="-66" on="0"/>
        <pt x="705" y="-51" on="1"/>
        <pt x="705" y="-48" on="0"/>
        <pt x="722" y="-5" on="0"/>
        <pt x="942" y="459" on="1"/>
        <pt x="707" y="468" on="0"/>
        <pt x="529" y="473" on="1"/>
        <pt x="358" y="258" on="0"/>
        <pt x="219" y="23" on="1"/>
        <pt x="202" y="-10" on="0"/>
        <pt x="172" y="-37" on="0"/>
        <pt x="120" y="-37" on="0"/>
        <pt x="60" y="16" on="0"/>
        <pt x="60" y="51" on="1"/>
        <pt x="60" y="151" on="0"/>
        <pt x="318" y="479" on="1"/>
        <pt x="197" y="479" on="0"/>
        <pt x="132" y="467" on="0"/>
        <pt x="123" y="467" on="1"/>
        <pt x="96" y="467" on="0"/>
        <pt x="96" y="558" on="0"/>
        <pt x="203" y="627" on="0"/>
        <pt x="293" y="627" on="1"/>
        <pt x="300" y="627" on="0"/>
        <pt x="318" y="628" on="1"/>
        <pt x="380" y="631" on="0"/>
        <pt x="445" y="633" on="1"/>
        <pt x="663" y="889" on="0"/>
        <pt x="1139" y="1327" on="0"/>
        <pt x="1313" y="1415" on="1"/>
        <pt x="1341" y="1429" on="0"/>
        <pt x="1374" y="1428" on="0"/>
      </contour>
      <contour>
        <pt x="1327" y="1262" on="1"/>
        <pt x="962" y="985" on="0"/>
        <pt x="660" y="633" on="1"/>
        <pt x="837" y="629" on="0"/>
        <pt x="1018" y="618" on="1"/>
        <pt x="1200" y="1001" on="0"/>
      </contour>
      <contour>
        <pt x="1313" y="812" on="1"/>
        <pt x="1268" y="712" on="0"/>
        <pt x="1223" y="614" on="1"/>
        <pt x="1313" y="694" on="0"/>
        <pt x="1434" y="764" on="1"/>
        <pt x="1358" y="781" on="0"/>
      </contour>
    </TTGlyph>
    <TTGlyph name="AEacute" xMin="60" yMin="-66" xMax="2270" yMax="1974">
      <component glyphName="AE" x="0" y="0" flags="0x1004"/>
      <component glyphName="acute" x="1091" y="684" flags="0x1004"/>
    </TTGlyph>
    <TTGlyph name="Aacute" xMin="60" yMin="-66" xMax="1884" yMax="1974">
      <component glyphName="A" x="0" y="0" flags="0x1004"/>
      <component glyphName="acute" x="892" y="684" flags="0x1004"/>
    </TTGlyph>
    <TTGlyph name="Abreve" xMin="60" yMin="-66" xMax="1856" yMax="1943">
      <component glyphName="A" x="0" y="0" flags="0x1004"/>
      <component glyphName="breve" x="751" y="684" flags="0x1004"/>
    </TTGlyph>
    <TTGlyph name="Acircumflex" xMin="60" yMin="-66" xMax="1828" yMax="1979">
      <component glyphName="A" x="0" y="0" flags="0x1004"/>
      <component glyphName="circumflex" x="814" y="684" flags="0x1004"/>
    </TTGlyph>
    <TTGlyph name="Adieresis" xMin="60" yMin="-66" xMax="1875" yMax="1855">
      <component glyphName="A" x="0" y="0" flags="0x1004"/>
      <component glyphName="dieresis" x="826" y="684" flags="0x1004"/>
    </TTGlyph>
    <TTGlyph name="Agrave" xMin="60" yMin="-66" xMax="1553" yMax="1978">
      <component glyphName="A" x="0" y="0" flags="0x1004"/>
      <component glyphName="grave" x="707" y="684" flags="0x1004"/>
    </TTGlyph>
    <TTGlyph name="Amacron" xMin="60" yMin="-66" xMax="1859" yMax="1841">
      <component glyphName="A" x="0" y="0" flags="0x1004"/>
      <component glyphName="macron" x="820" y="684" flags="0x1004"/>
    </TTGlyph>
    <TTGlyph name="Aogonek" xMin="60" yMin="-397" xMax="1553" yMax="1472">
      <contour>
        <pt x="1397" y="1403" on="1"/>
        <pt x="1428" y="1472" on="0"/>
        <pt x="1441" y="1472" on="1"/>
        <pt x="1446" y="1472" on="1"/>
        <pt x="1461" y="1472" on="0"/>
        <pt x="1553" y="1408" on="0"/>
        <pt x="1553" y="1380" on="1"/>
        <pt x="1553" y="1341" on="0"/>
        <pt x="1041" y="211" on="0"/>
        <pt x="966" y="73" on="0"/>
        <pt x="950" y="48" on="1"/>
        <pt x="908" y="-23" on="0"/>
        <pt x="858" y="-43" on="1"/>
        <pt x="809" y="-78" on="0"/>
        <pt x="737" y="-181" on="0"/>
        <pt x="737" y="-233" on="0"/>
        <pt x="749" y="-242" on="1"/>
        <pt x="801" y="-242" on="0"/>
        <pt x="973" y="-172" on="0"/>
        <pt x="993" y="-172" on="1"/>
        <pt x="1007" y="-172" on="0"/>
        <pt x="1007" y="-238" on="0"/>
        <pt x="1001" y="-258" on="1"/>
        <pt x="968" y="-320" on="0"/>
        <pt x="820" y="-397" on="0"/>
        <pt x="724" y="-397" on="1"/>
        <pt x="686" y="-397" on="0"/>
        <pt x="614" y="-308" on="0"/>
        <pt x="614" y="-216" on="0"/>
        <pt x="680" y="-101" on="0"/>
        <pt x="737" y="-66" on="1"/>
        <pt x="708" y="-69" on="0"/>
        <pt x="701" y="-50" on="1"/>
        <pt x="699" y="-45" on="0"/>
        <pt x="699" y="-44" on="1"/>
        <pt x="699" y="-39" on="1"/>
        <pt x="699" y="-25" on="0"/>
        <pt x="724" y="20" on="0"/>
        <pt x="747" y="66" on="0"/>
        <pt x="780" y="128" on="0"/>
        <pt x="821" y="209" on="0"/>
        <pt x="843" y="254" on="1"/>
        <pt x="888" y="345" on="0"/>
        <pt x="942" y="459" on="1"/>
        <pt x="707" y="468" on="0"/>
        <pt x="529" y="473" on="1"/>
        <pt x="358" y="258" on="0"/>
        <pt x="219" y="23" on="1"/>
        <pt x="202" y="-10" on="0"/>
        <pt x="172" y="-37" on="0"/>
        <pt x="120" y="-37" on="0"/>
        <pt x="60" y="16" on="0"/>
        <pt x="60" y="51" on="1"/>
        <pt x="60" y="151" on="0"/>
        <pt x="318" y="479" on="1"/>
        <pt x="197" y="479" on="0"/>
        <pt x="132" y="467" on="0"/>
        <pt x="123" y="467" on="1"/>
        <pt x="96" y="467" on="0"/>
        <pt x="96" y="558" on="0"/>
        <pt x="203" y="627" on="0"/>
        <pt x="293" y="627" on="1"/>
        <pt x="300" y="627" on="0"/>
        <pt x="318" y="628" on="1"/>
        <pt x="380" y="631" on="0"/>
        <pt x="445" y="633" on="1"/>
        <pt x="663" y="889" on="0"/>
        <pt x="1139" y="1327" on="0"/>
        <pt x="1313" y="1415" on="1"/>
        <pt x="1341" y="1429" on="0"/>
        <pt x="1374" y="1428" on="0"/>
      </contour>
      <contour>
        <pt x="1327" y="1262" on="1"/>
        <pt x="962" y="985" on="0"/>
        <pt x="660" y="633" on="1"/>
        <pt x="837" y="629" on="0"/>
        <pt x="1018" y="618" on="1"/>
        <pt x="1200" y="1001" on="0"/>
      </contour>
    </TTGlyph>
    <TTGlyph name="Aring" xMin="60" yMin="-66" xMax="1802" yMax="1990">
      <component glyphName="A" x="0" y="0" flags="0x1004"/>
      <component glyphName="ring" x="873" y="684" flags="0x1004"/>
    </TTGlyph>
    <TTGlyph name="Atilde" xMin="60" yMin="-66" xMax="1912" yMax="1872">
      <component glyphName="A" x="0" y="0" flags="0x1004"/>
      <component glyphName="tilde" x="763" y="684" flags="0x1004"/>
    </TTGlyph>
    <TTGlyph name="B" xMin="220" yMin="-22" xMax="1634" yMax="1452">
      <contour>
        <pt x="564" y="1024" on="1"/>
        <pt x="593" y="1031" on="1"/>
        <pt x="599" y="1031" on="0"/>
        <pt x="599" y="1008" on="0"/>
        <pt x="530" y="956" on="0"/>
        <pt x="433" y="956" on="0"/>
        <pt x="378" y="1012" on="0"/>
        <pt x="378" y="1057" on="1"/>
        <pt x="378" y="1152" on="0"/>
        <pt x="626" y="1339" on="0"/>
        <pt x="988" y="1452" on="0"/>
        <pt x="1154" y="1452" on="1"/>
        <pt x="1397" y="1452" on="0"/>
        <pt x="1634" y="1294" on="0"/>
        <pt x="1634" y="1161" on="1"/>
        <pt x="1634" y="991" on="0"/>
        <pt x="1398" y="832" on="1"/>
        <pt x="1274" y="748" on="0"/>
        <pt x="1130" y="698" on="1"/>
        <pt x="1288" y="681" on="0"/>
        <pt x="1382" y="596" on="1"/>
        <pt x="1453" y="532" on="0"/>
        <pt x="1453" y="334" on="0"/>
        <pt x="1264" y="129" on="0"/>
        <pt x="950" y="-6" on="0"/>
        <pt x="786" y="-6" on="1"/>
        <pt x="597" y="-6" on="0"/>
        <pt x="508" y="77" on="1"/>
        <pt x="468" y="115" on="0"/>
        <pt x="468" y="174" on="0"/>
        <pt x="483" y="207" on="1"/>
        <pt x="410" y="75" on="0"/>
        <pt x="376" y="8" on="1"/>
        <pt x="361" y="-22" on="0"/>
        <pt x="270" y="-22" on="0"/>
        <pt x="220" y="26" on="0"/>
        <pt x="220" y="86" on="0"/>
        <pt x="229" y="109" on="1"/>
        <pt x="274" y="227" on="0"/>
        <pt x="819" y="1096" on="0"/>
        <pt x="880" y="1165" on="1"/>
        <pt x="912" y="1204" on="0"/>
        <pt x="1025" y="1204" on="1"/>
        <pt x="1070" y="1204" on="0"/>
        <pt x="1070" y="1184" on="1"/>
        <pt x="1070" y="1169" on="0"/>
        <pt x="804" y="749" on="0"/>
        <pt x="798" y="739" on="1"/>
        <pt x="937" y="779" on="0"/>
        <pt x="1228" y="918" on="0"/>
        <pt x="1445" y="1094" on="0"/>
        <pt x="1445" y="1165" on="1"/>
        <pt x="1445" y="1282" on="0"/>
        <pt x="1191" y="1282" on="1"/>
        <pt x="925" y="1282" on="0"/>
        <pt x="679" y="1141" on="1"/>
        <pt x="618" y="1106" on="0"/>
        <pt x="554" y="1048" on="0"/>
        <pt x="554" y="1024" on="0"/>
      </contour>
      <contour>
        <pt x="744" y="546" on="1"/>
        <pt x="726" y="546" on="0"/>
        <pt x="704" y="588" on="1"/>
        <pt x="609" y="436" on="0"/>
        <pt x="505" y="250" on="1"/>
        <pt x="552" y="315" on="0"/>
        <pt x="642" y="315" on="1"/>
        <pt x="702" y="315" on="0"/>
        <pt x="702" y="300" on="1"/>
        <pt x="702" y="294" on="0"/>
        <pt x="689" y="289" on="1"/>
        <pt x="649" y="274" on="0"/>
        <pt x="649" y="244" on="1"/>
        <pt x="649" y="172" on="0"/>
        <pt x="802" y="172" on="1"/>
        <pt x="1009" y="172" on="0"/>
        <pt x="1177" y="316" on="1"/>
        <pt x="1267" y="392" on="0"/>
        <pt x="1267" y="449" on="1"/>
        <pt x="1267" y="484" on="0"/>
        <pt x="1194" y="526" on="1"/>
        <pt x="1109" y="573" on="0"/>
        <pt x="935" y="573" on="1"/>
        <pt x="814" y="573" on="0"/>
        <pt x="746" y="546" on="0"/>
      </contour>
    </TTGlyph>
    <TTGlyph name="C" xMin="164" yMin="-4" xMax="1524" yMax="1434">
      <contour>
        <pt x="1158" y="583" on="1"/>
        <pt x="1182" y="583" on="0"/>
        <pt x="1182" y="506" on="0"/>
        <pt x="1165" y="412" on="1"/>
        <pt x="1152" y="349" on="0"/>
        <pt x="1021" y="232" on="1"/>
        <pt x="863" y="92" on="0"/>
        <pt x="674" y="32" on="1"/>
        <pt x="560" y="-4" on="0"/>
        <pt x="343" y="-4" on="0"/>
        <pt x="164" y="179" on="0"/>
        <pt x="164" y="430" on="0"/>
        <pt x="265" y="699" on="0"/>
        <pt x="436" y="944" on="0"/>
        <pt x="669" y="1170" on="0"/>
        <pt x="921" y="1336" on="0"/>
        <pt x="1197" y="1434" on="0"/>
        <pt x="1321" y="1434" on="1"/>
        <pt x="1419" y="1434" on="0"/>
        <pt x="1488" y="1363" on="1"/>
        <pt x="1524" y="1325" on="0"/>
        <pt x="1524" y="1210" on="0"/>
        <pt x="1412" y="1035" on="0"/>
        <pt x="1259" y="891" on="0"/>
        <pt x="1096" y="791" on="0"/>
        <pt x="998" y="791" on="0"/>
        <pt x="928" y="852" on="0"/>
        <pt x="928" y="900" on="0"/>
        <pt x="949" y="958" on="0"/>
        <pt x="965" y="958" on="1"/>
        <pt x="961" y="953" on="0"/>
        <pt x="961" y="948" on="1"/>
        <pt x="961" y="936" on="0"/>
        <pt x="1030" y="936" on="0"/>
        <pt x="1192" y="1058" on="0"/>
        <pt x="1323" y="1210" on="0"/>
        <pt x="1323" y="1248" on="1"/>
        <pt x="1323" y="1274" on="0"/>
        <pt x="1288" y="1274" on="1"/>
        <pt x="1194" y="1274" on="0"/>
        <pt x="863" y="1099" on="0"/>
        <pt x="561" y="823" on="0"/>
        <pt x="338" y="444" on="0"/>
        <pt x="338" y="293" on="1"/>
        <pt x="338" y="230" on="0"/>
        <pt x="405" y="154" on="0"/>
        <pt x="544" y="154" on="0"/>
        <pt x="734" y="234" on="0"/>
        <pt x="905" y="350" on="0"/>
        <pt x="1057" y="472" on="0"/>
        <pt x="1148" y="564" on="0"/>
        <pt x="1150" y="583" on="0"/>
      </contour>
    </TTGlyph>
    <TTGlyph name="Cacute" xMin="164" yMin="-4" xMax="1717" yMax="1934">
      <component glyphName="C" x="0" y="0" flags="0x1004"/>
      <component glyphName="acute" x="725" y="644" flags="0x1004"/>
    </TTGlyph>
    <TTGlyph name="Ccaron" xMin="164" yMin="-4" xMax="1734" yMax="1938">
      <component glyphName="C" x="0" y="0" flags="0x1004"/>
      <component glyphName="caron" x="616" y="644" flags="0x1004"/>
    </TTGlyph>
    <TTGlyph name="Ccedilla" xMin="164" yMin="-437" xMax="1524" yMax="1434">
      <component glyphName="C" x="0" y="0" flags="0x1004"/>
      <component glyphName="cedilla" x="148" y="20" flags="0x1004"/>
    </TTGlyph>
    <TTGlyph name="Ccircumflex" xMin="164" yMin="-4" xMax="1661" yMax="1939">
      <component glyphName="C" x="0" y="0" flags="0x1004"/>
      <component glyphName="circumflex" x="647" y="644" flags="0x1004"/>
    </TTGlyph>
    <TTGlyph name="Cdotaccent" xMin="164" yMin="-4" xMax="1524" yMax="1831">
      <component glyphName="C" x="0" y="0" flags="0x1004"/>
      <component glyphName="dotaccent" x="634" y="644" flags="0x1004"/>
    </TTGlyph>
    <TTGlyph name="D" xMin="300" yMin="0" xMax="1801" yMax="1434">
      <contour>
        <pt x="481" y="980" on="1"/>
        <pt x="460" y="983" on="1"/>
        <pt x="456" y="983" on="1"/>
        <pt x="431" y="983" on="0"/>
        <pt x="378" y="1023" on="0"/>
        <pt x="378" y="1125" on="0"/>
        <pt x="489" y="1255" on="0"/>
        <pt x="679" y="1364" on="0"/>
        <pt x="962" y="1434" on="0"/>
        <pt x="1119" y="1434" on="1"/>
        <pt x="1440" y="1434" on="0"/>
        <pt x="1801" y="1181" on="0"/>
        <pt x="1801" y="979" on="1"/>
        <pt x="1801" y="853" on="0"/>
        <pt x="1689" y="601" on="0"/>
        <pt x="1501" y="388" on="0"/>
        <pt x="1247" y="203" on="0"/>
        <pt x="1108" y="138" on="1"/>
        <pt x="808" y="0" on="0"/>
        <pt x="534" y="0" on="1"/>
        <pt x="399" y="0" on="0"/>
        <pt x="364" y="22" on="1"/>
        <pt x="351" y="29" on="0"/>
        <pt x="326" y="58" on="0"/>
        <pt x="319" y="63" on="1"/>
        <pt x="300" y="75" on="0"/>
        <pt x="300" y="154" on="0"/>
        <pt x="308" y="186" on="1"/>
        <pt x="338" y="293" on="0"/>
        <pt x="817" y="1008" on="0"/>
        <pt x="978" y="1227" on="1"/>
        <pt x="989" y="1242" on="0"/>
        <pt x="1091" y="1249" on="1"/>
        <pt x="1133" y="1249" on="0"/>
        <pt x="1165" y="1237" on="0"/>
        <pt x="1165" y="1206" on="0"/>
        <pt x="1061" y="1061" on="0"/>
        <pt x="497" y="192" on="0"/>
        <pt x="497" y="168" on="0"/>
        <pt x="674" y="168" on="0"/>
        <pt x="933" y="243" on="0"/>
        <pt x="1161" y="365" on="0"/>
        <pt x="1369" y="526" on="0"/>
        <pt x="1443" y="610" on="1"/>
        <pt x="1605" y="794" on="0"/>
        <pt x="1605" y="1080" on="0"/>
        <pt x="1344" y="1280" on="0"/>
        <pt x="1117" y="1280" on="1"/>
        <pt x="964" y="1280" on="0"/>
        <pt x="692" y="1178" on="0"/>
        <pt x="590" y="1098" on="0"/>
        <pt x="590" y="1084" on="1"/>
        <pt x="590" y="1076" on="0"/>
        <pt x="602" y="1076" on="1"/>
        <pt x="645" y="1084" on="1"/>
        <pt x="654" y="1084" on="0"/>
        <pt x="654" y="1076" on="0"/>
        <pt x="620" y="1056" on="0"/>
        <pt x="599" y="1033" on="0"/>
        <pt x="515" y="982" on="0"/>
      </contour>
    </TTGlyph>
    <TTGlyph name="Dcaron" xMin="300" yMin="0" xMax="1801" yMax="1937">
      <component glyphName="D" x="0" y="0" flags="0x1004"/>
      <component glyphName="caron" x="545" y="643" flags="0x1004"/>
    </TTGlyph>
    <TTGlyph name="Dcroat" xMin="300" yMin="0" xMax="1801" yMax="1434">
      <contour>
        <pt x="481" y="980" on="1"/>
        <pt x="460" y="983" on="1"/>
        <pt x="456" y="983" on="1"/>
        <pt x="431" y="983" on="0"/>
        <pt x="378" y="1023" on="0"/>
        <pt x="378" y="1125" on="0"/>
        <pt x="489" y="1255" on="0"/>
        <pt x="679" y="1364" on="0"/>
        <pt x="962" y="1434" on="0"/>
        <pt x="1119" y="1434" on="1"/>
        <pt x="1440" y="1434" on="0"/>
        <pt x="1801" y="1181" on="0"/>
        <pt x="1801" y="979" on="1"/>
        <pt x="1801" y="853" on="0"/>
        <pt x="1689" y="601" on="0"/>
        <pt x="1501" y="388" on="0"/>
        <pt x="1247" y="203" on="0"/>
        <pt x="1108" y="138" on="1"/>
        <pt x="808" y="0" on="0"/>
        <pt x="534" y="0" on="1"/>
        <pt x="399" y="0" on="0"/>
        <pt x="364" y="22" on="1"/>
        <pt x="351" y="29" on="0"/>
        <pt x="326" y="58" on="0"/>
        <pt x="319" y="63" on="1"/>
        <pt x="300" y="75" on="0"/>
        <pt x="300" y="154" on="0"/>
        <pt x="308" y="186" on="1"/>
        <pt x="334" y="282" on="0"/>
        <pt x="568" y="636" on="1"/>
        <pt x="490" y="634" on="0"/>
        <pt x="388" y="638" on="0"/>
        <pt x="315" y="680" on="0"/>
        <pt x="316" y="717" on="1"/>
        <pt x="318" y="773" on="0"/>
        <pt x="582" y="798" on="0"/>
        <pt x="678" y="801" on="1"/>
        <pt x="859" y="1068" on="0"/>
        <pt x="978" y="1227" on="1"/>
        <pt x="989" y="1242" on="0"/>
        <pt x="1091" y="1249" on="1"/>
        <pt x="1133" y="1249" on="0"/>
        <pt x="1165" y="1237" on="0"/>
        <pt x="1165" y="1206" on="0"/>
        <pt x="1084" y="1093" on="0"/>
        <pt x="892" y="801" on="1"/>
        <pt x="905" y="800" on="0"/>
        <pt x="931" y="800" on="1"/>
        <pt x="1201" y="788" on="0"/>
        <pt x="1196" y="677" on="1"/>
        <pt x="1195" y="662" on="0"/>
        <pt x="1159" y="626" on="0"/>
        <pt x="1045" y="631" on="0"/>
        <pt x="950" y="645" on="0"/>
        <pt x="832" y="650" on="1"/>
        <pt x="793" y="649" on="1"/>
        <pt x="497" y="192" on="0"/>
        <pt x="497" y="168" on="0"/>
        <pt x="674" y="168" on="0"/>
        <pt x="933" y="243" on="0"/>
        <pt x="1161" y="365" on="0"/>
        <pt x="1369" y="526" on="0"/>
        <pt x="1443" y="610" on="1"/>
        <pt x="1605" y="794" on="0"/>
        <pt x="1605" y="1080" on="0"/>
        <pt x="1344" y="1280" on="0"/>
        <pt x="1117" y="1280" on="1"/>
        <pt x="964" y="1280" on="0"/>
        <pt x="692" y="1178" on="0"/>
        <pt x="590" y="1098" on="0"/>
        <pt x="590" y="1084" on="1"/>
        <pt x="590" y="1076" on="0"/>
        <pt x="602" y="1076" on="1"/>
        <pt x="645" y="1084" on="1"/>
        <pt x="654" y="1084" on="0"/>
        <pt x="654" y="1076" on="0"/>
        <pt x="620" y="1056" on="0"/>
        <pt x="599" y="1033" on="0"/>
        <pt x="515" y="982" on="0"/>
      </contour>
    </TTGlyph>
    <TTGlyph name="E" xMin="186" yMin="-28" xMax="1442" yMax="1456">
      <contour>
        <pt x="577" y="978" on="1"/>
        <pt x="577" y="913" on="0"/>
        <pt x="804" y="913" on="1"/>
        <pt x="860" y="913" on="0"/>
        <pt x="887" y="925" on="1"/>
        <pt x="958" y="959" on="0"/>
        <pt x="1165" y="959" on="0"/>
        <pt x="1165" y="906" on="1"/>
        <pt x="1165" y="885" on="0"/>
        <pt x="1130" y="804" on="0"/>
        <pt x="1113" y="786" on="0"/>
        <pt x="1001" y="755" on="0"/>
        <pt x="968" y="752" on="0"/>
        <pt x="957" y="750" on="0"/>
        <pt x="942" y="748" on="0"/>
        <pt x="890" y="739" on="0"/>
        <pt x="878" y="744" on="1"/>
        <pt x="547" y="581" on="0"/>
        <pt x="423" y="386" on="1"/>
        <pt x="367" y="298" on="0"/>
        <pt x="367" y="235" on="1"/>
        <pt x="367" y="136" on="0"/>
        <pt x="504" y="136" on="1"/>
        <pt x="611" y="136" on="0"/>
        <pt x="941" y="304" on="0"/>
        <pt x="1196" y="543" on="0"/>
        <pt x="1196" y="631" on="1"/>
        <pt x="1196" y="659" on="0"/>
        <pt x="1238" y="659" on="1"/>
        <pt x="1335" y="659" on="0"/>
        <pt x="1335" y="544" on="1"/>
        <pt x="1335" y="490" on="0"/>
        <pt x="1241" y="341" on="0"/>
        <pt x="1073" y="188" on="0"/>
        <pt x="867" y="56" on="0"/>
        <pt x="616" y="-28" on="0"/>
        <pt x="442" y="-28" on="0"/>
        <pt x="335" y="5" on="0"/>
        <pt x="288" y="38" on="1"/>
        <pt x="186" y="109" on="0"/>
        <pt x="186" y="253" on="1"/>
        <pt x="186" y="331" on="0"/>
        <pt x="270" y="492" on="0"/>
        <pt x="338" y="558" on="1"/>
        <pt x="463" y="682" on="0"/>
        <pt x="606" y="764" on="1"/>
        <pt x="400" y="811" on="0"/>
        <pt x="400" y="976" on="1"/>
        <pt x="400" y="1162" on="0"/>
        <pt x="686" y="1316" on="1"/>
        <pt x="845" y="1401" on="0"/>
        <pt x="1031" y="1438" on="1"/>
        <pt x="1119" y="1456" on="0"/>
        <pt x="1178" y="1456" on="1"/>
        <pt x="1298" y="1456" on="0"/>
        <pt x="1359" y="1437" on="1"/>
        <pt x="1396" y="1419" on="0"/>
        <pt x="1442" y="1354" on="0"/>
        <pt x="1442" y="1307" on="0"/>
        <pt x="1430" y="1269" on="0"/>
        <pt x="1416" y="1258" on="1"/>
        <pt x="1396" y="1243" on="0"/>
        <pt x="1346" y="1227" on="0"/>
        <pt x="1342" y="1225" on="1"/>
        <pt x="1264" y="1192" on="0"/>
        <pt x="1208" y="1192" on="1"/>
        <pt x="1108" y="1192" on="0"/>
        <pt x="1099" y="1218" on="1"/>
        <pt x="1101" y="1244" on="0"/>
        <pt x="1121" y="1278" on="1"/>
        <pt x="1026" y="1274" on="0"/>
        <pt x="822" y="1205" on="0"/>
        <pt x="673" y="1112" on="0"/>
        <pt x="577" y="1012" on="0"/>
      </contour>
    </TTGlyph>
    <TTGlyph name="Eacute" xMin="186" yMin="-28" xMax="1477" yMax="1949">
      <component glyphName="E" x="0" y="0" flags="0x1004"/>
      <component glyphName="acute" x="485" y="659" flags="0x1004"/>
    </TTGlyph>
    <TTGlyph name="Ebreve" xMin="186" yMin="-28" xMax="1449" yMax="1918">
      <component glyphName="E" x="0" y="0" flags="0x1004"/>
      <component glyphName="breve" x="344" y="659" flags="0x1004"/>
    </TTGlyph>
    <TTGlyph name="Ecaron" xMin="186" yMin="-28" xMax="1494" yMax="1953">
      <component glyphName="E" x="0" y="0" flags="0x1004"/>
      <component glyphName="caron" x="376" y="659" flags="0x1004"/>
    </TTGlyph>
    <TTGlyph name="Ecircumflex" xMin="186" yMin="-28" xMax="1442" yMax="1954">
      <component glyphName="E" x="0" y="0" flags="0x1004"/>
      <component glyphName="circumflex" x="407" y="659" flags="0x1004"/>
    </TTGlyph>
    <TTGlyph name="Edieresis" xMin="186" yMin="-28" xMax="1468" yMax="1830">
      <component glyphName="E" x="0" y="0" flags="0x1004"/>
      <component glyphName="dieresis" x="419" y="659" flags="0x1004"/>
    </TTGlyph>
    <TTGlyph name="Edotaccent" xMin="186" yMin="-28" xMax="1442" yMax="1846">
      <component glyphName="E" x="0" y="0" flags="0x1004"/>
      <component glyphName="dotaccent" x="394" y="659" flags="0x1004"/>
    </TTGlyph>
    <TTGlyph name="Egrave" xMin="186" yMin="-28" xMax="1442" yMax="1953">
      <component glyphName="E" x="0" y="0" flags="0x1004"/>
      <component glyphName="grave" x="300" y="659" flags="0x1004"/>
    </TTGlyph>
    <TTGlyph name="Emacron" xMin="186" yMin="-28" xMax="1452" yMax="1816">
      <component glyphName="E" x="0" y="0" flags="0x1004"/>
      <component glyphName="macron" x="413" y="659" flags="0x1004"/>
    </TTGlyph>
    <TTGlyph name="Eng" xMin="-36" yMin="-463" xMax="1805" yMax="1528">
      <contour>
        <pt x="978" y="1421" on="1"/>
        <pt x="1051" y="1437" on="1"/>
        <pt x="1079" y="1437" on="0"/>
        <pt x="1113" y="1413" on="0"/>
        <pt x="1113" y="1392" on="0"/>
        <pt x="1081" y="1260" on="0"/>
        <pt x="914" y="430" on="1"/>
        <pt x="1296" y="959" on="0"/>
        <pt x="1379" y="1093" on="1"/>
        <pt x="1555" y="1376" on="0"/>
        <pt x="1578" y="1448" on="1"/>
        <pt x="1590" y="1483" on="0"/>
        <pt x="1628" y="1521" on="0"/>
        <pt x="1658" y="1528" on="0"/>
        <pt x="1720" y="1528" on="0"/>
        <pt x="1805" y="1501" on="0"/>
        <pt x="1805" y="1470" on="1"/>
        <pt x="1805" y="1421" on="0"/>
        <pt x="1630" y="1112" on="0"/>
        <pt x="1504" y="926" on="1"/>
        <pt x="1243" y="538" on="0"/>
        <pt x="1055" y="291" on="0"/>
        <pt x="996" y="202" on="1"/>
        <pt x="884" y="34" on="1"/>
        <pt x="552" y="-463" on="0"/>
        <pt x="298" y="-463" on="1"/>
        <pt x="205" y="-463" on="0"/>
        <pt x="93" y="-367" on="0"/>
        <pt x="93" y="-235" on="0"/>
        <pt x="211" y="-73" on="0"/>
        <pt x="279" y="-73" on="1"/>
        <pt x="307" y="-73" on="0"/>
        <pt x="360" y="-88" on="0"/>
        <pt x="360" y="-99" on="1"/>
        <pt x="360" y="-123" on="0"/>
        <pt x="258" y="-225" on="0"/>
        <pt x="258" y="-235" on="1"/>
        <pt x="258" y="-276" on="0"/>
        <pt x="339" y="-276" on="0"/>
        <pt x="427" y="-223" on="0"/>
        <pt x="470" y="-176" on="1"/>
        <pt x="537" y="-104" on="0"/>
        <pt x="623" y="15" on="0"/>
        <pt x="629" y="24" on="0"/>
        <pt x="657" y="63" on="0"/>
        <pt x="667" y="78" on="1"/>
        <pt x="686" y="278" on="0"/>
        <pt x="859" y="1118" on="1"/>
        <pt x="694" y="904" on="0"/>
        <pt x="458" y="522" on="1"/>
        <pt x="212" y="127" on="0"/>
        <pt x="180" y="32" on="1"/>
        <pt x="162" y="-25" on="0"/>
        <pt x="139" y="-34" on="1"/>
        <pt x="123" y="-41" on="0"/>
        <pt x="105" y="-41" on="1"/>
        <pt x="26" y="-50" on="1"/>
        <pt x="3" y="-50" on="0"/>
        <pt x="-36" y="-24" on="0"/>
        <pt x="-36" y="-10" on="1"/>
        <pt x="-36" y="30" on="0"/>
        <pt x="185" y="428" on="0"/>
        <pt x="480" y="895" on="0"/>
        <pt x="802" y="1337" on="0"/>
        <pt x="890" y="1413" on="1"/>
        <pt x="908" y="1429" on="0"/>
        <pt x="931" y="1429" on="1"/>
      </contour>
    </TTGlyph>
    <TTGlyph name="Eogonek" xMin="186" yMin="-367" xMax="1442" yMax="1456">
      <contour>
        <pt x="577" y="978" on="1"/>
        <pt x="577" y="913" on="0"/>
        <pt x="804" y="913" on="1"/>
        <pt x="860" y="913" on="0"/>
        <pt x="887" y="925" on="1"/>
        <pt x="958" y="959" on="0"/>
        <pt x="1165" y="959" on="0"/>
        <pt x="1165" y="906" on="1"/>
        <pt x="1165" y="885" on="0"/>
        <pt x="1130" y="804" on="0"/>
        <pt x="1113" y="786" on="0"/>
        <pt x="1001" y="755" on="0"/>
        <pt x="968" y="752" on="0"/>
        <pt x="957" y="750" on="0"/>
        <pt x="942" y="748" on="0"/>
        <pt x="890" y="739" on="0"/>
        <pt x="878" y="744" on="1"/>
        <pt x="547" y="581" on="0"/>
        <pt x="423" y="386" on="1"/>
        <pt x="367" y="298" on="0"/>
        <pt x="367" y="235" on="1"/>
        <pt x="367" y="136" on="0"/>
        <pt x="504" y="136" on="1"/>
        <pt x="611" y="136" on="0"/>
        <pt x="941" y="304" on="0"/>
        <pt x="1196" y="543" on="0"/>
        <pt x="1196" y="631" on="1"/>
        <pt x="1196" y="659" on="0"/>
        <pt x="1238" y="659" on="1"/>
        <pt x="1335" y="659" on="0"/>
        <pt x="1335" y="443" on="0"/>
        <pt x="1024" y="139" on="0"/>
        <pt x="825" y="47" on="1"/>
        <pt x="784" y="28" on="0"/>
        <pt x="655" y="-152" on="0"/>
        <pt x="655" y="-203" on="0"/>
        <pt x="667" y="-212" on="1"/>
        <pt x="719" y="-212" on="0"/>
        <pt x="891" y="-142" on="0"/>
        <pt x="911" y="-142" on="1"/>
        <pt x="925" y="-142" on="0"/>
        <pt x="925" y="-208" on="0"/>
        <pt x="919" y="-228" on="1"/>
        <pt x="886" y="-290" on="0"/>
        <pt x="738" y="-367" on="0"/>
        <pt x="642" y="-367" on="1"/>
        <pt x="604" y="-367" on="0"/>
        <pt x="532" y="-278" on="0"/>
        <pt x="532" y="-190" on="0"/>
        <pt x="600" y="-64" on="0"/>
        <pt x="653" y="-10" on="1"/>
        <pt x="576" y="-28" on="0"/>
        <pt x="442" y="-28" on="0"/>
        <pt x="335" y="5" on="0"/>
        <pt x="288" y="38" on="1"/>
        <pt x="186" y="109" on="0"/>
        <pt x="186" y="253" on="1"/>
        <pt x="186" y="331" on="0"/>
        <pt x="270" y="492" on="0"/>
        <pt x="338" y="558" on="1"/>
        <pt x="463" y="682" on="0"/>
        <pt x="606" y="764" on="1"/>
        <pt x="400" y="811" on="0"/>
        <pt x="400" y="976" on="1"/>
        <pt x="400" y="1162" on="0"/>
        <pt x="686" y="1316" on="1"/>
        <pt x="845" y="1401" on="0"/>
        <pt x="1031" y="1438" on="1"/>
        <pt x="1119" y="1456" on="0"/>
        <pt x="1178" y="1456" on="1"/>
        <pt x="1298" y="1456" on="0"/>
        <pt x="1359" y="1437" on="1"/>
        <pt x="1396" y="1419" on="0"/>
        <pt x="1442" y="1354" on="0"/>
        <pt x="1442" y="1307" on="0"/>
        <pt x="1430" y="1269" on="0"/>
        <pt x="1416" y="1258" on="1"/>
        <pt x="1396" y="1243" on="0"/>
        <pt x="1346" y="1227" on="0"/>
        <pt x="1342" y="1225" on="1"/>
        <pt x="1264" y="1192" on="0"/>
        <pt x="1208" y="1192" on="1"/>
        <pt x="1108" y="1192" on="0"/>
        <pt x="1099" y="1218" on="1"/>
        <pt x="1101" y="1244" on="0"/>
        <pt x="1121" y="1278" on="1"/>
        <pt x="1026" y="1274" on="0"/>
        <pt x="822" y="1205" on="0"/>
        <pt x="673" y="1112" on="0"/>
        <pt x="577" y="1012" on="0"/>
      </contour>
    </TTGlyph>
    <TTGlyph name="Eth" xMin="300" yMin="0" xMax="1801" yMax="1434">
      <contour>
        <pt x="481" y="980" on="1"/>
        <pt x="460" y="983" on="1"/>
        <pt x="456" y="983" on="1"/>
        <pt x="431" y="983" on="0"/>
        <pt x="378" y="1023" on="0"/>
        <pt x="378" y="1125" on="0"/>
        <pt x="489" y="1255" on="0"/>
        <pt x="679" y="1364" on="0"/>
        <pt x="962" y="1434" on="0"/>
        <pt x="1119" y="1434" on="1"/>
        <pt x="1440" y="1434" on="0"/>
        <pt x="1801" y="1181" on="0"/>
        <pt x="1801" y="979" on="1"/>
        <pt x="1801" y="853" on="0"/>
        <pt x="1689" y="601" on="0"/>
        <pt x="1501" y="388" on="0"/>
        <pt x="1247" y="203" on="0"/>
        <pt x="1108" y="138" on="1"/>
        <pt x="808" y="0" on="0"/>
        <pt x="534" y="0" on="1"/>
        <pt x="399" y="0" on="0"/>
        <pt x="364" y="22" on="1"/>
        <pt x="351" y="29" on="0"/>
        <pt x="326" y="58" on="0"/>
        <pt x="319" y="63" on="1"/>
        <pt x="300" y="75" on="0"/>
        <pt x="300" y="154" on="0"/>
        <pt x="308" y="186" on="1"/>
        <pt x="334" y="282" on="0"/>
        <pt x="568" y="636" on="1"/>
        <pt x="490" y="634" on="0"/>
        <pt x="388" y="638" on="0"/>
        <pt x="315" y="680" on="0"/>
        <pt x="316" y="717" on="1"/>
        <pt x="318" y="773" on="0"/>
        <pt x="582" y="798" on="0"/>
        <pt x="678" y="801" on="1"/>
        <pt x="859" y="1068" on="0"/>
        <pt x="978" y="1227" on="1"/>
        <pt x="989" y="1242" on="0"/>
        <pt x="1091" y="1249" on="1"/>
        <pt x="1133" y="1249" on="0"/>
        <pt x="1165" y="1237" on="0"/>
        <pt x="1165" y="1206" on="0"/>
        <pt x="1084" y="1093" on="0"/>
        <pt x="892" y="801" on="1"/>
        <pt x="905" y="800" on="0"/>
        <pt x="931" y="800" on="1"/>
        <pt x="1201" y="788" on="0"/>
        <pt x="1196" y="677" on="1"/>
        <pt x="1195" y="662" on="0"/>
        <pt x="1159" y="626" on="0"/>
        <pt x="1045" y="631" on="0"/>
        <pt x="950" y="645" on="0"/>
        <pt x="832" y="650" on="1"/>
        <pt x="793" y="649" on="1"/>
        <pt x="497" y="192" on="0"/>
        <pt x="497" y="168" on="0"/>
        <pt x="674" y="168" on="0"/>
        <pt x="933" y="243" on="0"/>
        <pt x="1161" y="365" on="0"/>
        <pt x="1369" y="526" on="0"/>
        <pt x="1443" y="610" on="1"/>
        <pt x="1605" y="794" on="0"/>
        <pt x="1605" y="1080" on="0"/>
        <pt x="1344" y="1280" on="0"/>
        <pt x="1117" y="1280" on="1"/>
        <pt x="964" y="1280" on="0"/>
        <pt x="692" y="1178" on="0"/>
        <pt x="590" y="1098" on="0"/>
        <pt x="590" y="1084" on="1"/>
        <pt x="590" y="1076" on="0"/>
        <pt x="602" y="1076" on="1"/>
        <pt x="645" y="1084" on="1"/>
        <pt x="654" y="1084" on="0"/>
        <pt x="654" y="1076" on="0"/>
        <pt x="620" y="1056" on="0"/>
        <pt x="599" y="1033" on="0"/>
        <pt x="515" y="982" on="0"/>
      </contour>
    </TTGlyph>
    <TTGlyph name="Euro" xMin="66" yMin="-30" xMax="1307" yMax="1249">
      <contour>
        <pt x="269" y="582" on="1"/>
        <pt x="255" y="582" on="1"/>
        <pt x="228" y="582" on="0"/>
        <pt x="179" y="603" on="0"/>
        <pt x="179" y="631" on="0"/>
        <pt x="189" y="653" on="0"/>
        <pt x="203" y="678" on="0"/>
        <pt x="205" y="683" on="1"/>
        <pt x="212" y="702" on="0"/>
        <pt x="303" y="732" on="0"/>
        <pt x="362" y="736" on="0"/>
        <pt x="420" y="738" on="1"/>
        <pt x="577" y="954" on="0"/>
        <pt x="1000" y="1249" on="0"/>
        <pt x="1168" y="1249" on="1"/>
        <pt x="1214" y="1249" on="0"/>
        <pt x="1307" y="1178" on="0"/>
        <pt x="1307" y="1059" on="0"/>
        <pt x="1231" y="931" on="0"/>
        <pt x="1123" y="835" on="0"/>
        <pt x="1001" y="772" on="0"/>
        <pt x="912" y="772" on="0"/>
        <pt x="853" y="825" on="0"/>
        <pt x="853" y="879" on="0"/>
        <pt x="891" y="930" on="0"/>
        <pt x="912" y="931" on="1"/>
        <pt x="900" y="918" on="0"/>
        <pt x="900" y="911" on="0"/>
        <pt x="921" y="911" on="1"/>
        <pt x="975" y="911" on="0"/>
        <pt x="1113" y="1034" on="0"/>
        <pt x="1113" y="1082" on="1"/>
        <pt x="1113" y="1096" on="0"/>
        <pt x="1097" y="1096" on="1"/>
        <pt x="1034" y="1096" on="0"/>
        <pt x="918" y="1020" on="1"/>
        <pt x="755" y="913" on="0"/>
        <pt x="621" y="740" on="1"/>
        <pt x="769" y="738" on="0"/>
        <pt x="855" y="738" on="0"/>
        <pt x="869" y="732" on="1"/>
        <pt x="905" y="717" on="0"/>
        <pt x="874" y="657" on="1"/>
        <pt x="864" y="635" on="0"/>
        <pt x="819" y="606" on="0"/>
        <pt x="785" y="605" on="0"/>
        <pt x="702" y="600" on="0"/>
        <pt x="573" y="593" on="0"/>
        <pt x="518" y="590" on="1"/>
        <pt x="496" y="554" on="0"/>
        <pt x="476" y="518" on="1"/>
        <pt x="612" y="521" on="0"/>
        <pt x="715" y="521" on="1"/>
        <pt x="724" y="521" on="0"/>
        <pt x="736" y="493" on="0"/>
        <pt x="715" y="421" on="0"/>
        <pt x="687" y="392" on="0"/>
        <pt x="638" y="389" on="1"/>
        <pt x="556" y="382" on="1"/>
        <pt x="475" y="374" on="0"/>
        <pt x="410" y="369" on="1"/>
        <pt x="380" y="282" on="0"/>
        <pt x="380" y="212" on="1"/>
        <pt x="380" y="121" on="0"/>
        <pt x="450" y="121" on="1"/>
        <pt x="502" y="121" on="0"/>
        <pt x="658" y="226" on="0"/>
        <pt x="790" y="359" on="0"/>
        <pt x="887" y="474" on="0"/>
        <pt x="892" y="499" on="0"/>
        <pt x="921" y="499" on="1"/>
        <pt x="936" y="499" on="0"/>
        <pt x="936" y="440" on="0"/>
        <pt x="911" y="342" on="1"/>
        <pt x="899" y="288" on="0"/>
        <pt x="744" y="129" on="0"/>
        <pt x="624" y="34" on="0"/>
        <pt x="473" y="-30" on="0"/>
        <pt x="331" y="-30" on="0"/>
        <pt x="216" y="109" on="0"/>
        <pt x="216" y="284" on="0"/>
        <pt x="234" y="358" on="1"/>
        <pt x="180" y="356" on="0"/>
        <pt x="156" y="356" on="1"/>
        <pt x="142" y="356" on="1"/>
        <pt x="115" y="356" on="0"/>
        <pt x="66" y="377" on="0"/>
        <pt x="66" y="405" on="0"/>
        <pt x="74" y="428" on="0"/>
        <pt x="80" y="443" on="1"/>
        <pt x="88" y="463" on="1"/>
        <pt x="95" y="480" on="0"/>
        <pt x="185" y="505" on="0"/>
        <pt x="227" y="508" on="0"/>
        <pt x="274" y="511" on="0"/>
        <pt x="288" y="512" on="1"/>
        <pt x="295" y="530" on="0"/>
        <pt x="322" y="583" on="1"/>
        <pt x="304" y="582" on="0"/>
      </contour>
    </TTGlyph>
    <TTGlyph name="F" xMin="360" yMin="-25" xMax="1789" yMax="1509">
      <contour>
        <pt x="388" y="547" on="1"/>
        <pt x="360" y="547" on="0"/>
        <pt x="360" y="582" on="1"/>
        <pt x="360" y="608" on="0"/>
        <pt x="407" y="670" on="0"/>
        <pt x="417" y="690" on="0"/>
        <pt x="460" y="732" on="0"/>
        <pt x="493" y="740" on="0"/>
        <pt x="544" y="745" on="1"/>
        <pt x="700" y="760" on="0"/>
        <pt x="884" y="762" on="1"/>
        <pt x="1084" y="1065" on="0"/>
        <pt x="1210" y="1212" on="1"/>
        <pt x="1023" y="1178" on="0"/>
        <pt x="751" y="1178" on="1"/>
        <pt x="382" y="1178" on="0"/>
        <pt x="382" y="1343" on="1"/>
        <pt x="382" y="1390" on="0"/>
        <pt x="477" y="1460" on="0"/>
        <pt x="622" y="1460" on="0"/>
        <pt x="622" y="1443" on="1"/>
        <pt x="622" y="1434" on="0"/>
        <pt x="577" y="1434" on="0"/>
        <pt x="538" y="1401" on="0"/>
        <pt x="538" y="1386" on="1"/>
        <pt x="538" y="1363" on="0"/>
        <pt x="734" y="1341" on="0"/>
        <pt x="1143" y="1341" on="0"/>
        <pt x="1382" y="1378" on="1"/>
        <pt x="1461" y="1443" on="0"/>
        <pt x="1600" y="1509" on="0"/>
        <pt x="1744" y="1509" on="0"/>
        <pt x="1788" y="1445" on="0"/>
        <pt x="1789" y="1413" on="0"/>
        <pt x="1741" y="1361" on="0"/>
        <pt x="1698" y="1334" on="1"/>
        <pt x="1597" y="1272" on="0"/>
        <pt x="1433" y="1260" on="1"/>
        <pt x="1258" y="1039" on="0"/>
        <pt x="1072" y="760" on="1"/>
        <pt x="1149" y="757" on="0"/>
        <pt x="1283" y="740" on="0"/>
        <pt x="1283" y="696" on="1"/>
        <pt x="1283" y="678" on="0"/>
        <pt x="1226" y="627" on="1"/>
        <pt x="1220" y="620" on="0"/>
        <pt x="1211" y="606" on="1"/>
        <pt x="1195" y="582" on="0"/>
        <pt x="1164" y="582" on="0"/>
        <pt x="1144" y="586" on="1"/>
        <pt x="1066" y="589" on="0"/>
        <pt x="1027" y="589" on="1"/>
        <pt x="962" y="588" on="1"/>
        <pt x="610" y="40" on="0"/>
        <pt x="587" y="-3" on="0"/>
        <pt x="560" y="-25" on="0"/>
        <pt x="520" y="-25" on="0"/>
        <pt x="448" y="-12" on="0"/>
        <pt x="412" y="7" on="0"/>
        <pt x="412" y="36" on="0"/>
        <pt x="421" y="63" on="1"/>
        <pt x="445" y="130" on="0"/>
        <pt x="757" y="580" on="1"/>
        <pt x="554" y="570" on="0"/>
        <pt x="435" y="559" on="1"/>
      </contour>
      <contour>
        <pt x="1658" y="1450" on="1"/>
        <pt x="1642" y="1445" on="0"/>
        <pt x="1619" y="1434" on="1"/>
      </contour>
    </TTGlyph>
    <TTGlyph name="G" xMin="110" yMin="-527" xMax="1705" yMax="1450">
      <contour>
        <pt x="1705" y="1243" on="1"/>
        <pt x="1705" y="1192" on="0"/>
        <pt x="1575" y="1048" on="0"/>
        <pt x="1384" y="918" on="0"/>
        <pt x="1290" y="880" on="1"/>
        <pt x="1311" y="887" on="0"/>
        <pt x="1333" y="887" on="1"/>
        <pt x="1407" y="887" on="0"/>
        <pt x="1431" y="860" on="1"/>
        <pt x="1437" y="854" on="0"/>
        <pt x="1437" y="838" on="0"/>
        <pt x="1410" y="807" on="1"/>
        <pt x="1129" y="482" on="0"/>
        <pt x="894" y="162" on="1"/>
        <pt x="990" y="237" on="0"/>
        <pt x="1064" y="305" on="1"/>
        <pt x="1105" y="342" on="0"/>
        <pt x="1164" y="342" on="1"/>
        <pt x="1207" y="342" on="0"/>
        <pt x="1227" y="320" on="0"/>
        <pt x="1227" y="305" on="0"/>
        <pt x="1214" y="295" on="1"/>
        <pt x="1047" y="149" on="0"/>
        <pt x="669" y="-131" on="1"/>
        <pt x="604" y="-204" on="0"/>
        <pt x="341" y="-479" on="1"/>
        <pt x="294" y="-527" on="0"/>
        <pt x="237" y="-527" on="1"/>
        <pt x="126" y="-527" on="0"/>
        <pt x="126" y="-465" on="1"/>
        <pt x="126" y="-438" on="0"/>
        <pt x="169" y="-379" on="1"/>
        <pt x="231" y="-288" on="0"/>
        <pt x="472" y="-104" on="1"/>
        <pt x="525" y="-45" on="0"/>
        <pt x="655" y="96" on="1"/>
        <pt x="901" y="364" on="0"/>
        <pt x="952" y="440" on="1"/>
        <pt x="816" y="311" on="0"/>
        <pt x="676" y="205" on="0"/>
        <pt x="557" y="127" on="0"/>
        <pt x="507" y="103" on="1"/>
        <pt x="265" y="-13" on="0"/>
        <pt x="162" y="102" on="1"/>
        <pt x="110" y="159" on="0"/>
        <pt x="110" y="380" on="0"/>
        <pt x="232" y="646" on="0"/>
        <pt x="436" y="905" on="0"/>
        <pt x="716" y="1151" on="0"/>
        <pt x="1018" y="1337" on="0"/>
        <pt x="1352" y="1450" on="0"/>
        <pt x="1500" y="1450" on="1"/>
        <pt x="1551" y="1450" on="0"/>
        <pt x="1641" y="1416" on="0"/>
        <pt x="1660" y="1397" on="1"/>
        <pt x="1705" y="1352" on="0"/>
      </contour>
      <contour>
        <pt x="1127" y="1034" on="1"/>
        <pt x="1122" y="1014" on="1"/>
        <pt x="1122" y="997" on="0"/>
        <pt x="1145" y="997" on="1"/>
        <pt x="1206" y="997" on="0"/>
        <pt x="1418" y="1115" on="0"/>
        <pt x="1548" y="1239" on="0"/>
        <pt x="1548" y="1280" on="1"/>
        <pt x="1548" y="1315" on="0"/>
        <pt x="1486" y="1315" on="1"/>
        <pt x="1376" y="1315" on="0"/>
        <pt x="1101" y="1207" on="0"/>
        <pt x="839" y="1035" on="0"/>
        <pt x="585" y="812" on="0"/>
        <pt x="396" y="589" on="0"/>
        <pt x="280" y="375" on="0"/>
        <pt x="280" y="299" on="1"/>
        <pt x="280" y="269" on="0"/>
        <pt x="315" y="223" on="0"/>
        <pt x="349" y="223" on="1"/>
        <pt x="454" y="223" on="0"/>
        <pt x="921" y="545" on="0"/>
        <pt x="1224" y="823" on="1"/>
        <pt x="1228" y="827" on="0"/>
        <pt x="1238" y="838" on="1"/>
        <pt x="1260" y="865" on="0"/>
        <pt x="1283" y="877" on="1"/>
        <pt x="1201" y="844" on="0"/>
        <pt x="1097" y="844" on="0"/>
        <pt x="1029" y="890" on="0"/>
        <pt x="1029" y="969" on="0"/>
        <pt x="1099" y="1039" on="0"/>
        <pt x="1127" y="1039" on="0"/>
      </contour>
    </TTGlyph>
    <TTGlyph name="Gbreve" xMin="110" yMin="-527" xMax="1808" yMax="1918">
      <component glyphName="G" x="0" y="0" flags="0x1004"/>
      <component glyphName="breve" x="703" y="659" flags="0x1004"/>
    </TTGlyph>
    <TTGlyph name="Gcircumflex" xMin="110" yMin="-527" xMax="1780" yMax="1954">
      <component glyphName="G" x="0" y="0" flags="0x1004"/>
      <component glyphName="circumflex" x="766" y="659" flags="0x1004"/>
    </TTGlyph>
    <TTGlyph name="Gcommaaccent" xMin="-79" yMin="-527" xMax="1705" yMax="1450">
      <contour>
        <pt x="1705" y="1243" on="1"/>
        <pt x="1705" y="1192" on="0"/>
        <pt x="1575" y="1048" on="0"/>
        <pt x="1384" y="918" on="0"/>
        <pt x="1290" y="880" on="1"/>
        <pt x="1311" y="887" on="0"/>
        <pt x="1333" y="887" on="1"/>
        <pt x="1407" y="887" on="0"/>
        <pt x="1431" y="860" on="1"/>
        <pt x="1437" y="854" on="0"/>
        <pt x="1437" y="838" on="0"/>
        <pt x="1410" y="807" on="1"/>
        <pt x="1129" y="482" on="0"/>
        <pt x="894" y="162" on="1"/>
        <pt x="990" y="237" on="0"/>
        <pt x="1064" y="305" on="1"/>
        <pt x="1105" y="342" on="0"/>
        <pt x="1164" y="342" on="1"/>
        <pt x="1207" y="342" on="0"/>
        <pt x="1227" y="320" on="0"/>
        <pt x="1227" y="305" on="0"/>
        <pt x="1214" y="295" on="1"/>
        <pt x="1047" y="149" on="0"/>
        <pt x="669" y="-131" on="1"/>
        <pt x="604" y="-204" on="0"/>
        <pt x="341" y="-479" on="1"/>
        <pt x="294" y="-527" on="0"/>
        <pt x="237" y="-527" on="1"/>
        <pt x="126" y="-527" on="0"/>
        <pt x="126" y="-465" on="1"/>
        <pt x="126" y="-438" on="0"/>
        <pt x="169" y="-379" on="1"/>
        <pt x="231" y="-288" on="0"/>
        <pt x="472" y="-104" on="1"/>
        <pt x="525" y="-45" on="0"/>
        <pt x="655" y="96" on="1"/>
        <pt x="901" y="364" on="0"/>
        <pt x="952" y="440" on="1"/>
        <pt x="816" y="311" on="0"/>
        <pt x="676" y="205" on="0"/>
        <pt x="557" y="127" on="0"/>
        <pt x="507" y="103" on="1"/>
        <pt x="265" y="-13" on="0"/>
        <pt x="162" y="102" on="1"/>
        <pt x="110" y="159" on="0"/>
        <pt x="110" y="380" on="0"/>
        <pt x="232" y="646" on="0"/>
        <pt x="436" y="905" on="0"/>
        <pt x="716" y="1151" on="0"/>
        <pt x="1018" y="1337" on="0"/>
        <pt x="1352" y="1450" on="0"/>
        <pt x="1500" y="1450" on="1"/>
        <pt x="1551" y="1450" on="0"/>
        <pt x="1641" y="1416" on="0"/>
        <pt x="1660" y="1397" on="1"/>
        <pt x="1705" y="1352" on="0"/>
      </contour>
      <contour>
        <pt x="1127" y="1034" on="1"/>
        <pt x="1122" y="1014" on="1"/>
        <pt x="1122" y="997" on="0"/>
        <pt x="1145" y="997" on="1"/>
        <pt x="1206" y="997" on="0"/>
        <pt x="1418" y="1115" on="0"/>
        <pt x="1548" y="1239" on="0"/>
        <pt x="1548" y="1280" on="1"/>
        <pt x="1548" y="1315" on="0"/>
        <pt x="1486" y="1315" on="1"/>
        <pt x="1376" y="1315" on="0"/>
        <pt x="1101" y="1207" on="0"/>
        <pt x="839" y="1035" on="0"/>
        <pt x="585" y="812" on="0"/>
        <pt x="396" y="589" on="0"/>
        <pt x="280" y="375" on="0"/>
        <pt x="280" y="299" on="1"/>
        <pt x="280" y="269" on="0"/>
        <pt x="315" y="223" on="0"/>
        <pt x="349" y="223" on="1"/>
        <pt x="454" y="223" on="0"/>
        <pt x="921" y="545" on="0"/>
        <pt x="1224" y="823" on="1"/>
        <pt x="1228" y="827" on="0"/>
        <pt x="1238" y="838" on="1"/>
        <pt x="1260" y="865" on="0"/>
        <pt x="1283" y="877" on="1"/>
        <pt x="1201" y="844" on="0"/>
        <pt x="1097" y="844" on="0"/>
        <pt x="1029" y="890" on="0"/>
        <pt x="1029" y="969" on="0"/>
        <pt x="1099" y="1039" on="0"/>
        <pt x="1127" y="1039" on="0"/>
      </contour>
      <contour>
        <pt x="224" y="-130" on="1"/>
        <pt x="224" y="-205" on="0"/>
        <pt x="49" y="-373" on="0"/>
        <pt x="-21" y="-373" on="1"/>
        <pt x="-40" y="-373" on="0"/>
        <pt x="-65" y="-349" on="0"/>
        <pt x="-79" y="-345" on="0"/>
        <pt x="-79" y="-314" on="0"/>
        <pt x="-69" y="-306" on="0"/>
        <pt x="-33" y="-293" on="0"/>
        <pt x="-16" y="-285" on="1"/>
        <pt x="33" y="-263" on="0"/>
        <pt x="33" y="-232" on="1"/>
        <pt x="33" y="-221" on="0"/>
        <pt x="-10" y="-173" on="0"/>
        <pt x="-10" y="-149" on="1"/>
        <pt x="-10" y="-97" on="0"/>
        <pt x="72" y="-32" on="0"/>
        <pt x="175" y="-32" on="0"/>
        <pt x="224" y="-90" on="0"/>
      </contour>
    </TTGlyph>
    <TTGlyph name="Gdotaccent" xMin="110" yMin="-527" xMax="1705" yMax="1846">
      <component glyphName="G" x="0" y="0" flags="0x1004"/>
      <component glyphName="dotaccent" x="753" y="659" flags="0x1004"/>
    </TTGlyph>
    <TTGlyph name="H" xMin="174" yMin="-16" xMax="2006" yMax="1476">
      <contour>
        <pt x="1951" y="1427" on="1"/>
        <pt x="1964" y="1427" on="1"/>
        <pt x="1970" y="1427" on="0"/>
        <pt x="1973" y="1425" on="0"/>
        <pt x="1978" y="1424" on="0"/>
        <pt x="1980" y="1422" on="1"/>
        <pt x="1985" y="1418" on="0"/>
        <pt x="1994" y="1413" on="1"/>
        <pt x="2006" y="1404" on="0"/>
        <pt x="2006" y="1380" on="0"/>
        <pt x="1959" y="1305" on="0"/>
        <pt x="1862" y="1156" on="1"/>
        <pt x="1638" y="813" on="0"/>
        <pt x="1461" y="520" on="1"/>
        <pt x="1155" y="11" on="0"/>
        <pt x="1149" y="5" on="0"/>
        <pt x="1148" y="2" on="1"/>
        <pt x="1147" y="-4" on="0"/>
        <pt x="1140" y="-4" on="1"/>
        <pt x="1126" y="-1" on="1"/>
        <pt x="1099" y="-8" on="1"/>
        <pt x="1083" y="-5" on="1"/>
        <pt x="1066" y="-8" on="1"/>
        <pt x="1060" y="-8" on="1"/>
        <pt x="1004" y="-16" on="1"/>
        <pt x="954" y="-16" on="0"/>
        <pt x="954" y="18" on="1"/>
        <pt x="954" y="32" on="0"/>
        <pt x="963" y="53" on="1"/>
        <pt x="994" y="126" on="0"/>
        <pt x="1275" y="584" on="1"/>
        <pt x="1090" y="579" on="0"/>
        <pt x="910" y="579" on="1"/>
        <pt x="695" y="580" on="1"/>
        <pt x="642" y="495" on="0"/>
        <pt x="550" y="339" on="1"/>
        <pt x="351" y="-1" on="0"/>
        <pt x="325" y="-8" on="0"/>
        <pt x="309" y="-8" on="0"/>
        <pt x="295" y="11" on="0"/>
        <pt x="290" y="11" on="0"/>
        <pt x="274" y="3" on="0"/>
        <pt x="259" y="3" on="1"/>
        <pt x="236" y="4" on="1"/>
        <pt x="227" y="10" on="1"/>
        <pt x="226" y="10" on="0"/>
        <pt x="223" y="4" on="0"/>
        <pt x="217" y="4" on="1"/>
        <pt x="174" y="4" on="0"/>
        <pt x="174" y="40" on="1"/>
        <pt x="174" y="64" on="0"/>
        <pt x="208" y="142" on="0"/>
        <pt x="263" y="234" on="0"/>
        <pt x="492" y="577" on="0"/>
        <pt x="492" y="578" on="1"/>
        <pt x="473" y="579" on="0"/>
        <pt x="448" y="580" on="1"/>
        <pt x="397" y="580" on="0"/>
        <pt x="376" y="584" on="1"/>
        <pt x="319" y="594" on="0"/>
        <pt x="298" y="678" on="1"/>
        <pt x="287" y="719" on="0"/>
        <pt x="288" y="732" on="1"/>
        <pt x="288" y="759" on="0"/>
        <pt x="311" y="759" on="1"/>
        <pt x="337" y="752" on="1"/>
        <pt x="357" y="751" on="0"/>
        <pt x="509" y="743" on="0"/>
        <pt x="542" y="743" on="1"/>
        <pt x="599" y="745" on="1"/>
        <pt x="729" y="949" on="0"/>
        <pt x="910" y="1206" on="1"/>
        <pt x="778" y="1098" on="0"/>
        <pt x="617" y="1098" on="1"/>
        <pt x="541" y="1098" on="0"/>
        <pt x="431" y="1171" on="0"/>
        <pt x="431" y="1283" on="0"/>
        <pt x="515" y="1348" on="0"/>
        <pt x="591" y="1348" on="0"/>
        <pt x="591" y="1336" on="1"/>
        <pt x="591" y="1332" on="0"/>
        <pt x="570" y="1322" on="0"/>
        <pt x="570" y="1317" on="1"/>
        <pt x="570" y="1301" on="0"/>
        <pt x="640" y="1276" on="0"/>
        <pt x="727" y="1276" on="0"/>
        <pt x="855" y="1327" on="0"/>
        <pt x="924" y="1367" on="1"/>
        <pt x="1020" y="1423" on="0"/>
        <pt x="1076" y="1460" on="1"/>
        <pt x="1108" y="1476" on="0"/>
        <pt x="1164" y="1476" on="0"/>
        <pt x="1189" y="1463" on="0"/>
        <pt x="1201" y="1450" on="0"/>
        <pt x="1215" y="1429" on="0"/>
        <pt x="1228" y="1418" on="0"/>
        <pt x="1228" y="1404" on="0"/>
        <pt x="1213" y="1374" on="0"/>
        <pt x="1075" y="1161" on="0"/>
        <pt x="858" y="830" on="0"/>
        <pt x="808" y="752" on="1"/>
        <pt x="1075" y="752" on="0"/>
        <pt x="1385" y="762" on="1"/>
        <pt x="1762" y="1357" on="0"/>
        <pt x="1804" y="1415" on="0"/>
        <pt x="1838" y="1433" on="0"/>
        <pt x="1863" y="1433" on="1"/>
      </contour>
    </TTGlyph>
    <TTGlyph name="Hbar" xMin="174" yMin="-16" xMax="2021" yMax="1476">
      <contour>
        <pt x="655" y="836" on="1"/>
        <pt x="483" y="834" on="0"/>
        <pt x="463" y="831" on="1"/>
        <pt x="445" y="831" on="0"/>
        <pt x="445" y="871" on="1"/>
        <pt x="445" y="1007" on="0"/>
        <pt x="586" y="1007" on="0"/>
        <pt x="769" y="1004" on="1"/>
        <pt x="836" y="1102" on="0"/>
        <pt x="910" y="1206" on="1"/>
        <pt x="778" y="1098" on="0"/>
        <pt x="617" y="1098" on="1"/>
        <pt x="541" y="1098" on="0"/>
        <pt x="431" y="1171" on="0"/>
        <pt x="431" y="1283" on="0"/>
        <pt x="515" y="1348" on="0"/>
        <pt x="591" y="1348" on="0"/>
        <pt x="591" y="1336" on="1"/>
        <pt x="591" y="1332" on="0"/>
        <pt x="570" y="1322" on="0"/>
        <pt x="570" y="1317" on="1"/>
        <pt x="570" y="1301" on="0"/>
        <pt x="640" y="1276" on="0"/>
        <pt x="727" y="1276" on="0"/>
        <pt x="855" y="1327" on="0"/>
        <pt x="924" y="1367" on="1"/>
        <pt x="1020" y="1423" on="0"/>
        <pt x="1076" y="1460" on="1"/>
        <pt x="1108" y="1476" on="0"/>
        <pt x="1164" y="1476" on="0"/>
        <pt x="1189" y="1463" on="0"/>
        <pt x="1201" y="1450" on="0"/>
        <pt x="1215" y="1429" on="0"/>
        <pt x="1228" y="1418" on="0"/>
        <pt x="1228" y="1404" on="0"/>
        <pt x="1209" y="1366" on="0"/>
        <pt x="967" y="1001" on="1"/>
        <pt x="1245" y="997" on="0"/>
        <pt x="1372" y="997" on="0"/>
        <pt x="1533" y="1001" on="1"/>
        <pt x="1759" y="1352" on="0"/>
        <pt x="1804" y="1415" on="0"/>
        <pt x="1838" y="1433" on="0"/>
        <pt x="1863" y="1433" on="1"/>
        <pt x="1951" y="1427" on="1"/>
        <pt x="1964" y="1427" on="1"/>
        <pt x="1970" y="1427" on="0"/>
        <pt x="1973" y="1425" on="0"/>
        <pt x="1978" y="1424" on="0"/>
        <pt x="1980" y="1422" on="1"/>
        <pt x="1985" y="1418" on="0"/>
        <pt x="1994" y="1413" on="1"/>
        <pt x="2006" y="1404" on="0"/>
        <pt x="2006" y="1380" on="0"/>
        <pt x="1985" y="1346" on="1"/>
        <pt x="1791" y="1048" on="0"/>
        <pt x="1765" y="1007" on="1"/>
        <pt x="1947" y="1014" on="0"/>
        <pt x="1986" y="1025" on="0"/>
        <pt x="1999" y="1025" on="1"/>
        <pt x="2021" y="1025" on="0"/>
        <pt x="2021" y="972" on="1"/>
        <pt x="2021" y="837" on="0"/>
        <pt x="1698" y="837" on="1"/>
        <pt x="1656" y="837" on="1"/>
        <pt x="1527" y="630" on="0"/>
        <pt x="1406" y="428" on="1"/>
        <pt x="1155" y="11" on="0"/>
        <pt x="1149" y="5" on="0"/>
        <pt x="1148" y="2" on="1"/>
        <pt x="1147" y="-4" on="0"/>
        <pt x="1140" y="-4" on="1"/>
        <pt x="1126" y="-1" on="1"/>
        <pt x="1099" y="-8" on="1"/>
        <pt x="1083" y="-5" on="1"/>
        <pt x="1066" y="-8" on="1"/>
        <pt x="1060" y="-8" on="1"/>
        <pt x="1004" y="-16" on="1"/>
        <pt x="954" y="-16" on="0"/>
        <pt x="954" y="18" on="1"/>
        <pt x="954" y="69" on="0"/>
        <pt x="1252" y="555" on="1"/>
        <pt x="1067" y="550" on="0"/>
        <pt x="887" y="550" on="1"/>
        <pt x="672" y="551" on="1"/>
        <pt x="617" y="463" on="0"/>
        <pt x="532" y="316" on="1"/>
        <pt x="349" y="-2" on="0"/>
        <pt x="337" y="-6" on="1"/>
        <pt x="325" y="-8" on="0"/>
        <pt x="309" y="-8" on="0"/>
        <pt x="295" y="11" on="0"/>
        <pt x="290" y="11" on="0"/>
        <pt x="274" y="3" on="0"/>
        <pt x="259" y="3" on="1"/>
        <pt x="236" y="4" on="1"/>
        <pt x="227" y="10" on="1"/>
        <pt x="226" y="10" on="0"/>
        <pt x="223" y="4" on="0"/>
        <pt x="217" y="4" on="1"/>
        <pt x="174" y="4" on="0"/>
        <pt x="174" y="40" on="1"/>
        <pt x="174" y="64" on="0"/>
        <pt x="208" y="142" on="0"/>
        <pt x="252" y="215" on="0"/>
        <pt x="333" y="342" on="0"/>
        <pt x="453" y="524" on="0"/>
        <pt x="469" y="549" on="1"/>
        <pt x="457" y="549" on="0"/>
        <pt x="439" y="554" on="0"/>
        <pt x="426" y="557" on="0"/>
        <pt x="415" y="570" on="0"/>
        <pt x="409" y="577" on="0"/>
        <pt x="402" y="600" on="0"/>
        <pt x="399" y="610" on="0"/>
        <pt x="391" y="643" on="0"/>
        <pt x="378" y="692" on="0"/>
        <pt x="379" y="705" on="1"/>
        <pt x="379" y="732" on="0"/>
        <pt x="402" y="732" on="1"/>
        <pt x="411" y="732" on="0"/>
        <pt x="484" y="714" on="0"/>
        <pt x="519" y="714" on="1"/>
        <pt x="576" y="716" on="1"/>
        <pt x="645" y="822" on="0"/>
      </contour>
      <contour>
        <pt x="1362" y="733" on="1"/>
        <pt x="1392" y="781" on="0"/>
        <pt x="1428" y="837" on="1"/>
        <pt x="859" y="837" on="1"/>
        <pt x="807" y="757" on="0"/>
        <pt x="785" y="723" on="1"/>
        <pt x="1052" y="723" on="0"/>
      </contour>
    </TTGlyph>
    <TTGlyph name="Hcircumflex" xMin="174" yMin="-16" xMax="2006" yMax="1937">
      <component glyphName="H" x="0" y="0" flags="0x1004"/>
      <component glyphName="circumflex" x="853" y="642" flags="0x1004"/>
    </TTGlyph>
    <TTGlyph name="I" xMin="-22" yMin="-30" xMax="1094" yMax="1453">
      <contour>
        <pt x="1021" y="1450" on="1"/>
        <pt x="1068" y="1452" on="1"/>
        <pt x="1094" y="1452" on="0"/>
        <pt x="1094" y="1432" on="1"/>
        <pt x="1094" y="1426" on="0"/>
        <pt x="1092" y="1423" on="1"/>
        <pt x="614" y="720" on="0"/>
        <pt x="199" y="45" on="1"/>
        <pt x="177" y="9" on="0"/>
        <pt x="160" y="4" on="1"/>
        <pt x="159" y="4" on="0"/>
        <pt x="150" y="0" on="1"/>
        <pt x="100" y="-19" on="0"/>
        <pt x="60" y="-19" on="0"/>
        <pt x="58" y="-20" on="1"/>
        <pt x="49" y="-30" on="0"/>
        <pt x="24" y="-30" on="0"/>
        <pt x="16" y="-29" on="0"/>
        <pt x="-22" y="-14" on="0"/>
        <pt x="-22" y="-10" on="1"/>
        <pt x="-22" y="39" on="0"/>
        <pt x="-18" y="49" on="1"/>
        <pt x="3" y="120" on="0"/>
        <pt x="423" y="779" on="0"/>
        <pt x="858" y="1406" on="0"/>
        <pt x="904" y="1442" on="1"/>
        <pt x="918" y="1453" on="0"/>
        <pt x="941" y="1453" on="1"/>
      </contour>
    </TTGlyph>
    <TTGlyph name="IJ" xMin="-22" yMin="-602" xMax="2370" yMax="1464">
      <contour>
        <pt x="1021" y="1450" on="1"/>
        <pt x="1068" y="1452" on="1"/>
        <pt x="1094" y="1452" on="0"/>
        <pt x="1094" y="1432" on="1"/>
        <pt x="1094" y="1426" on="0"/>
        <pt x="1092" y="1423" on="1"/>
        <pt x="614" y="720" on="0"/>
        <pt x="199" y="45" on="1"/>
        <pt x="177" y="9" on="0"/>
        <pt x="160" y="4" on="1"/>
        <pt x="159" y="4" on="0"/>
        <pt x="150" y="0" on="1"/>
        <pt x="100" y="-19" on="0"/>
        <pt x="60" y="-19" on="0"/>
        <pt x="58" y="-20" on="1"/>
        <pt x="49" y="-30" on="0"/>
        <pt x="24" y="-30" on="0"/>
        <pt x="16" y="-29" on="0"/>
        <pt x="-22" y="-14" on="0"/>
        <pt x="-22" y="-10" on="1"/>
        <pt x="-22" y="39" on="0"/>
        <pt x="-18" y="49" on="1"/>
        <pt x="3" y="120" on="0"/>
        <pt x="423" y="779" on="0"/>
        <pt x="858" y="1406" on="0"/>
        <pt x="904" y="1442" on="1"/>
        <pt x="918" y="1453" on="0"/>
        <pt x="941" y="1453" on="1"/>
      </contour>
      <contour>
        <pt x="1633" y="328" on="1"/>
        <pt x="1670" y="346" on="0"/>
        <pt x="1803" y="399" on="0"/>
        <pt x="1821" y="399" on="1"/>
        <pt x="1834" y="399" on="0"/>
        <pt x="1834" y="371" on="0"/>
        <pt x="1820" y="341" on="0"/>
        <pt x="1805" y="319" on="0"/>
        <pt x="1793" y="303" on="1"/>
        <pt x="1778" y="283" on="1"/>
        <pt x="1730" y="215" on="0"/>
        <pt x="1640" y="170" on="1"/>
        <pt x="1609" y="154" on="0"/>
        <pt x="1492" y="102" on="0"/>
        <pt x="1469" y="90" on="1"/>
        <pt x="1416" y="10" on="1"/>
        <pt x="1247" y="-240" on="0"/>
        <pt x="1020" y="-490" on="0"/>
        <pt x="827" y="-602" on="0"/>
        <pt x="699" y="-602" on="1"/>
        <pt x="637" y="-602" on="0"/>
        <pt x="574" y="-495" on="0"/>
        <pt x="574" y="-362" on="0"/>
        <pt x="657" y="-220" on="0"/>
        <pt x="803" y="-91" on="0"/>
        <pt x="963" y="24" on="0"/>
        <pt x="1060" y="78" on="1"/>
        <pt x="1217" y="163" on="0"/>
        <pt x="1365" y="231" on="1"/>
        <pt x="1729" y="767" on="0"/>
        <pt x="2104" y="1270" on="1"/>
        <pt x="2112" y="1278" on="0"/>
        <pt x="2112" y="1286" on="0"/>
        <pt x="2052" y="1286" on="0"/>
        <pt x="1948" y="1266" on="1"/>
        <pt x="1721" y="1220" on="0"/>
        <pt x="1273" y="979" on="0"/>
        <pt x="953" y="668" on="0"/>
        <pt x="953" y="571" on="1"/>
        <pt x="953" y="522" on="0"/>
        <pt x="1037" y="459" on="0"/>
        <pt x="1134" y="459" on="0"/>
        <pt x="1237" y="508" on="0"/>
        <pt x="1305" y="557" on="0"/>
        <pt x="1315" y="557" on="0"/>
        <pt x="1315" y="543" on="1"/>
        <pt x="1315" y="470" on="0"/>
        <pt x="1238" y="365" on="0"/>
        <pt x="1102" y="313" on="0"/>
        <pt x="977" y="313" on="0"/>
        <pt x="847" y="365" on="0"/>
        <pt x="756" y="475" on="0"/>
        <pt x="756" y="545" on="1"/>
        <pt x="756" y="575" on="0"/>
        <pt x="769" y="616" on="1"/>
        <pt x="868" y="938" on="0"/>
        <pt x="1416" y="1237" on="1"/>
        <pt x="1604" y="1339" on="0"/>
        <pt x="2069" y="1464" on="0"/>
        <pt x="2276" y="1464" on="1"/>
        <pt x="2314" y="1464" on="0"/>
        <pt x="2370" y="1416" on="0"/>
        <pt x="2370" y="1362" on="0"/>
        <pt x="2362" y="1340" on="0"/>
        <pt x="2298" y="1248" on="0"/>
        <pt x="2265" y="1205" on="1"/>
        <pt x="2174" y="1087" on="0"/>
        <pt x="2046" y="917" on="0"/>
      </contour>
      <contour>
        <pt x="1209" y="-6" on="1"/>
        <pt x="717" y="-311" on="0"/>
        <pt x="717" y="-414" on="1"/>
        <pt x="717" y="-436" on="0"/>
        <pt x="786" y="-436" on="0"/>
        <pt x="898" y="-366" on="0"/>
        <pt x="997" y="-272" on="0"/>
        <pt x="1053" y="-206" on="1"/>
        <pt x="1134" y="-110" on="0"/>
      </contour>
    </TTGlyph>
    <TTGlyph name="Iacute" xMin="-22" yMin="-30" xMax="1455" yMax="1952">
      <component glyphName="I" x="0" y="0" flags="0x1004"/>
      <component glyphName="acute" x="463" y="662" flags="0x1004"/>
    </TTGlyph>
    <TTGlyph name="Ibreve" xMin="-22" yMin="-30" xMax="1427" yMax="1921">
      <component glyphName="I" x="0" y="0" flags="0x1004"/>
      <component glyphName="breve" x="322" y="662" flags="0x1004"/>
    </TTGlyph>
    <TTGlyph name="Icircumflex" xMin="-22" yMin="-30" xMax="1399" yMax="1957">
      <component glyphName="I" x="0" y="0" flags="0x1004"/>
      <component glyphName="circumflex" x="385" y="662" flags="0x1004"/>
    </TTGlyph>
    <TTGlyph name="Idieresis" xMin="-22" yMin="-30" xMax="1396" yMax="1833">
      <component glyphName="I" x="0" y="0" flags="0x1004"/>
      <component glyphName="dieresis" x="347" y="662" flags="0x1004"/>
    </TTGlyph>
    <TTGlyph name="Idotaccent" xMin="-22" yMin="-30" xMax="1247" yMax="1849">
      <component glyphName="I" x="0" y="0" flags="0x1004"/>
      <component glyphName="dotaccent" x="372" y="662" flags="0x1004"/>
    </TTGlyph>
    <TTGlyph name="Igrave" xMin="-22" yMin="-30" xMax="1095" yMax="1956">
      <component glyphName="I" x="0" y="0" flags="0x1004"/>
      <component glyphName="grave" x="278" y="662" flags="0x1004"/>
    </TTGlyph>
    <TTGlyph name="Imacron" xMin="-22" yMin="-30" xMax="1430" yMax="1819">
      <component glyphName="I" x="0" y="0" flags="0x1004"/>
      <component glyphName="macron" x="391" y="662" flags="0x1004"/>
    </TTGlyph>
    <TTGlyph name="Iogonek" xMin="-132" yMin="-397" xMax="1094" yMax="1453">
      <contour>
        <pt x="1021" y="1450" on="1"/>
        <pt x="1068" y="1452" on="1"/>
        <pt x="1094" y="1452" on="0"/>
        <pt x="1094" y="1432" on="1"/>
        <pt x="1094" y="1426" on="0"/>
        <pt x="1092" y="1423" on="1"/>
        <pt x="614" y="720" on="0"/>
        <pt x="199" y="45" on="1"/>
        <pt x="177" y="9" on="0"/>
        <pt x="160" y="4" on="1"/>
        <pt x="159" y="4" on="0"/>
        <pt x="151" y="1" on="0"/>
        <pt x="134" y="-4" on="0"/>
        <pt x="125" y="-7" on="1"/>
        <pt x="118" y="-16" on="0"/>
        <pt x="59" y="-90" on="0"/>
        <pt x="42" y="-113" on="1"/>
        <pt x="-9" y="-179" on="0"/>
        <pt x="-9" y="-233" on="0"/>
        <pt x="3" y="-242" on="1"/>
        <pt x="55" y="-242" on="0"/>
        <pt x="227" y="-172" on="0"/>
        <pt x="247" y="-172" on="1"/>
        <pt x="261" y="-172" on="0"/>
        <pt x="261" y="-238" on="0"/>
        <pt x="255" y="-258" on="1"/>
        <pt x="222" y="-320" on="0"/>
        <pt x="74" y="-397" on="0"/>
        <pt x="-22" y="-397" on="1"/>
        <pt x="-60" y="-397" on="0"/>
        <pt x="-132" y="-308" on="0"/>
        <pt x="-132" y="-217" on="0"/>
        <pt x="-53" y="-72" on="0"/>
        <pt x="-5" y="-21" on="1"/>
        <pt x="-22" y="-13" on="0"/>
        <pt x="-22" y="-10" on="1"/>
        <pt x="-22" y="39" on="0"/>
        <pt x="-18" y="49" on="1"/>
        <pt x="3" y="120" on="0"/>
        <pt x="423" y="779" on="0"/>
        <pt x="858" y="1406" on="0"/>
        <pt x="904" y="1442" on="1"/>
        <pt x="918" y="1453" on="0"/>
        <pt x="941" y="1453" on="1"/>
      </contour>
    </TTGlyph>
    <TTGlyph name="Itilde" xMin="-22" yMin="-30" xMax="1483" yMax="1850">
      <component glyphName="I" x="0" y="0" flags="0x1004"/>
      <component glyphName="tilde" x="334" y="662" flags="0x1004"/>
    </TTGlyph>
    <TTGlyph name="J" xMin="0" yMin="-602" xMax="1796" yMax="1464">
      <contour>
        <pt x="1059" y="328" on="1"/>
        <pt x="1096" y="346" on="0"/>
        <pt x="1229" y="399" on="0"/>
        <pt x="1247" y="399" on="1"/>
        <pt x="1260" y="399" on="0"/>
        <pt x="1260" y="371" on="0"/>
        <pt x="1246" y="341" on="0"/>
        <pt x="1231" y="319" on="0"/>
        <pt x="1219" y="303" on="1"/>
        <pt x="1204" y="283" on="1"/>
        <pt x="1156" y="215" on="0"/>
        <pt x="1066" y="170" on="1"/>
        <pt x="1035" y="154" on="0"/>
        <pt x="918" y="102" on="0"/>
        <pt x="895" y="90" on="1"/>
        <pt x="842" y="10" on="1"/>
        <pt x="673" y="-240" on="0"/>
        <pt x="446" y="-490" on="0"/>
        <pt x="253" y="-602" on="0"/>
        <pt x="125" y="-602" on="1"/>
        <pt x="63" y="-602" on="0"/>
        <pt x="0" y="-495" on="0"/>
        <pt x="0" y="-362" on="0"/>
        <pt x="83" y="-220" on="0"/>
        <pt x="229" y="-91" on="0"/>
        <pt x="389" y="24" on="0"/>
        <pt x="486" y="78" on="1"/>
        <pt x="643" y="163" on="0"/>
        <pt x="791" y="231" on="1"/>
        <pt x="1155" y="767" on="0"/>
        <pt x="1530" y="1270" on="1"/>
        <pt x="1538" y="1278" on="0"/>
        <pt x="1538" y="1286" on="0"/>
        <pt x="1478" y="1286" on="0"/>
        <pt x="1374" y="1266" on="1"/>
        <pt x="1147" y="1220" on="0"/>
        <pt x="699" y="979" on="0"/>
        <pt x="379" y="668" on="0"/>
        <pt x="379" y="571" on="1"/>
        <pt x="379" y="522" on="0"/>
        <pt x="463" y="459" on="0"/>
        <pt x="560" y="459" on="0"/>
        <pt x="663" y="508" on="0"/>
        <pt x="731" y="557" on="0"/>
        <pt x="741" y="557" on="0"/>
        <pt x="741" y="543" on="1"/>
        <pt x="741" y="470" on="0"/>
        <pt x="664" y="365" on="0"/>
        <pt x="528" y="313" on="0"/>
        <pt x="403" y="313" on="0"/>
        <pt x="273" y="365" on="0"/>
        <pt x="182" y="475" on="0"/>
        <pt x="182" y="545" on="1"/>
        <pt x="182" y="575" on="0"/>
        <pt x="195" y="616" on="1"/>
        <pt x="294" y="938" on="0"/>
        <pt x="842" y="1237" on="1"/>
        <pt x="1030" y="1339" on="0"/>
        <pt x="1495" y="1464" on="0"/>
        <pt x="1702" y="1464" on="1"/>
        <pt x="1740" y="1464" on="0"/>
        <pt x="1796" y="1416" on="0"/>
        <pt x="1796" y="1362" on="0"/>
        <pt x="1788" y="1340" on="0"/>
        <pt x="1724" y="1248" on="0"/>
        <pt x="1691" y="1205" on="1"/>
        <pt x="1600" y="1087" on="0"/>
        <pt x="1472" y="917" on="0"/>
      </contour>
      <contour>
        <pt x="635" y="-6" on="1"/>
        <pt x="143" y="-311" on="0"/>
        <pt x="143" y="-414" on="1"/>
        <pt x="143" y="-436" on="0"/>
        <pt x="212" y="-436" on="0"/>
        <pt x="324" y="-366" on="0"/>
        <pt x="423" y="-272" on="0"/>
        <pt x="479" y="-206" on="1"/>
        <pt x="560" y="-110" on="0"/>
      </contour>
    </TTGlyph>
    <TTGlyph name="Jcircumflex" xMin="0" yMin="-602" xMax="1850" yMax="1968">
      <component glyphName="J" x="0" y="0" flags="0x1004"/>
      <component glyphName="circumflex" x="836" y="673" flags="0x1004"/>
    </TTGlyph>
    <TTGlyph name="K" xMin="28" yMin="-30" xMax="1877" yMax="1462">
      <contour>
        <pt x="1714" y="1448" on="1"/>
        <pt x="1750" y="1438" on="1"/>
        <pt x="1877" y="1419" on="0"/>
        <pt x="1877" y="1362" on="1"/>
        <pt x="1877" y="1346" on="0"/>
        <pt x="1865" y="1335" on="1"/>
        <pt x="1730" y="1214" on="0"/>
        <pt x="1506" y="1074" on="1"/>
        <pt x="1164" y="861" on="0"/>
        <pt x="730" y="662" on="1"/>
        <pt x="872" y="581" on="0"/>
        <pt x="1115" y="393" on="1"/>
        <pt x="1441" y="152" on="0"/>
        <pt x="1516" y="152" on="1"/>
        <pt x="1542" y="152" on="0"/>
        <pt x="1579" y="181" on="0"/>
        <pt x="1581" y="181" on="1"/>
        <pt x="1598" y="181" on="0"/>
        <pt x="1598" y="165" on="1"/>
        <pt x="1598" y="151" on="0"/>
        <pt x="1531" y="19" on="0"/>
        <pt x="1484" y="-23" on="0"/>
        <pt x="1382" y="-23" on="0"/>
        <pt x="1212" y="77" on="0"/>
        <pt x="1011" y="228" on="0"/>
        <pt x="911" y="306" on="1"/>
        <pt x="658" y="501" on="0"/>
        <pt x="570" y="537" on="1"/>
        <pt x="262" y="51" on="0"/>
        <pt x="245" y="17" on="0"/>
        <pt x="218" y="-4" on="0"/>
        <pt x="214" y="-4" on="1"/>
        <pt x="171" y="-10" on="1"/>
        <pt x="136" y="-8" on="1"/>
        <pt x="122" y="-8" on="0"/>
        <pt x="110" y="-17" on="0"/>
        <pt x="96" y="-21" on="0"/>
        <pt x="86" y="-30" on="0"/>
        <pt x="65" y="-30" on="0"/>
        <pt x="28" y="3" on="0"/>
        <pt x="28" y="27" on="0"/>
        <pt x="57" y="87" on="0"/>
        <pt x="411" y="614" on="1"/>
        <pt x="392" y="614" on="1"/>
        <pt x="325" y="614" on="0"/>
        <pt x="325" y="687" on="0"/>
        <pt x="392" y="760" on="0"/>
        <pt x="460" y="760" on="0"/>
        <pt x="501" y="754" on="1"/>
        <pt x="690" y="1033" on="0"/>
        <pt x="792" y="1192" on="1"/>
        <pt x="676" y="1083" on="0"/>
        <pt x="572" y="1083" on="1"/>
        <pt x="522" y="1083" on="0"/>
        <pt x="464" y="1152" on="0"/>
        <pt x="464" y="1240" on="0"/>
        <pt x="509" y="1296" on="0"/>
        <pt x="551" y="1318" on="0"/>
        <pt x="567" y="1318" on="0"/>
        <pt x="567" y="1310" on="1"/>
        <pt x="559" y="1286" on="1"/>
        <pt x="559" y="1272" on="0"/>
        <pt x="645" y="1272" on="0"/>
        <pt x="799" y="1367" on="0"/>
        <pt x="947" y="1462" on="0"/>
        <pt x="1021" y="1462" on="0"/>
        <pt x="1044" y="1445" on="0"/>
        <pt x="1063" y="1440" on="0"/>
        <pt x="1075" y="1430" on="0"/>
        <pt x="1083" y="1415" on="0"/>
        <pt x="1105" y="1397" on="0"/>
        <pt x="1105" y="1367" on="0"/>
        <pt x="1097" y="1354" on="1"/>
        <pt x="970" y="1162" on="0"/>
        <pt x="785" y="870" on="1"/>
        <pt x="1033" y="999" on="0"/>
        <pt x="1671" y="1402" on="0"/>
        <pt x="1697" y="1438" on="1"/>
        <pt x="1703" y="1448" on="0"/>
      </contour>
    </TTGlyph>
    <TTGlyph name="Kcommaaccent" xMin="28" yMin="-483" xMax="1877" yMax="1462">
      <contour>
        <pt x="1714" y="1448" on="1"/>
        <pt x="1750" y="1438" on="1"/>
        <pt x="1877" y="1419" on="0"/>
        <pt x="1877" y="1362" on="1"/>
        <pt x="1877" y="1346" on="0"/>
        <pt x="1865" y="1335" on="1"/>
        <pt x="1730" y="1214" on="0"/>
        <pt x="1506" y="1074" on="1"/>
        <pt x="1164" y="861" on="0"/>
        <pt x="730" y="662" on="1"/>
        <pt x="872" y="581" on="0"/>
        <pt x="1115" y="393" on="1"/>
        <pt x="1441" y="152" on="0"/>
        <pt x="1516" y="152" on="1"/>
        <pt x="1542" y="152" on="0"/>
        <pt x="1579" y="181" on="0"/>
        <pt x="1581" y="181" on="1"/>
        <pt x="1598" y="181" on="0"/>
        <pt x="1598" y="165" on="1"/>
        <pt x="1598" y="151" on="0"/>
        <pt x="1531" y="19" on="0"/>
        <pt x="1484" y="-23" on="0"/>
        <pt x="1382" y="-23" on="0"/>
        <pt x="1212" y="77" on="0"/>
        <pt x="1011" y="228" on="0"/>
        <pt x="911" y="306" on="1"/>
        <pt x="658" y="501" on="0"/>
        <pt x="570" y="537" on="1"/>
        <pt x="262" y="51" on="0"/>
        <pt x="245" y="17" on="0"/>
        <pt x="218" y="-4" on="0"/>
        <pt x="214" y="-4" on="1"/>
        <pt x="171" y="-10" on="1"/>
        <pt x="136" y="-8" on="1"/>
        <pt x="122" y="-8" on="0"/>
        <pt x="110" y="-17" on="0"/>
        <pt x="96" y="-21" on="0"/>
        <pt x="86" y="-30" on="0"/>
        <pt x="65" y="-30" on="0"/>
        <pt x="28" y="3" on="0"/>
        <pt x="28" y="27" on="0"/>
        <pt x="57" y="87" on="0"/>
        <pt x="411" y="614" on="1"/>
        <pt x="392" y="614" on="1"/>
        <pt x="325" y="614" on="0"/>
        <pt x="325" y="687" on="0"/>
        <pt x="392" y="760" on="0"/>
        <pt x="460" y="760" on="0"/>
        <pt x="501" y="754" on="1"/>
        <pt x="690" y="1033" on="0"/>
        <pt x="792" y="1192" on="1"/>
        <pt x="676" y="1083" on="0"/>
        <pt x="572" y="1083" on="1"/>
        <pt x="522" y="1083" on="0"/>
        <pt x="464" y="1152" on="0"/>
        <pt x="464" y="1240" on="0"/>
        <pt x="509" y="1296" on="0"/>
        <pt x="551" y="1318" on="0"/>
        <pt x="567" y="1318" on="0"/>
        <pt x="567" y="1310" on="1"/>
        <pt x="559" y="1286" on="1"/>
        <pt x="559" y="1272" on="0"/>
        <pt x="645" y="1272" on="0"/>
        <pt x="799" y="1367" on="0"/>
        <pt x="947" y="1462" on="0"/>
        <pt x="1021" y="1462" on="0"/>
        <pt x="1044" y="1445" on="0"/>
        <pt x="1063" y="1440" on="0"/>
        <pt x="1075" y="1430" on="0"/>
        <pt x="1083" y="1415" on="0"/>
        <pt x="1105" y="1397" on="0"/>
        <pt x="1105" y="1367" on="0"/>
        <pt x="1097" y="1354" on="1"/>
        <pt x="970" y="1162" on="0"/>
        <pt x="785" y="870" on="1"/>
        <pt x="1033" y="999" on="0"/>
        <pt x="1671" y="1402" on="0"/>
        <pt x="1697" y="1438" on="1"/>
        <pt x="1703" y="1448" on="0"/>
      </contour>
      <contour>
        <pt x="785" y="-240" on="1"/>
        <pt x="785" y="-315" on="0"/>
        <pt x="610" y="-483" on="0"/>
        <pt x="540" y="-483" on="1"/>
        <pt x="521" y="-483" on="0"/>
        <pt x="496" y="-459" on="0"/>
        <pt x="482" y="-455" on="0"/>
        <pt x="482" y="-424" on="0"/>
        <pt x="492" y="-416" on="0"/>
        <pt x="528" y="-403" on="0"/>
        <pt x="546" y="-395" on="1"/>
        <pt x="594" y="-373" on="0"/>
        <pt x="594" y="-342" on="1"/>
        <pt x="594" y="-331" on="0"/>
        <pt x="551" y="-283" on="0"/>
        <pt x="551" y="-259" on="1"/>
        <pt x="551" y="-207" on="0"/>
        <pt x="633" y="-142" on="0"/>
        <pt x="736" y="-142" on="0"/>
        <pt x="785" y="-200" on="0"/>
      </contour>
    </TTGlyph>
    <TTGlyph name="L" xMin="-150" yMin="-41" xMax="1776" yMax="1464">
      <contour>
        <pt x="555" y="125" on="1"/>
        <pt x="369" y="-41" on="0"/>
        <pt x="111" y="-41" on="1"/>
        <pt x="-45" y="-41" on="0"/>
        <pt x="-112" y="25" on="1"/>
        <pt x="-150" y="61" on="0"/>
        <pt x="-150" y="152" on="1"/>
        <pt x="-150" y="292" on="0"/>
        <pt x="63" y="333" on="1"/>
        <pt x="130" y="346" on="0"/>
        <pt x="318" y="346" on="0"/>
        <pt x="481" y="311" on="1"/>
        <pt x="568" y="408" on="0"/>
        <pt x="809" y="785" on="0"/>
        <pt x="949" y="989" on="0"/>
        <pt x="1127" y="1202" on="0"/>
        <pt x="1224" y="1288" on="1"/>
        <pt x="1421" y="1464" on="0"/>
        <pt x="1614" y="1464" on="1"/>
        <pt x="1700" y="1464" on="0"/>
        <pt x="1776" y="1377" on="0"/>
        <pt x="1776" y="1258" on="0"/>
        <pt x="1667" y="1100" on="0"/>
        <pt x="1524" y="978" on="0"/>
        <pt x="1385" y="893" on="0"/>
        <pt x="1305" y="893" on="0"/>
        <pt x="1247" y="961" on="0"/>
        <pt x="1247" y="1024" on="0"/>
        <pt x="1264" y="1049" on="0"/>
        <pt x="1282" y="1049" on="0"/>
        <pt x="1284" y="1038" on="1"/>
        <pt x="1316" y="1048" on="0"/>
        <pt x="1457" y="1153" on="0"/>
        <pt x="1573" y="1267" on="0"/>
        <pt x="1573" y="1296" on="0"/>
        <pt x="1538" y="1296" on="0"/>
        <pt x="1478" y="1272" on="0"/>
        <pt x="1378" y="1197" on="0"/>
        <pt x="1320" y="1138" on="1"/>
        <pt x="1180" y="998" on="0"/>
        <pt x="1008" y="741" on="1"/>
        <pt x="968" y="683" on="0"/>
        <pt x="895" y="572" on="1"/>
        <pt x="746" y="347" on="0"/>
        <pt x="682" y="264" on="1"/>
        <pt x="1195" y="129" on="0"/>
        <pt x="1415" y="129" on="1"/>
        <pt x="1517" y="129" on="0"/>
        <pt x="1558" y="155" on="1"/>
        <pt x="1573" y="164" on="0"/>
        <pt x="1583" y="164" on="0"/>
        <pt x="1583" y="148" on="0"/>
        <pt x="1565" y="116" on="0"/>
        <pt x="1494" y="12" on="0"/>
        <pt x="1477" y="2" on="1"/>
        <pt x="1428" y="-27" on="0"/>
        <pt x="1193" y="-27" on="0"/>
        <pt x="980" y="7" on="0"/>
        <pt x="850" y="40" on="0"/>
        <pt x="595" y="114" on="0"/>
      </contour>
      <contour>
        <pt x="190" y="186" on="1"/>
        <pt x="59" y="186" on="0"/>
        <pt x="59" y="155" on="1"/>
        <pt x="59" y="143" on="0"/>
        <pt x="104" y="125" on="0"/>
        <pt x="135" y="125" on="1"/>
        <pt x="232" y="125" on="0"/>
        <pt x="322" y="176" on="1"/>
        <pt x="245" y="186" on="0"/>
      </contour>
    </TTGlyph>
    <TTGlyph name="Lacute" xMin="-150" yMin="-41" xMax="1993" yMax="1968">
      <component glyphName="L" x="0" y="0" flags="0x1004"/>
      <component glyphName="acute" x="1001" y="678" flags="0x1004"/>
    </TTGlyph>
    <TTGlyph name="Lcaron" xMin="-150" yMin="-41" xMax="2124" yMax="1464">
      <contour>
        <pt x="555" y="125" on="1"/>
        <pt x="369" y="-41" on="0"/>
        <pt x="111" y="-41" on="1"/>
        <pt x="-45" y="-41" on="0"/>
        <pt x="-112" y="25" on="1"/>
        <pt x="-150" y="61" on="0"/>
        <pt x="-150" y="152" on="1"/>
        <pt x="-150" y="292" on="0"/>
        <pt x="63" y="333" on="1"/>
        <pt x="130" y="346" on="0"/>
        <pt x="318" y="346" on="0"/>
        <pt x="481" y="311" on="1"/>
        <pt x="568" y="408" on="0"/>
        <pt x="809" y="785" on="0"/>
        <pt x="949" y="989" on="0"/>
        <pt x="1127" y="1202" on="0"/>
        <pt x="1224" y="1288" on="1"/>
        <pt x="1421" y="1464" on="0"/>
        <pt x="1614" y="1464" on="1"/>
        <pt x="1700" y="1464" on="0"/>
        <pt x="1776" y="1377" on="0"/>
        <pt x="1776" y="1258" on="0"/>
        <pt x="1667" y="1100" on="0"/>
        <pt x="1524" y="978" on="0"/>
        <pt x="1385" y="893" on="0"/>
        <pt x="1305" y="893" on="0"/>
        <pt x="1247" y="961" on="0"/>
        <pt x="1247" y="1024" on="0"/>
        <pt x="1264" y="1049" on="0"/>
        <pt x="1282" y="1049" on="0"/>
        <pt x="1284" y="1038" on="1"/>
        <pt x="1316" y="1048" on="0"/>
        <pt x="1457" y="1153" on="0"/>
        <pt x="1573" y="1267" on="0"/>
        <pt x="1573" y="1296" on="0"/>
        <pt x="1538" y="1296" on="0"/>
        <pt x="1478" y="1272" on="0"/>
        <pt x="1378" y="1197" on="0"/>
        <pt x="1320" y="1138" on="1"/>
        <pt x="1180" y="998" on="0"/>
        <pt x="1008" y="741" on="1"/>
        <pt x="968" y="683" on="0"/>
        <pt x="895" y="572" on="1"/>
        <pt x="746" y="347" on="0"/>
        <pt x="682" y="264" on="1"/>
        <pt x="1195" y="129" on="0"/>
        <pt x="1415" y="129" on="1"/>
        <pt x="1517" y="129" on="0"/>
        <pt x="1558" y="155" on="1"/>
        <pt x="1573" y="164" on="0"/>
        <pt x="1583" y="164" on="0"/>
        <pt x="1583" y="148" on="0"/>
        <pt x="1565" y="116" on="0"/>
        <pt x="1494" y="12" on="0"/>
        <pt x="1477" y="2" on="1"/>
        <pt x="1428" y="-27" on="0"/>
        <pt x="1193" y="-27" on="0"/>
        <pt x="980" y="7" on="0"/>
        <pt x="850" y="40" on="0"/>
        <pt x="595" y="114" on="0"/>
      </contour>
      <contour>
        <pt x="190" y="186" on="1"/>
        <pt x="59" y="186" on="0"/>
        <pt x="59" y="155" on="1"/>
        <pt x="59" y="143" on="0"/>
        <pt x="104" y="125" on="0"/>
        <pt x="135" y="125" on="1"/>
        <pt x="232" y="125" on="0"/>
        <pt x="322" y="176" on="1"/>
        <pt x="245" y="186" on="0"/>
      </contour>
      <contour>
        <pt x="2075" y="1448" on="0"/>
        <pt x="2124" y="1390" on="0"/>
        <pt x="2124" y="1296" on="0"/>
        <pt x="2057" y="1206" on="0"/>
        <pt x="1924" y="1107" on="0"/>
        <pt x="1860" y="1107" on="0"/>
        <pt x="1835" y="1131" on="0"/>
        <pt x="1821" y="1135" on="0"/>
        <pt x="1821" y="1166" on="0"/>
        <pt x="1837" y="1178" on="0"/>
        <pt x="1902" y="1271" on="0"/>
        <pt x="1908" y="1286" on="1"/>
        <pt x="1892" y="1301" on="0"/>
        <pt x="1892" y="1368" on="0"/>
        <pt x="1969" y="1448" on="0"/>
      </contour>
    </TTGlyph>
    <TTGlyph name="Lcommaaccent" xMin="-150" yMin="-483" xMax="1776" yMax="1464">
      <contour>
        <pt x="555" y="125" on="1"/>
        <pt x="369" y="-41" on="0"/>
        <pt x="111" y="-41" on="1"/>
        <pt x="-45" y="-41" on="0"/>
        <pt x="-112" y="25" on="1"/>
        <pt x="-150" y="61" on="0"/>
        <pt x="-150" y="152" on="1"/>
        <pt x="-150" y="292" on="0"/>
        <pt x="63" y="333" on="1"/>
        <pt x="130" y="346" on="0"/>
        <pt x="318" y="346" on="0"/>
        <pt x="481" y="311" on="1"/>
        <pt x="568" y="408" on="0"/>
        <pt x="809" y="785" on="0"/>
        <pt x="949" y="989" on="0"/>
        <pt x="1127" y="1202" on="0"/>
        <pt x="1224" y="1288" on="1"/>
        <pt x="1421" y="1464" on="0"/>
        <pt x="1614" y="1464" on="1"/>
        <pt x="1700" y="1464" on="0"/>
        <pt x="1776" y="1377" on="0"/>
        <pt x="1776" y="1258" on="0"/>
        <pt x="1667" y="1100" on="0"/>
        <pt x="1524" y="978" on="0"/>
        <pt x="1385" y="893" on="0"/>
        <pt x="1305" y="893" on="0"/>
        <pt x="1247" y="961" on="0"/>
        <pt x="1247" y="1024" on="0"/>
        <pt x="1264" y="1049" on="0"/>
        <pt x="1282" y="1049" on="0"/>
        <pt x="1284" y="1038" on="1"/>
        <pt x="1316" y="1048" on="0"/>
        <pt x="1457" y="1153" on="0"/>
        <pt x="1573" y="1267" on="0"/>
        <pt x="1573" y="1296" on="0"/>
        <pt x="1538" y="1296" on="0"/>
        <pt x="1478" y="1272" on="0"/>
        <pt x="1378" y="1197" on="0"/>
        <pt x="1320" y="1138" on="1"/>
        <pt x="1180" y="998" on="0"/>
        <pt x="1008" y="741" on="1"/>
        <pt x="968" y="683" on="0"/>
        <pt x="895" y="572" on="1"/>
        <pt x="746" y="347" on="0"/>
        <pt x="682" y="264" on="1"/>
        <pt x="1195" y="129" on="0"/>
        <pt x="1415" y="129" on="1"/>
        <pt x="1517" y="129" on="0"/>
        <pt x="1558" y="155" on="1"/>
        <pt x="1573" y="164" on="0"/>
        <pt x="1583" y="164" on="0"/>
        <pt x="1583" y="148" on="0"/>
        <pt x="1565" y="116" on="0"/>
        <pt x="1494" y="12" on="0"/>
        <pt x="1477" y="2" on="1"/>
        <pt x="1428" y="-27" on="0"/>
        <pt x="1193" y="-27" on="0"/>
        <pt x="980" y="7" on="0"/>
        <pt x="850" y="40" on="0"/>
        <pt x="595" y="114" on="0"/>
      </contour>
      <contour>
        <pt x="190" y="186" on="1"/>
        <pt x="59" y="186" on="0"/>
        <pt x="59" y="155" on="1"/>
        <pt x="59" y="143" on="0"/>
        <pt x="104" y="125" on="0"/>
        <pt x="135" y="125" on="1"/>
        <pt x="232" y="125" on="0"/>
        <pt x="322" y="176" on="1"/>
        <pt x="245" y="186" on="0"/>
      </contour>
      <contour>
        <pt x="759" y="-240" on="1"/>
        <pt x="759" y="-315" on="0"/>
        <pt x="584" y="-483" on="0"/>
        <pt x="514" y="-483" on="1"/>
        <pt x="495" y="-483" on="0"/>
        <pt x="470" y="-459" on="0"/>
        <pt x="456" y="-455" on="0"/>
        <pt x="456" y="-424" on="0"/>
        <pt x="466" y="-416" on="0"/>
        <pt x="502" y="-403" on="0"/>
        <pt x="520" y="-395" on="1"/>
        <pt x="568" y="-373" on="0"/>
        <pt x="568" y="-342" on="1"/>
        <pt x="568" y="-331" on="0"/>
        <pt x="525" y="-283" on="0"/>
        <pt x="525" y="-259" on="1"/>
        <pt x="525" y="-207" on="0"/>
        <pt x="607" y="-142" on="0"/>
        <pt x="710" y="-142" on="0"/>
        <pt x="759" y="-200" on="0"/>
      </contour>
    </TTGlyph>
    <TTGlyph name="Ldot" xMin="-150" yMin="-41" xMax="1776" yMax="1464">
      <component glyphName="L" x="0" y="0" flags="0x1004"/>
      <component glyphName="periodcentered" x="1186" y="70" flags="0x1004"/>
    </TTGlyph>
    <TTGlyph name="Lslash" xMin="-150" yMin="-41" xMax="1776" yMax="1464">
      <contour>
        <pt x="439" y="455" on="1"/>
        <pt x="418" y="451" on="1"/>
        <pt x="393" y="448" on="0"/>
        <pt x="380" y="488" on="1"/>
        <pt x="334" y="630" on="0"/>
        <pt x="438" y="641" on="1"/>
        <pt x="473" y="645" on="0"/>
        <pt x="735" y="671" on="1"/>
        <pt x="834" y="822" on="0"/>
        <pt x="949" y="989" on="0"/>
        <pt x="1127" y="1202" on="0"/>
        <pt x="1224" y="1288" on="1"/>
        <pt x="1421" y="1464" on="0"/>
        <pt x="1614" y="1464" on="1"/>
        <pt x="1700" y="1464" on="0"/>
        <pt x="1776" y="1377" on="0"/>
        <pt x="1776" y="1258" on="0"/>
        <pt x="1667" y="1100" on="0"/>
        <pt x="1524" y="978" on="0"/>
        <pt x="1385" y="893" on="0"/>
        <pt x="1305" y="893" on="0"/>
        <pt x="1247" y="961" on="0"/>
        <pt x="1247" y="1024" on="0"/>
        <pt x="1264" y="1049" on="0"/>
        <pt x="1282" y="1049" on="0"/>
        <pt x="1284" y="1038" on="1"/>
        <pt x="1316" y="1048" on="0"/>
        <pt x="1457" y="1153" on="0"/>
        <pt x="1573" y="1267" on="0"/>
        <pt x="1573" y="1296" on="0"/>
        <pt x="1538" y="1296" on="0"/>
        <pt x="1478" y="1272" on="0"/>
        <pt x="1378" y="1197" on="0"/>
        <pt x="1320" y="1138" on="1"/>
        <pt x="1180" y="998" on="0"/>
        <pt x="1008" y="741" on="1"/>
        <pt x="1003" y="733" on="0"/>
        <pt x="983" y="705" on="0"/>
        <pt x="978" y="697" on="1"/>
        <pt x="1131" y="720" on="0"/>
        <pt x="1257" y="760" on="0"/>
        <pt x="1293" y="764" on="0"/>
        <pt x="1320" y="730" on="0"/>
        <pt x="1336" y="679" on="0"/>
        <pt x="1313" y="624" on="0"/>
        <pt x="1244" y="587" on="0"/>
        <pt x="1177" y="560" on="0"/>
        <pt x="1123" y="551" on="1"/>
        <pt x="1023" y="534" on="0"/>
        <pt x="869" y="517" on="0"/>
        <pt x="857" y="515" on="1"/>
        <pt x="737" y="336" on="0"/>
        <pt x="682" y="264" on="1"/>
        <pt x="1195" y="129" on="0"/>
        <pt x="1415" y="129" on="1"/>
        <pt x="1517" y="129" on="0"/>
        <pt x="1558" y="155" on="1"/>
        <pt x="1573" y="164" on="0"/>
        <pt x="1583" y="164" on="0"/>
        <pt x="1583" y="148" on="0"/>
        <pt x="1565" y="116" on="0"/>
        <pt x="1494" y="12" on="0"/>
        <pt x="1477" y="2" on="1"/>
        <pt x="1428" y="-27" on="0"/>
        <pt x="1193" y="-27" on="0"/>
        <pt x="980" y="7" on="0"/>
        <pt x="850" y="40" on="0"/>
        <pt x="595" y="114" on="0"/>
        <pt x="555" y="125" on="1"/>
        <pt x="369" y="-41" on="0"/>
        <pt x="111" y="-41" on="1"/>
        <pt x="-45" y="-41" on="0"/>
        <pt x="-112" y="25" on="1"/>
        <pt x="-150" y="61" on="0"/>
        <pt x="-150" y="152" on="1"/>
        <pt x="-150" y="292" on="0"/>
        <pt x="63" y="333" on="1"/>
        <pt x="130" y="346" on="0"/>
        <pt x="318" y="346" on="0"/>
        <pt x="481" y="311" on="1"/>
        <pt x="540" y="377" on="0"/>
        <pt x="612" y="482" on="1"/>
        <pt x="542" y="472" on="0"/>
      </contour>
      <contour>
        <pt x="190" y="186" on="1"/>
        <pt x="59" y="186" on="0"/>
        <pt x="59" y="155" on="1"/>
        <pt x="59" y="143" on="0"/>
        <pt x="104" y="125" on="0"/>
        <pt x="135" y="125" on="1"/>
        <pt x="232" y="125" on="0"/>
        <pt x="322" y="176" on="1"/>
        <pt x="245" y="186" on="0"/>
      </contour>
    </TTGlyph>
    <TTGlyph name="M" xMin="-176" yMin="-222" xMax="2052" yMax="1482">
      <contour>
        <pt x="1592" y="369" on="1"/>
        <pt x="1600" y="331" on="1"/>
        <pt x="1600" y="307" on="0"/>
        <pt x="1575" y="274" on="1"/>
        <pt x="1509" y="188" on="0"/>
        <pt x="1218" y="-35" on="0"/>
        <pt x="1080" y="-35" on="0"/>
        <pt x="1002" y="46" on="0"/>
        <pt x="1002" y="98" on="1"/>
        <pt x="1002" y="160" on="0"/>
        <pt x="1132" y="372" on="1"/>
        <pt x="1327" y="687" on="0"/>
        <pt x="1630" y="1108" on="1"/>
        <pt x="1566" y="1042" on="0"/>
        <pt x="1290" y="752" on="1"/>
        <pt x="679" y="112" on="0"/>
        <pt x="576" y="27" on="1"/>
        <pt x="559" y="13" on="0"/>
        <pt x="494" y="13" on="0"/>
        <pt x="422" y="66" on="0"/>
        <pt x="422" y="99" on="1"/>
        <pt x="422" y="104" on="1"/>
        <pt x="426" y="146" on="0"/>
        <pt x="804" y="884" on="0"/>
        <pt x="932" y="1102" on="1"/>
        <pt x="743" y="894" on="0"/>
        <pt x="550" y="638" on="1"/>
        <pt x="183" y="152" on="0"/>
        <pt x="13" y="-190" on="1"/>
        <pt x="-2" y="-222" on="0"/>
        <pt x="-46" y="-222" on="0"/>
        <pt x="-88" y="-211" on="1"/>
        <pt x="-176" y="-187" on="0"/>
        <pt x="-176" y="-127" on="1"/>
        <pt x="-176" y="-91" on="0"/>
        <pt x="118" y="352" on="0"/>
        <pt x="506" y="877" on="0"/>
        <pt x="714" y="1120" on="1"/>
        <pt x="1001" y="1456" on="0"/>
        <pt x="1083" y="1456" on="1"/>
        <pt x="1096" y="1456" on="0"/>
        <pt x="1120" y="1443" on="0"/>
        <pt x="1126" y="1443" on="0"/>
        <pt x="1129" y="1446" on="1"/>
        <pt x="1142" y="1462" on="0"/>
        <pt x="1219" y="1462" on="0"/>
        <pt x="1292" y="1432" on="0"/>
        <pt x="1292" y="1413" on="1"/>
        <pt x="1292" y="1401" on="0"/>
        <pt x="1192" y="1222" on="1"/>
        <pt x="857" y="628" on="0"/>
        <pt x="742" y="406" on="1"/>
        <pt x="852" y="539" on="0"/>
        <pt x="1261" y="979" on="0"/>
        <pt x="1486" y="1198" on="1"/>
        <pt x="1779" y="1482" on="0"/>
        <pt x="1836" y="1482" on="1"/>
        <pt x="1859" y="1482" on="0"/>
        <pt x="1894" y="1472" on="1"/>
        <pt x="1956" y="1454" on="0"/>
        <pt x="2013" y="1454" on="1"/>
        <pt x="2029" y="1451" on="0"/>
        <pt x="2052" y="1430" on="0"/>
        <pt x="2052" y="1408" on="0"/>
        <pt x="2046" y="1401" on="1"/>
        <pt x="1721" y="969" on="0"/>
        <pt x="1275" y="309" on="0"/>
        <pt x="1223" y="193" on="1"/>
        <pt x="1328" y="215" on="0"/>
        <pt x="1536" y="444" on="1"/>
        <pt x="1545" y="456" on="0"/>
        <pt x="1553" y="464" on="0"/>
        <pt x="1556" y="468" on="1"/>
        <pt x="1573" y="488" on="0"/>
        <pt x="1582" y="443" on="1"/>
        <pt x="1586" y="417" on="0"/>
        <pt x="1589" y="396" on="0"/>
        <pt x="1592" y="373" on="0"/>
      </contour>
    </TTGlyph>
    <TTGlyph name="N" xMin="-36" yMin="-50" xMax="1805" yMax="1528">
      <contour>
        <pt x="978" y="1421" on="1"/>
        <pt x="1051" y="1437" on="1"/>
        <pt x="1079" y="1437" on="0"/>
        <pt x="1113" y="1413" on="0"/>
        <pt x="1113" y="1392" on="0"/>
        <pt x="1103" y="1352" on="0"/>
        <pt x="951" y="612" on="0"/>
        <pt x="916" y="430" on="1"/>
        <pt x="1086" y="661" on="0"/>
        <pt x="1540" y="1337" on="0"/>
        <pt x="1578" y="1448" on="1"/>
        <pt x="1590" y="1483" on="0"/>
        <pt x="1628" y="1521" on="0"/>
        <pt x="1658" y="1528" on="0"/>
        <pt x="1720" y="1528" on="0"/>
        <pt x="1805" y="1501" on="0"/>
        <pt x="1805" y="1470" on="1"/>
        <pt x="1805" y="1411" on="0"/>
        <pt x="1455" y="849" on="0"/>
        <pt x="1006" y="217" on="0"/>
        <pt x="855" y="33" on="1"/>
        <pt x="828" y="0" on="0"/>
        <pt x="751" y="0" on="0"/>
        <pt x="666" y="27" on="0"/>
        <pt x="666" y="61" on="1"/>
        <pt x="666" y="171" on="0"/>
        <pt x="859" y="1118" on="1"/>
        <pt x="694" y="904" on="0"/>
        <pt x="458" y="522" on="1"/>
        <pt x="212" y="127" on="0"/>
        <pt x="180" y="32" on="1"/>
        <pt x="162" y="-25" on="0"/>
        <pt x="139" y="-34" on="1"/>
        <pt x="123" y="-41" on="0"/>
        <pt x="105" y="-41" on="1"/>
        <pt x="26" y="-50" on="1"/>
        <pt x="3" y="-50" on="0"/>
        <pt x="-36" y="-24" on="0"/>
        <pt x="-36" y="-10" on="1"/>
        <pt x="-36" y="30" on="0"/>
        <pt x="185" y="428" on="0"/>
        <pt x="480" y="895" on="0"/>
        <pt x="802" y="1337" on="0"/>
        <pt x="890" y="1413" on="1"/>
        <pt x="908" y="1429" on="0"/>
        <pt x="931" y="1429" on="1"/>
      </contour>
    </TTGlyph>
    <TTGlyph name="Nacute" xMin="-36" yMin="-50" xMax="1805" yMax="1979">
      <component glyphName="N" x="0" y="0" flags="0x1004"/>
      <component glyphName="acute" x="716" y="689" flags="0x1004"/>
    </TTGlyph>
    <TTGlyph name="Ncaron" xMin="-36" yMin="-50" xMax="1805" yMax="1983">
      <component glyphName="N" x="0" y="0" flags="0x1004"/>
      <component glyphName="caron" x="607" y="689" flags="0x1004"/>
    </TTGlyph>
    <TTGlyph name="Ncommaaccent" xMin="-36" yMin="-483" xMax="1805" yMax="1528">
      <contour>
        <pt x="978" y="1421" on="1"/>
        <pt x="1051" y="1437" on="1"/>
        <pt x="1079" y="1437" on="0"/>
        <pt x="1113" y="1413" on="0"/>
        <pt x="1113" y="1392" on="0"/>
        <pt x="1103" y="1352" on="0"/>
        <pt x="951" y="612" on="0"/>
        <pt x="916" y="430" on="1"/>
        <pt x="1086" y="661" on="0"/>
        <pt x="1540" y="1337" on="0"/>
        <pt x="1578" y="1448" on="1"/>
        <pt x="1590" y="1483" on="0"/>
        <pt x="1628" y="1521" on="0"/>
        <pt x="1658" y="1528" on="0"/>
        <pt x="1720" y="1528" on="0"/>
        <pt x="1805" y="1501" on="0"/>
        <pt x="1805" y="1470" on="1"/>
        <pt x="1805" y="1411" on="0"/>
        <pt x="1455" y="849" on="0"/>
        <pt x="1006" y="217" on="0"/>
        <pt x="855" y="33" on="1"/>
        <pt x="828" y="0" on="0"/>
        <pt x="751" y="0" on="0"/>
        <pt x="666" y="27" on="0"/>
        <pt x="666" y="61" on="1"/>
        <pt x="666" y="171" on="0"/>
        <pt x="859" y="1118" on="1"/>
        <pt x="694" y="904" on="0"/>
        <pt x="458" y="522" on="1"/>
        <pt x="212" y="127" on="0"/>
        <pt x="180" y="32" on="1"/>
        <pt x="162" y="-25" on="0"/>
        <pt x="139" y="-34" on="1"/>
        <pt x="123" y="-41" on="0"/>
        <pt x="105" y="-41" on="1"/>
        <pt x="26" y="-50" on="1"/>
        <pt x="3" y="-50" on="0"/>
        <pt x="-36" y="-24" on="0"/>
        <pt x="-36" y="-10" on="1"/>
        <pt x="-36" y="30" on="0"/>
        <pt x="185" y="428" on="0"/>
        <pt x="480" y="895" on="0"/>
        <pt x="802" y="1337" on="0"/>
        <pt x="890" y="1413" on="1"/>
        <pt x="908" y="1429" on="0"/>
        <pt x="931" y="1429" on="1"/>
      </contour>
      <contour>
        <pt x="507" y="-240" on="1"/>
        <pt x="507" y="-315" on="0"/>
        <pt x="332" y="-483" on="0"/>
        <pt x="262" y="-483" on="1"/>
        <pt x="243" y="-483" on="0"/>
        <pt x="218" y="-459" on="0"/>
        <pt x="204" y="-455" on="0"/>
        <pt x="204" y="-424" on="0"/>
        <pt x="214" y="-416" on="0"/>
        <pt x="250" y="-403" on="0"/>
        <pt x="268" y="-395" on="1"/>
        <pt x="316" y="-373" on="0"/>
        <pt x="316" y="-342" on="1"/>
        <pt x="316" y="-331" on="0"/>
        <pt x="273" y="-283" on="0"/>
        <pt x="273" y="-259" on="1"/>
        <pt x="273" y="-207" on="0"/>
        <pt x="355" y="-142" on="0"/>
        <pt x="458" y="-142" on="0"/>
        <pt x="507" y="-200" on="0"/>
      </contour>
    </TTGlyph>
    <TTGlyph name="Ntilde" xMin="-36" yMin="-50" xMax="1805" yMax="1877">
      <component glyphName="N" x="0" y="0" flags="0x1004"/>
      <component glyphName="tilde" x="587" y="689" flags="0x1004"/>
    </TTGlyph>
    <TTGlyph name="O" xMin="170" yMin="-18" xMax="1630" yMax="1479">
      <contour>
        <pt x="1531" y="1339" on="0"/>
        <pt x="1630" y="1251" on="0"/>
        <pt x="1630" y="1143" on="0"/>
        <pt x="1576" y="970" on="0"/>
        <pt x="1479" y="775" on="0"/>
        <pt x="1340" y="566" on="0"/>
        <pt x="1177" y="369" on="0"/>
        <pt x="982" y="192" on="0"/>
        <pt x="882" y="126" on="1"/>
        <pt x="664" y="-18" on="0"/>
        <pt x="456" y="-18" on="1"/>
        <pt x="384" y="-18" on="0"/>
        <pt x="272" y="58" on="0"/>
        <pt x="241" y="95" on="1"/>
        <pt x="170" y="180" on="0"/>
        <pt x="170" y="481" on="0"/>
        <pt x="369" y="887" on="0"/>
        <pt x="714" y="1248" on="0"/>
        <pt x="1142" y="1479" on="0"/>
        <pt x="1335" y="1479" on="1"/>
        <pt x="1373" y="1479" on="0"/>
        <pt x="1441" y="1445" on="0"/>
        <pt x="1441" y="1400" on="0"/>
        <pt x="1419" y="1371" on="0"/>
        <pt x="1399" y="1338" on="0"/>
        <pt x="1392" y="1331" on="1"/>
        <pt x="1425" y="1339" on="0"/>
      </contour>
      <contour>
        <pt x="1105" y="877" on="1"/>
        <pt x="1105" y="857" on="0"/>
        <pt x="1077" y="857" on="0"/>
        <pt x="989" y="954" on="0"/>
        <pt x="989" y="987" on="1"/>
        <pt x="989" y="1064" on="0"/>
        <pt x="1196" y="1260" on="0"/>
        <pt x="1323" y="1311" on="1"/>
        <pt x="1183" y="1303" on="0"/>
        <pt x="813" y="1081" on="0"/>
        <pt x="535" y="768" on="0"/>
        <pt x="364" y="428" on="0"/>
        <pt x="364" y="322" on="1"/>
        <pt x="364" y="257" on="0"/>
        <pt x="422" y="164" on="0"/>
        <pt x="561" y="164" on="0"/>
        <pt x="757" y="260" on="0"/>
        <pt x="850" y="338" on="1"/>
        <pt x="1170" y="609" on="0"/>
        <pt x="1350" y="940" on="1"/>
        <pt x="1423" y="1076" on="0"/>
        <pt x="1423" y="1128" on="1"/>
        <pt x="1423" y="1149" on="0"/>
        <pt x="1409" y="1149" on="1"/>
        <pt x="1368" y="1149" on="0"/>
        <pt x="1218" y="1044" on="0"/>
        <pt x="1102" y="918" on="0"/>
        <pt x="1102" y="890" on="1"/>
      </contour>
    </TTGlyph>
    <TTGlyph name="OE" xMin="170" yMin="-28" xMax="2414" yMax="1479">
      <contour>
        <pt x="1432" y="1339" on="1"/>
        <pt x="1523" y="1339" on="0"/>
        <pt x="1576" y="1267" on="1"/>
        <pt x="1702" y="1352" on="0"/>
        <pt x="2031" y="1456" on="0"/>
        <pt x="2164" y="1456" on="1"/>
        <pt x="2270" y="1456" on="0"/>
        <pt x="2331" y="1437" on="1"/>
        <pt x="2368" y="1419" on="0"/>
        <pt x="2414" y="1354" on="0"/>
        <pt x="2414" y="1307" on="0"/>
        <pt x="2402" y="1269" on="0"/>
        <pt x="2388" y="1258" on="1"/>
        <pt x="2368" y="1243" on="0"/>
        <pt x="2318" y="1227" on="0"/>
        <pt x="2314" y="1225" on="1"/>
        <pt x="2236" y="1192" on="0"/>
        <pt x="2180" y="1192" on="1"/>
        <pt x="2080" y="1192" on="0"/>
        <pt x="2071" y="1218" on="1"/>
        <pt x="2073" y="1244" on="0"/>
        <pt x="2093" y="1278" on="1"/>
        <pt x="1998" y="1274" on="0"/>
        <pt x="1794" y="1205" on="0"/>
        <pt x="1645" y="1112" on="0"/>
        <pt x="1549" y="1012" on="0"/>
        <pt x="1549" y="978" on="1"/>
        <pt x="1549" y="913" on="0"/>
        <pt x="1776" y="913" on="1"/>
        <pt x="1832" y="913" on="0"/>
        <pt x="1859" y="925" on="1"/>
        <pt x="1930" y="959" on="0"/>
        <pt x="2137" y="959" on="0"/>
        <pt x="2137" y="906" on="1"/>
        <pt x="2137" y="885" on="0"/>
        <pt x="2102" y="804" on="0"/>
        <pt x="2085" y="786" on="0"/>
        <pt x="1974" y="755" on="0"/>
        <pt x="1922" y="749" on="0"/>
        <pt x="1862" y="739" on="0"/>
        <pt x="1850" y="744" on="1"/>
        <pt x="1519" y="581" on="0"/>
        <pt x="1395" y="386" on="1"/>
        <pt x="1339" y="298" on="0"/>
        <pt x="1339" y="235" on="1"/>
        <pt x="1339" y="136" on="0"/>
        <pt x="1476" y="136" on="1"/>
        <pt x="1583" y="136" on="0"/>
        <pt x="1913" y="304" on="0"/>
        <pt x="2168" y="543" on="0"/>
        <pt x="2168" y="631" on="1"/>
        <pt x="2168" y="659" on="0"/>
        <pt x="2210" y="659" on="1"/>
        <pt x="2307" y="659" on="0"/>
        <pt x="2307" y="544" on="1"/>
        <pt x="2307" y="490" on="0"/>
        <pt x="2213" y="341" on="0"/>
        <pt x="2045" y="188" on="0"/>
        <pt x="1839" y="56" on="0"/>
        <pt x="1588" y="-28" on="0"/>
        <pt x="1414" y="-28" on="0"/>
        <pt x="1307" y="5" on="0"/>
        <pt x="1260" y="38" on="1"/>
        <pt x="1158" y="109" on="0"/>
        <pt x="1158" y="253" on="1"/>
        <pt x="1158" y="331" on="0"/>
        <pt x="1242" y="492" on="0"/>
        <pt x="1310" y="558" on="1"/>
        <pt x="1435" y="682" on="0"/>
        <pt x="1578" y="764" on="1"/>
        <pt x="1505" y="780" on="0"/>
        <pt x="1460" y="810" on="1"/>
        <pt x="1291" y="506" on="0"/>
        <pt x="1024" y="256" on="1"/>
        <pt x="893" y="133" on="0"/>
        <pt x="593" y="-18" on="0"/>
        <pt x="456" y="-18" on="1"/>
        <pt x="384" y="-18" on="0"/>
        <pt x="272" y="58" on="0"/>
        <pt x="241" y="95" on="1"/>
        <pt x="170" y="180" on="0"/>
        <pt x="170" y="481" on="0"/>
        <pt x="369" y="887" on="0"/>
        <pt x="719" y="1253" on="0"/>
        <pt x="1115" y="1479" on="0"/>
        <pt x="1305" y="1479" on="1"/>
        <pt x="1343" y="1479" on="0"/>
        <pt x="1411" y="1445" on="0"/>
        <pt x="1411" y="1400" on="0"/>
        <pt x="1389" y="1371" on="0"/>
        <pt x="1369" y="1338" on="0"/>
        <pt x="1362" y="1331" on="1"/>
        <pt x="1395" y="1339" on="0"/>
      </contour>
      <contour>
        <pt x="1075" y="877" on="1"/>
        <pt x="1075" y="857" on="0"/>
        <pt x="1047" y="857" on="0"/>
        <pt x="959" y="954" on="0"/>
        <pt x="959" y="987" on="1"/>
        <pt x="959" y="1064" on="0"/>
        <pt x="1166" y="1260" on="0"/>
        <pt x="1293" y="1311" on="1"/>
        <pt x="1155" y="1303" on="0"/>
        <pt x="806" y="1084" on="0"/>
        <pt x="527" y="771" on="0"/>
        <pt x="364" y="431" on="0"/>
        <pt x="364" y="322" on="1"/>
        <pt x="364" y="257" on="0"/>
        <pt x="422" y="164" on="0"/>
        <pt x="561" y="164" on="0"/>
        <pt x="750" y="259" on="0"/>
        <pt x="840" y="338" on="1"/>
        <pt x="1003" y="483" on="0"/>
        <pt x="1253" y="801" on="0"/>
        <pt x="1393" y="1074" on="0"/>
        <pt x="1393" y="1128" on="1"/>
        <pt x="1393" y="1149" on="0"/>
        <pt x="1379" y="1149" on="1"/>
        <pt x="1338" y="1149" on="0"/>
        <pt x="1188" y="1044" on="0"/>
        <pt x="1072" y="918" on="0"/>
        <pt x="1072" y="890" on="1"/>
      </contour>
    </TTGlyph>
    <TTGlyph name="Oacute" xMin="170" yMin="-18" xMax="1757" yMax="1979">
      <component glyphName="O" x="0" y="0" flags="0x1004"/>
      <component glyphName="acute" x="765" y="689" flags="0x1004"/>
    </TTGlyph>
    <TTGlyph name="Obreve" xMin="170" yMin="-18" xMax="1729" yMax="1948">
      <component glyphName="O" x="0" y="0" flags="0x1004"/>
      <component glyphName="breve" x="624" y="689" flags="0x1004"/>
    </TTGlyph>
    <TTGlyph name="Ocircumflex" xMin="170" yMin="-18" xMax="1701" yMax="1984">
      <component glyphName="O" x="0" y="0" flags="0x1004"/>
      <component glyphName="circumflex" x="687" y="689" flags="0x1004"/>
    </TTGlyph>
    <TTGlyph name="Odieresis" xMin="170" yMin="-18" xMax="1748" yMax="1860">
      <component glyphName="O" x="0" y="0" flags="0x1004"/>
      <component glyphName="dieresis" x="699" y="689" flags="0x1004"/>
    </TTGlyph>
    <TTGlyph name="Ograve" xMin="170" yMin="-18" xMax="1630" yMax="1983">
      <component glyphName="O" x="0" y="0" flags="0x1004"/>
      <component glyphName="grave" x="580" y="689" flags="0x1004"/>
    </TTGlyph>
    <TTGlyph name="Ohungarumlaut" xMin="170" yMin="-18" xMax="1830" yMax="1981">
      <component glyphName="O" x="0" y="0" flags="0x1004"/>
      <component glyphName="hungarumlaut" x="759" y="689" flags="0x1004"/>
    </TTGlyph>
    <TTGlyph name="Omacron" xMin="170" yMin="-18" xMax="1732" yMax="1846">
      <component glyphName="O" x="0" y="0" flags="0x1004"/>
      <component glyphName="macron" x="693" y="689" flags="0x1004"/>
    </TTGlyph>
    <TTGlyph name="Oslash" xMin="131" yMin="-250" xMax="1652" yMax="1636">
      <contour>
        <pt x="1335" y="1479" on="1"/>
        <pt x="1402" y="1479" on="0"/>
        <pt x="1430" y="1444" on="1"/>
        <pt x="1537" y="1555" on="0"/>
        <pt x="1593" y="1614" on="0"/>
        <pt x="1603" y="1624" on="0"/>
        <pt x="1606" y="1627" on="1"/>
        <pt x="1617" y="1636" on="0"/>
        <pt x="1626" y="1636" on="1"/>
        <pt x="1651" y="1636" on="0"/>
        <pt x="1651" y="1552" on="1"/>
        <pt x="1651" y="1550" on="0"/>
        <pt x="1652" y="1531" on="0"/>
        <pt x="1652" y="1526" on="1"/>
        <pt x="1647" y="1486" on="0"/>
        <pt x="1586" y="1393" on="0"/>
        <pt x="1530" y="1326" on="1"/>
        <pt x="1574" y="1308" on="0"/>
        <pt x="1630" y="1237" on="0"/>
        <pt x="1630" y="1143" on="0"/>
        <pt x="1576" y="970" on="0"/>
        <pt x="1479" y="775" on="0"/>
        <pt x="1340" y="566" on="0"/>
        <pt x="1177" y="369" on="0"/>
        <pt x="982" y="192" on="0"/>
        <pt x="882" y="126" on="1"/>
        <pt x="664" y="-18" on="0"/>
        <pt x="456" y="-18" on="1"/>
        <pt x="413" y="-18" on="0"/>
        <pt x="366" y="1" on="1"/>
        <pt x="240" y="-165" on="0"/>
        <pt x="218" y="-222" on="1"/>
        <pt x="207" y="-250" on="0"/>
        <pt x="163" y="-250" on="0"/>
        <pt x="131" y="-168" on="0"/>
        <pt x="131" y="-58" on="0"/>
        <pt x="138" y="-31" on="1"/>
        <pt x="148" y="6" on="0"/>
        <pt x="228" y="112" on="1"/>
        <pt x="170" y="197" on="0"/>
        <pt x="170" y="315" on="1"/>
        <pt x="170" y="481" on="0"/>
        <pt x="369" y="887" on="0"/>
        <pt x="714" y="1248" on="0"/>
        <pt x="1142" y="1479" on="0"/>
      </contour>
      <contour>
        <pt x="364" y="322" on="1"/>
        <pt x="364" y="300" on="0"/>
        <pt x="366" y="290" on="1"/>
        <pt x="611" y="592" on="0"/>
        <pt x="968" y="965" on="1"/>
        <pt x="1091" y="1093" on="0"/>
        <pt x="1299" y="1308" on="1"/>
        <pt x="1159" y="1292" on="0"/>
        <pt x="807" y="1074" on="0"/>
        <pt x="535" y="768" on="0"/>
        <pt x="364" y="428" on="0"/>
      </contour>
      <contour>
        <pt x="1350" y="940" on="1"/>
        <pt x="1423" y="1076" on="0"/>
        <pt x="1423" y="1164" on="0"/>
        <pt x="1417" y="1192" on="1"/>
        <pt x="1331" y="1094" on="0"/>
        <pt x="657" y="362" on="0"/>
        <pt x="494" y="164" on="1"/>
        <pt x="711" y="175" on="0"/>
        <pt x="1025" y="502" on="1"/>
        <pt x="1227" y="714" on="0"/>
      </contour>
    </TTGlyph>
    <TTGlyph name="Oslashacute" xMin="131" yMin="-250" xMax="1654" yMax="1981">
      <component glyphName="Oslash" x="0" y="0" flags="0x1004"/>
      <component glyphName="acute" x="662" y="691" flags="0x1004"/>
    </TTGlyph>
    <TTGlyph name="Otilde" xMin="170" yMin="-18" xMax="1785" yMax="1877">
      <component glyphName="O" x="0" y="0" flags="0x1004"/>
      <component glyphName="tilde" x="636" y="689" flags="0x1004"/>
    </TTGlyph>
    <TTGlyph name="P" xMin="319" yMin="-3" xMax="1848" yMax="1440">
      <contour>
        <pt x="617" y="1073" on="1"/>
        <pt x="584" y="1049" on="0"/>
        <pt x="584" y="990" on="0"/>
        <pt x="628" y="990" on="1"/>
        <pt x="647" y="990" on="0"/>
        <pt x="677" y="1001" on="1"/>
        <pt x="678" y="1001" on="1"/>
        <pt x="683" y="1001" on="0"/>
        <pt x="683" y="960" on="0"/>
        <pt x="679" y="956" on="1"/>
        <pt x="576" y="883" on="0"/>
        <pt x="434" y="883" on="0"/>
        <pt x="370" y="963" on="0"/>
        <pt x="370" y="1092" on="0"/>
        <pt x="512" y="1237" on="0"/>
        <pt x="752" y="1360" on="0"/>
        <pt x="1107" y="1440" on="0"/>
        <pt x="1550" y="1440" on="0"/>
        <pt x="1848" y="1267" on="0"/>
        <pt x="1848" y="1046" on="0"/>
        <pt x="1693" y="818" on="0"/>
        <pt x="1460" y="649" on="0"/>
        <pt x="1176" y="541" on="0"/>
        <pt x="952" y="541" on="0"/>
        <pt x="890" y="631" on="1"/>
        <pt x="738" y="392" on="0"/>
        <pt x="630" y="217" on="0"/>
        <pt x="555" y="98" on="0"/>
        <pt x="514" y="30" on="0"/>
        <pt x="513" y="29" on="1"/>
        <pt x="492" y="6" on="0"/>
        <pt x="468" y="6" on="1"/>
        <pt x="419" y="-3" on="1"/>
        <pt x="395" y="-1" on="1"/>
        <pt x="378" y="-1" on="1"/>
        <pt x="319" y="-1" on="0"/>
        <pt x="319" y="36" on="1"/>
        <pt x="319" y="83" on="0"/>
        <pt x="713" y="697" on="0"/>
        <pt x="1062" y="1197" on="0"/>
        <pt x="1120" y="1259" on="0"/>
        <pt x="1165" y="1270" on="0"/>
        <pt x="1215" y="1270" on="1"/>
        <pt x="1265" y="1270" on="1"/>
        <pt x="1278" y="1270" on="0"/>
        <pt x="1278" y="1229" on="0"/>
        <pt x="1273" y="1221" on="1"/>
        <pt x="1185" y="1098" on="0"/>
        <pt x="955" y="735" on="1"/>
        <pt x="963" y="719" on="0"/>
        <pt x="1000" y="711" on="0"/>
        <pt x="1021" y="711" on="1"/>
        <pt x="1050" y="711" on="1"/>
        <pt x="1142" y="711" on="0"/>
        <pt x="1356" y="800" on="0"/>
        <pt x="1518" y="924" on="0"/>
        <pt x="1627" y="1059" on="0"/>
        <pt x="1627" y="1155" on="0"/>
        <pt x="1567" y="1231" on="0"/>
        <pt x="1515" y="1253" on="1"/>
        <pt x="1413" y="1296" on="0"/>
        <pt x="1122" y="1296" on="0"/>
        <pt x="711" y="1145" on="0"/>
      </contour>
    </TTGlyph>
    <TTGlyph name="Q" xMin="102" yMin="-328" xMax="1665" yMax="1430">
      <contour>
        <pt x="1503" y="1430" on="0"/>
        <pt x="1665" y="1273" on="0"/>
        <pt x="1665" y="1051" on="0"/>
        <pt x="1571" y="796" on="0"/>
        <pt x="1399" y="527" on="0"/>
        <pt x="1181" y="277" on="0"/>
        <pt x="910" y="71" on="0"/>
        <pt x="776" y="18" on="1"/>
        <pt x="785" y="11" on="0"/>
        <pt x="844" y="-37" on="0"/>
        <pt x="868" y="-56" on="0"/>
        <pt x="921" y="-98" on="0"/>
        <pt x="948" y="-116" on="0"/>
        <pt x="994" y="-149" on="0"/>
        <pt x="1023" y="-163" on="0"/>
        <pt x="1041" y="-172" on="1"/>
        <pt x="1073" y="-188" on="0"/>
        <pt x="1130" y="-188" on="0"/>
        <pt x="1168" y="-174" on="0"/>
        <pt x="1181" y="-157" on="0"/>
        <pt x="1191" y="-143" on="0"/>
        <pt x="1196" y="-143" on="1"/>
        <pt x="1209" y="-143" on="0"/>
        <pt x="1209" y="-171" on="0"/>
        <pt x="1181" y="-219" on="0"/>
        <pt x="1128" y="-272" on="0"/>
        <pt x="1004" y="-328" on="0"/>
        <pt x="958" y="-328" on="1"/>
        <pt x="791" y="-328" on="0"/>
        <pt x="483" y="29" on="1"/>
        <pt x="388" y="-16" on="0"/>
        <pt x="230" y="-16" on="0"/>
        <pt x="102" y="125" on="0"/>
        <pt x="102" y="346" on="0"/>
        <pt x="180" y="510" on="1"/>
        <pt x="324" y="818" on="0"/>
        <pt x="567" y="1042" on="1"/>
        <pt x="990" y="1430" on="0"/>
        <pt x="1343" y="1430" on="1"/>
      </contour>
      <contour>
        <pt x="1485" y="1180" on="1"/>
        <pt x="1485" y="1268" on="0"/>
        <pt x="1389" y="1268" on="1"/>
        <pt x="1213" y="1268" on="0"/>
        <pt x="844" y="1071" on="0"/>
        <pt x="514" y="747" on="0"/>
        <pt x="297" y="360" on="0"/>
        <pt x="297" y="247" on="1"/>
        <pt x="297" y="195" on="0"/>
        <pt x="323" y="174" on="1"/>
        <pt x="379" y="174" on="0"/>
        <pt x="636" y="309" on="0"/>
        <pt x="733" y="420" on="1"/>
        <pt x="743" y="430" on="0"/>
        <pt x="754" y="430" on="0"/>
        <pt x="758" y="423" on="0"/>
        <pt x="772" y="401" on="0"/>
        <pt x="778" y="390" on="1"/>
        <pt x="794" y="359" on="0"/>
        <pt x="794" y="284" on="0"/>
        <pt x="740" y="200" on="0"/>
        <pt x="655" y="133" on="1"/>
        <pt x="765" y="172" on="0"/>
        <pt x="1145" y="550" on="0"/>
        <pt x="1383" y="887" on="0"/>
        <pt x="1485" y="1132" on="0"/>
      </contour>
    </TTGlyph>
    <TTGlyph name="R" xMin="340" yMin="-78" xMax="1782" yMax="1442">
      <contour>
        <pt x="641" y="1027" on="1"/>
        <pt x="656" y="1027" on="0"/>
        <pt x="656" y="1010" on="1"/>
        <pt x="656" y="1004" on="0"/>
        <pt x="651" y="999" on="1"/>
        <pt x="567" y="915" on="0"/>
        <pt x="457" y="915" on="1"/>
        <pt x="431" y="915" on="0"/>
        <pt x="367" y="974" on="0"/>
        <pt x="367" y="1086" on="0"/>
        <pt x="503" y="1223" on="0"/>
        <pt x="746" y="1346" on="0"/>
        <pt x="1110" y="1442" on="0"/>
        <pt x="1400" y="1442" on="0"/>
        <pt x="1586" y="1395" on="0"/>
        <pt x="1691" y="1326" on="0"/>
        <pt x="1725" y="1283" on="1"/>
        <pt x="1782" y="1211" on="0"/>
        <pt x="1782" y="1062" on="0"/>
        <pt x="1686" y="904" on="0"/>
        <pt x="1533" y="781" on="0"/>
        <pt x="1434" y="728" on="1"/>
        <pt x="1249" y="630" on="0"/>
        <pt x="1038" y="584" on="1"/>
        <pt x="1074" y="547" on="0"/>
        <pt x="1307" y="250" on="0"/>
        <pt x="1500" y="50" on="0"/>
        <pt x="1553" y="50" on="1"/>
        <pt x="1586" y="62" on="1"/>
        <pt x="1597" y="62" on="0"/>
        <pt x="1597" y="45" on="0"/>
        <pt x="1524" y="-36" on="0"/>
        <pt x="1470" y="-78" on="0"/>
        <pt x="1377" y="-78" on="0"/>
        <pt x="1259" y="12" on="0"/>
        <pt x="1119" y="176" on="0"/>
        <pt x="1007" y="321" on="0"/>
        <pt x="863" y="518" on="0"/>
        <pt x="836" y="553" on="1"/>
        <pt x="826" y="537" on="0"/>
        <pt x="744" y="410" on="0"/>
        <pt x="706" y="350" on="0"/>
        <pt x="634" y="235" on="0"/>
        <pt x="614" y="200" on="1"/>
        <pt x="559" y="107" on="0"/>
        <pt x="516" y="15" on="0"/>
        <pt x="467" y="15" on="1"/>
        <pt x="432" y="16" on="1"/>
        <pt x="402" y="15" on="1"/>
        <pt x="340" y="15" on="0"/>
        <pt x="340" y="67" on="1"/>
        <pt x="340" y="106" on="0"/>
        <pt x="407" y="251" on="0"/>
        <pt x="1051" y="1188" on="0"/>
        <pt x="1117" y="1251" on="0"/>
        <pt x="1133" y="1255" on="1"/>
        <pt x="1145" y="1264" on="0"/>
        <pt x="1149" y="1264" on="1"/>
        <pt x="1167" y="1261" on="1"/>
        <pt x="1184" y="1264" on="1"/>
        <pt x="1193" y="1264" on="0"/>
        <pt x="1207" y="1249" on="0"/>
        <pt x="1210" y="1247" on="1"/>
        <pt x="1252" y="1216" on="0"/>
        <pt x="1252" y="1174" on="0"/>
        <pt x="1231" y="1135" on="0"/>
        <pt x="1137" y="999" on="0"/>
        <pt x="984" y="782" on="0"/>
        <pt x="950" y="733" on="1"/>
        <pt x="1032" y="737" on="0"/>
        <pt x="1262" y="829" on="0"/>
        <pt x="1463" y="958" on="0"/>
        <pt x="1606" y="1109" on="0"/>
        <pt x="1606" y="1165" on="1"/>
        <pt x="1606" y="1195" on="0"/>
        <pt x="1544" y="1244" on="0"/>
        <pt x="1497" y="1258" on="1"/>
        <pt x="1403" y="1286" on="0"/>
        <pt x="1167" y="1286" on="0"/>
        <pt x="805" y="1184" on="0"/>
        <pt x="639" y="1091" on="0"/>
        <pt x="565" y="1026" on="0"/>
        <pt x="565" y="1013" on="1"/>
        <pt x="565" y="1006" on="0"/>
        <pt x="606" y="1006" on="0"/>
        <pt x="638" y="1027" on="0"/>
      </contour>
    </TTGlyph>
    <TTGlyph name="Racute" xMin="340" yMin="-78" xMax="1782" yMax="1942">
      <component glyphName="R" x="0" y="0" flags="0x1004"/>
      <component glyphName="acute" x="694" y="652" flags="0x1004"/>
    </TTGlyph>
    <TTGlyph name="Rcaron" xMin="340" yMin="-78" xMax="1782" yMax="1946">
      <component glyphName="R" x="0" y="0" flags="0x1004"/>
      <component glyphName="caron" x="585" y="652" flags="0x1004"/>
    </TTGlyph>
    <TTGlyph name="Rcommaaccent" xMin="340" yMin="-483" xMax="1782" yMax="1442">
      <contour>
        <pt x="641" y="1027" on="1"/>
        <pt x="656" y="1027" on="0"/>
        <pt x="656" y="1010" on="1"/>
        <pt x="656" y="1004" on="0"/>
        <pt x="651" y="999" on="1"/>
        <pt x="567" y="915" on="0"/>
        <pt x="457" y="915" on="1"/>
        <pt x="431" y="915" on="0"/>
        <pt x="367" y="974" on="0"/>
        <pt x="367" y="1086" on="0"/>
        <pt x="503" y="1223" on="0"/>
        <pt x="746" y="1346" on="0"/>
        <pt x="1110" y="1442" on="0"/>
        <pt x="1400" y="1442" on="0"/>
        <pt x="1586" y="1395" on="0"/>
        <pt x="1691" y="1326" on="0"/>
        <pt x="1725" y="1283" on="1"/>
        <pt x="1782" y="1211" on="0"/>
        <pt x="1782" y="1062" on="0"/>
        <pt x="1686" y="904" on="0"/>
        <pt x="1533" y="781" on="0"/>
        <pt x="1434" y="728" on="1"/>
        <pt x="1249" y="630" on="0"/>
        <pt x="1038" y="584" on="1"/>
        <pt x="1074" y="547" on="0"/>
        <pt x="1307" y="250" on="0"/>
        <pt x="1500" y="50" on="0"/>
        <pt x="1553" y="50" on="1"/>
        <pt x="1586" y="62" on="1"/>
        <pt x="1597" y="62" on="0"/>
        <pt x="1597" y="45" on="0"/>
        <pt x="1524" y="-36" on="0"/>
        <pt x="1470" y="-78" on="0"/>
        <pt x="1377" y="-78" on="0"/>
        <pt x="1259" y="12" on="0"/>
        <pt x="1119" y="176" on="0"/>
        <pt x="1007" y="321" on="0"/>
        <pt x="863" y="518" on="0"/>
        <pt x="836" y="553" on="1"/>
        <pt x="826" y="537" on="0"/>
        <pt x="744" y="410" on="0"/>
        <pt x="706" y="350" on="0"/>
        <pt x="634" y="235" on="0"/>
        <pt x="614" y="200" on="1"/>
        <pt x="559" y="107" on="0"/>
        <pt x="516" y="15" on="0"/>
        <pt x="467" y="15" on="1"/>
        <pt x="432" y="16" on="1"/>
        <pt x="402" y="15" on="1"/>
        <pt x="340" y="15" on="0"/>
        <pt x="340" y="67" on="1"/>
        <pt x="340" y="106" on="0"/>
        <pt x="407" y="251" on="0"/>
        <pt x="1051" y="1188" on="0"/>
        <pt x="1117" y="1251" on="0"/>
        <pt x="1133" y="1255" on="1"/>
        <pt x="1145" y="1264" on="0"/>
        <pt x="1149" y="1264" on="1"/>
        <pt x="1167" y="1261" on="1"/>
        <pt x="1184" y="1264" on="1"/>
        <pt x="1193" y="1264" on="0"/>
        <pt x="1207" y="1249" on="0"/>
        <pt x="1210" y="1247" on="1"/>
        <pt x="1252" y="1216" on="0"/>
        <pt x="1252" y="1174" on="0"/>
        <pt x="1231" y="1135" on="0"/>
        <pt x="1137" y="999" on="0"/>
        <pt x="984" y="782" on="0"/>
        <pt x="950" y="733" on="1"/>
        <pt x="1032" y="737" on="0"/>
        <pt x="1262" y="829" on="0"/>
        <pt x="1463" y="958" on="0"/>
        <pt x="1606" y="1109" on="0"/>
        <pt x="1606" y="1165" on="1"/>
        <pt x="1606" y="1195" on="0"/>
        <pt x="1544" y="1244" on="0"/>
        <pt x="1497" y="1258" on="1"/>
        <pt x="1403" y="1286" on="0"/>
        <pt x="1167" y="1286" on="0"/>
        <pt x="805" y="1184" on="0"/>
        <pt x="639" y="1091" on="0"/>
        <pt x="565" y="1026" on="0"/>
        <pt x="565" y="1013" on="1"/>
        <pt x="565" y="1006" on="0"/>
        <pt x="606" y="1006" on="0"/>
        <pt x="638" y="1027" on="0"/>
      </contour>
      <contour>
        <pt x="902" y="-240" on="1"/>
        <pt x="902" y="-315" on="0"/>
        <pt x="727" y="-483" on="0"/>
        <pt x="657" y="-483" on="1"/>
        <pt x="638" y="-483" on="0"/>
        <pt x="613" y="-459" on="0"/>
        <pt x="599" y="-455" on="0"/>
        <pt x="599" y="-424" on="0"/>
        <pt x="609" y="-416" on="0"/>
        <pt x="645" y="-403" on="0"/>
        <pt x="662" y="-395" on="1"/>
        <pt x="711" y="-373" on="0"/>
        <pt x="711" y="-342" on="1"/>
        <pt x="711" y="-331" on="0"/>
        <pt x="668" y="-283" on="0"/>
        <pt x="668" y="-259" on="1"/>
        <pt x="668" y="-207" on="0"/>
        <pt x="750" y="-142" on="0"/>
        <pt x="853" y="-142" on="0"/>
        <pt x="902" y="-200" on="0"/>
      </contour>
    </TTGlyph>
    <TTGlyph name="S" xMin="141" yMin="-29" xMax="1679" yMax="1452">
      <contour>
        <pt x="273" y="275" on="1"/>
        <pt x="260" y="248" on="1"/>
        <pt x="260" y="219" on="0"/>
        <pt x="423" y="166" on="0"/>
        <pt x="618" y="166" on="0"/>
        <pt x="852" y="224" on="0"/>
        <pt x="1025" y="308" on="0"/>
        <pt x="1138" y="400" on="0"/>
        <pt x="1138" y="434" on="1"/>
        <pt x="1138" y="477" on="0"/>
        <pt x="938" y="551" on="0"/>
        <pt x="557" y="640" on="0"/>
        <pt x="380" y="776" on="0"/>
        <pt x="380" y="971" on="0"/>
        <pt x="520" y="1149" on="0"/>
        <pt x="745" y="1287" on="0"/>
        <pt x="878" y="1341" on="1"/>
        <pt x="1153" y="1452" on="0"/>
        <pt x="1388" y="1452" on="1"/>
        <pt x="1478" y="1452" on="0"/>
        <pt x="1547" y="1436" on="1"/>
        <pt x="1679" y="1405" on="0"/>
        <pt x="1679" y="1303" on="0"/>
        <pt x="1661" y="1266" on="0"/>
        <pt x="1650" y="1254" on="0"/>
        <pt x="1633" y="1242" on="0"/>
        <pt x="1629" y="1239" on="1"/>
        <pt x="1585" y="1202" on="0"/>
        <pt x="1388" y="1193" on="1"/>
        <pt x="1320" y="1190" on="0"/>
        <pt x="1308" y="1182" on="0"/>
        <pt x="1299" y="1182" on="0"/>
        <pt x="1287" y="1198" on="0"/>
        <pt x="1287" y="1234" on="0"/>
        <pt x="1326" y="1282" on="1"/>
        <pt x="1204" y="1275" on="0"/>
        <pt x="927" y="1177" on="0"/>
        <pt x="723" y="1054" on="0"/>
        <pt x="587" y="935" on="0"/>
        <pt x="587" y="886" on="0"/>
        <pt x="602" y="870" on="1"/>
        <pt x="644" y="825" on="0"/>
        <pt x="835" y="776" on="1"/>
        <pt x="1033" y="725" on="0"/>
        <pt x="1165" y="663" on="0"/>
        <pt x="1252" y="607" on="0"/>
        <pt x="1278" y="578" on="1"/>
        <pt x="1339" y="508" on="0"/>
        <pt x="1339" y="364" on="0"/>
        <pt x="1262" y="238" on="0"/>
        <pt x="1107" y="120" on="0"/>
        <pt x="1002" y="74" on="1"/>
        <pt x="772" y="-29" on="0"/>
        <pt x="454" y="-29" on="1"/>
        <pt x="222" y="-29" on="0"/>
        <pt x="158" y="94" on="1"/>
        <pt x="141" y="125" on="0"/>
        <pt x="141" y="192" on="0"/>
        <pt x="172" y="246" on="0"/>
        <pt x="194" y="260" on="1"/>
        <pt x="237" y="287" on="0"/>
        <pt x="273" y="287" on="0"/>
      </contour>
    </TTGlyph>
    <TTGlyph name="Sacute" xMin="141" yMin="-29" xMax="1695" yMax="1952">
      <component glyphName="S" x="0" y="0" flags="0x1004"/>
      <component glyphName="acute" x="703" y="662" flags="0x1004"/>
    </TTGlyph>
    <TTGlyph name="Scaron" xMin="141" yMin="-29" xMax="1712" yMax="1956">
      <component glyphName="S" x="0" y="0" flags="0x1004"/>
      <component glyphName="caron" x="594" y="662" flags="0x1004"/>
    </TTGlyph>
    <TTGlyph name="Scedilla" xMin="141" yMin="-457" xMax="1679" yMax="1452">
      <contour>
        <pt x="273" y="275" on="1"/>
        <pt x="260" y="248" on="1"/>
        <pt x="260" y="219" on="0"/>
        <pt x="423" y="166" on="0"/>
        <pt x="618" y="166" on="0"/>
        <pt x="852" y="224" on="0"/>
        <pt x="1025" y="308" on="0"/>
        <pt x="1138" y="400" on="0"/>
        <pt x="1138" y="434" on="1"/>
        <pt x="1138" y="477" on="0"/>
        <pt x="938" y="551" on="0"/>
        <pt x="557" y="640" on="0"/>
        <pt x="380" y="776" on="0"/>
        <pt x="380" y="971" on="0"/>
        <pt x="520" y="1149" on="0"/>
        <pt x="745" y="1287" on="0"/>
        <pt x="878" y="1341" on="1"/>
        <pt x="1153" y="1452" on="0"/>
        <pt x="1388" y="1452" on="1"/>
        <pt x="1478" y="1452" on="0"/>
        <pt x="1547" y="1436" on="1"/>
        <pt x="1679" y="1405" on="0"/>
        <pt x="1679" y="1303" on="0"/>
        <pt x="1661" y="1266" on="0"/>
        <pt x="1650" y="1254" on="0"/>
        <pt x="1633" y="1242" on="0"/>
        <pt x="1629" y="1239" on="1"/>
        <pt x="1585" y="1202" on="0"/>
        <pt x="1388" y="1193" on="1"/>
        <pt x="1320" y="1190" on="0"/>
        <pt x="1308" y="1182" on="0"/>
        <pt x="1299" y="1182" on="0"/>
        <pt x="1287" y="1198" on="0"/>
        <pt x="1287" y="1234" on="0"/>
        <pt x="1326" y="1282" on="1"/>
        <pt x="1204" y="1275" on="0"/>
        <pt x="927" y="1177" on="0"/>
        <pt x="723" y="1054" on="0"/>
        <pt x="587" y="935" on="0"/>
        <pt x="587" y="886" on="0"/>
        <pt x="602" y="870" on="1"/>
        <pt x="644" y="825" on="0"/>
        <pt x="835" y="776" on="1"/>
        <pt x="1033" y="725" on="0"/>
        <pt x="1165" y="663" on="0"/>
        <pt x="1252" y="607" on="0"/>
        <pt x="1278" y="578" on="1"/>
        <pt x="1339" y="508" on="0"/>
        <pt x="1339" y="358" on="0"/>
        <pt x="1243" y="220" on="0"/>
        <pt x="1071" y="96" on="0"/>
        <pt x="805" y="1" on="0"/>
        <pt x="649" y="-17" on="1"/>
        <pt x="613" y="-59" on="0"/>
        <pt x="613" y="-80" on="1"/>
        <pt x="613" y="-100" on="0"/>
        <pt x="733" y="-125" on="0"/>
        <pt x="787" y="-173" on="0"/>
        <pt x="787" y="-240" on="0"/>
        <pt x="776" y="-270" on="1"/>
        <pt x="740" y="-368" on="0"/>
        <pt x="576" y="-457" on="0"/>
        <pt x="473" y="-457" on="1"/>
        <pt x="427" y="-457" on="0"/>
        <pt x="399" y="-441" on="0"/>
        <pt x="399" y="-365" on="0"/>
        <pt x="433" y="-307" on="0"/>
        <pt x="462" y="-307" on="0"/>
        <pt x="467" y="-322" on="0"/>
        <pt x="471" y="-322" on="1"/>
        <pt x="605" y="-312" on="0"/>
        <pt x="650" y="-285" on="1"/>
        <pt x="669" y="-274" on="0"/>
        <pt x="669" y="-250" on="0"/>
        <pt x="634" y="-231" on="0"/>
        <pt x="585" y="-216" on="0"/>
        <pt x="560" y="-206" on="1"/>
        <pt x="501" y="-180" on="0"/>
        <pt x="501" y="-78" on="0"/>
        <pt x="542" y="-26" on="1"/>
        <pt x="498" y="-29" on="0"/>
        <pt x="370" y="-29" on="0"/>
        <pt x="243" y="5" on="0"/>
        <pt x="208" y="34" on="1"/>
        <pt x="141" y="89" on="0"/>
        <pt x="141" y="158" on="1"/>
        <pt x="141" y="242" on="0"/>
        <pt x="232" y="280" on="1"/>
        <pt x="248" y="287" on="0"/>
        <pt x="273" y="287" on="0"/>
      </contour>
    </TTGlyph>
    <TTGlyph name="Scircumflex" xMin="141" yMin="-29" xMax="1679" yMax="1957">
      <component glyphName="S" x="0" y="0" flags="0x1004"/>
      <component glyphName="circumflex" x="625" y="662" flags="0x1004"/>
    </TTGlyph>
    <TTGlyph name="T" xMin="330" yMin="-49" xMax="1761" yMax="1481">
      <contour>
        <pt x="533" y="318" on="1"/>
        <pt x="528" y="297" on="1"/>
        <pt x="528" y="291" on="0"/>
        <pt x="539" y="281" on="0"/>
        <pt x="555" y="281" on="0"/>
        <pt x="560" y="289" on="1"/>
        <pt x="709" y="487" on="0"/>
        <pt x="905" y="788" on="0"/>
        <pt x="996" y="930" on="0"/>
        <pt x="1023" y="972" on="1"/>
        <pt x="1095" y="1082" on="0"/>
        <pt x="1166" y="1169" on="1"/>
        <pt x="896" y="1101" on="0"/>
        <pt x="590" y="1101" on="0"/>
        <pt x="456" y="1140" on="0"/>
        <pt x="414" y="1189" on="0"/>
        <pt x="414" y="1240" on="0"/>
        <pt x="416" y="1264" on="1"/>
        <pt x="420" y="1314" on="0"/>
        <pt x="533" y="1378" on="0"/>
        <pt x="607" y="1378" on="0"/>
        <pt x="607" y="1356" on="0"/>
        <pt x="574" y="1319" on="0"/>
        <pt x="574" y="1312" on="1"/>
        <pt x="574" y="1280" on="0"/>
        <pt x="1036" y="1280" on="0"/>
        <pt x="1336" y="1341" on="1"/>
        <pt x="1508" y="1481" on="0"/>
        <pt x="1633" y="1481" on="1"/>
        <pt x="1716" y="1481" on="0"/>
        <pt x="1743" y="1434" on="1"/>
        <pt x="1761" y="1406" on="0"/>
        <pt x="1761" y="1350" on="0"/>
        <pt x="1696" y="1294" on="0"/>
        <pt x="1641" y="1274" on="1"/>
        <pt x="1541" y="1238" on="0"/>
        <pt x="1405" y="1217" on="1"/>
        <pt x="1348" y="1144" on="0"/>
        <pt x="1139" y="836" on="0"/>
        <pt x="1063" y="728" on="0"/>
        <pt x="894" y="452" on="0"/>
        <pt x="770" y="251" on="0"/>
        <pt x="700" y="153" on="1"/>
        <pt x="557" y="-49" on="0"/>
        <pt x="445" y="-49" on="1"/>
        <pt x="398" y="-49" on="0"/>
        <pt x="330" y="1" on="0"/>
        <pt x="330" y="114" on="0"/>
        <pt x="455" y="283" on="0"/>
        <pt x="513" y="331" on="0"/>
        <pt x="533" y="331" on="0"/>
      </contour>
    </TTGlyph>
    <TTGlyph name="Tbar" xMin="330" yMin="-49" xMax="1761" yMax="1481">
      <contour>
        <pt x="817" y="655" on="1"/>
        <pt x="537" y="651" on="0"/>
        <pt x="509" y="647" on="1"/>
        <pt x="491" y="647" on="0"/>
        <pt x="491" y="687" on="1"/>
        <pt x="491" y="823" on="0"/>
        <pt x="563" y="823" on="1"/>
        <pt x="570" y="823" on="0"/>
        <pt x="921" y="814" on="1"/>
        <pt x="930" y="829" on="0"/>
        <pt x="990" y="921" on="0"/>
        <pt x="1013" y="958" on="0"/>
        <pt x="1065" y="1035" on="0"/>
        <pt x="1082" y="1058" on="1"/>
        <pt x="1125" y="1121" on="0"/>
        <pt x="1166" y="1169" on="1"/>
        <pt x="896" y="1101" on="0"/>
        <pt x="590" y="1101" on="0"/>
        <pt x="456" y="1140" on="0"/>
        <pt x="414" y="1189" on="0"/>
        <pt x="414" y="1240" on="0"/>
        <pt x="416" y="1264" on="1"/>
        <pt x="420" y="1314" on="0"/>
        <pt x="533" y="1378" on="0"/>
        <pt x="607" y="1378" on="0"/>
        <pt x="607" y="1356" on="0"/>
        <pt x="574" y="1319" on="0"/>
        <pt x="574" y="1312" on="1"/>
        <pt x="574" y="1280" on="0"/>
        <pt x="1036" y="1280" on="0"/>
        <pt x="1336" y="1341" on="1"/>
        <pt x="1508" y="1481" on="0"/>
        <pt x="1633" y="1481" on="1"/>
        <pt x="1716" y="1481" on="0"/>
        <pt x="1743" y="1434" on="1"/>
        <pt x="1761" y="1406" on="0"/>
        <pt x="1761" y="1350" on="0"/>
        <pt x="1696" y="1294" on="0"/>
        <pt x="1641" y="1274" on="1"/>
        <pt x="1541" y="1238" on="0"/>
        <pt x="1405" y="1217" on="1"/>
        <pt x="1348" y="1144" on="0"/>
        <pt x="1139" y="836" on="0"/>
        <pt x="1127" y="819" on="1"/>
        <pt x="1376" y="840" on="0"/>
        <pt x="1454" y="861" on="0"/>
        <pt x="1467" y="861" on="1"/>
        <pt x="1489" y="861" on="0"/>
        <pt x="1489" y="770" on="0"/>
        <pt x="1436" y="712" on="0"/>
        <pt x="1363" y="681" on="0"/>
        <pt x="1314" y="672" on="1"/>
        <pt x="1240" y="657" on="0"/>
        <pt x="1082" y="657" on="0"/>
        <pt x="1020" y="656" on="1"/>
        <pt x="985" y="601" on="0"/>
        <pt x="877" y="424" on="0"/>
        <pt x="807" y="311" on="0"/>
        <pt x="713" y="166" on="0"/>
        <pt x="640" y="76" on="0"/>
        <pt x="599" y="34" on="1"/>
        <pt x="519" y="-49" on="0"/>
        <pt x="445" y="-49" on="1"/>
        <pt x="398" y="-49" on="0"/>
        <pt x="330" y="1" on="0"/>
        <pt x="330" y="114" on="0"/>
        <pt x="455" y="283" on="0"/>
        <pt x="513" y="331" on="0"/>
        <pt x="533" y="331" on="0"/>
        <pt x="533" y="318" on="1"/>
        <pt x="528" y="297" on="1"/>
        <pt x="528" y="291" on="0"/>
        <pt x="539" y="281" on="0"/>
        <pt x="555" y="281" on="0"/>
        <pt x="561" y="290" on="0"/>
        <pt x="591" y="331" on="0"/>
        <pt x="636" y="393" on="0"/>
        <pt x="666" y="435" on="1"/>
        <pt x="719" y="509" on="0"/>
      </contour>
    </TTGlyph>
    <TTGlyph name="Tcaron" xMin="330" yMin="-49" xMax="1761" yMax="1884">
      <component glyphName="T" x="0" y="0" flags="0x1004"/>
      <component glyphName="caron" x="327" y="590" flags="0x1004"/>
    </TTGlyph>
    <TTGlyph name="Tcommaaccent" xMin="209" yMin="-513" xMax="1761" yMax="1481">
      <contour>
        <pt x="533" y="318" on="1"/>
        <pt x="528" y="297" on="1"/>
        <pt x="528" y="291" on="0"/>
        <pt x="539" y="281" on="0"/>
        <pt x="555" y="281" on="0"/>
        <pt x="560" y="289" on="1"/>
        <pt x="709" y="487" on="0"/>
        <pt x="905" y="788" on="0"/>
        <pt x="996" y="930" on="0"/>
        <pt x="1023" y="972" on="1"/>
        <pt x="1095" y="1082" on="0"/>
        <pt x="1166" y="1169" on="1"/>
        <pt x="896" y="1101" on="0"/>
        <pt x="590" y="1101" on="0"/>
        <pt x="456" y="1140" on="0"/>
        <pt x="414" y="1189" on="0"/>
        <pt x="414" y="1240" on="0"/>
        <pt x="416" y="1264" on="1"/>
        <pt x="420" y="1314" on="0"/>
        <pt x="533" y="1378" on="0"/>
        <pt x="607" y="1378" on="0"/>
        <pt x="607" y="1356" on="0"/>
        <pt x="574" y="1319" on="0"/>
        <pt x="574" y="1312" on="1"/>
        <pt x="574" y="1280" on="0"/>
        <pt x="1036" y="1280" on="0"/>
        <pt x="1336" y="1341" on="1"/>
        <pt x="1508" y="1481" on="0"/>
        <pt x="1633" y="1481" on="1"/>
        <pt x="1716" y="1481" on="0"/>
        <pt x="1743" y="1434" on="1"/>
        <pt x="1761" y="1406" on="0"/>
        <pt x="1761" y="1350" on="0"/>
        <pt x="1696" y="1294" on="0"/>
        <pt x="1641" y="1274" on="1"/>
        <pt x="1541" y="1238" on="0"/>
        <pt x="1405" y="1217" on="1"/>
        <pt x="1348" y="1144" on="0"/>
        <pt x="1139" y="836" on="0"/>
        <pt x="1063" y="728" on="0"/>
        <pt x="894" y="452" on="0"/>
        <pt x="770" y="251" on="0"/>
        <pt x="700" y="153" on="1"/>
        <pt x="557" y="-49" on="0"/>
        <pt x="445" y="-49" on="1"/>
        <pt x="398" y="-49" on="0"/>
        <pt x="330" y="1" on="0"/>
        <pt x="330" y="114" on="0"/>
        <pt x="455" y="283" on="0"/>
        <pt x="513" y="331" on="0"/>
        <pt x="533" y="331" on="0"/>
      </contour>
      <contour>
        <pt x="512" y="-270" on="1"/>
        <pt x="512" y="-345" on="0"/>
        <pt x="337" y="-513" on="0"/>
        <pt x="267" y="-513" on="1"/>
        <pt x="248" y="-513" on="0"/>
        <pt x="223" y="-489" on="0"/>
        <pt x="209" y="-485" on="0"/>
        <pt x="209" y="-454" on="0"/>
        <pt x="219" y="-446" on="0"/>
        <pt x="255" y="-433" on="0"/>
        <pt x="272" y="-425" on="1"/>
        <pt x="321" y="-403" on="0"/>
        <pt x="321" y="-372" on="1"/>
        <pt x="321" y="-361" on="0"/>
        <pt x="278" y="-313" on="0"/>
        <pt x="278" y="-289" on="1"/>
        <pt x="278" y="-237" on="0"/>
        <pt x="360" y="-172" on="0"/>
        <pt x="463" y="-172" on="0"/>
        <pt x="512" y="-230" on="0"/>
      </contour>
    </TTGlyph>
    <TTGlyph name="Thorn" xMin="280" yMin="-3" xMax="1759" yMax="1483">
      <contour>
        <pt x="495" y="770" on="1"/>
        <pt x="495" y="739" on="0"/>
        <pt x="561" y="739" on="0"/>
        <pt x="587" y="750" on="1"/>
        <pt x="588" y="750" on="1"/>
        <pt x="593" y="750" on="0"/>
        <pt x="593" y="709" on="0"/>
        <pt x="589" y="705" on="1"/>
        <pt x="498" y="631" on="0"/>
        <pt x="422" y="631" on="1"/>
        <pt x="280" y="631" on="0"/>
        <pt x="280" y="774" on="1"/>
        <pt x="280" y="836" on="0"/>
        <pt x="407" y="973" on="0"/>
        <pt x="623" y="1091" on="0"/>
        <pt x="945" y="1177" on="0"/>
        <pt x="1122" y="1186" on="1"/>
        <pt x="1285" y="1415" on="0"/>
        <pt x="1336" y="1472" on="0"/>
        <pt x="1382" y="1483" on="0"/>
        <pt x="1433" y="1483" on="1"/>
        <pt x="1482" y="1483" on="1"/>
        <pt x="1495" y="1483" on="0"/>
        <pt x="1495" y="1440" on="0"/>
        <pt x="1490" y="1434" on="1"/>
        <pt x="1395" y="1296" on="0"/>
        <pt x="1320" y="1182" on="1"/>
        <pt x="1523" y="1163" on="0"/>
        <pt x="1759" y="1001" on="0"/>
        <pt x="1759" y="794" on="0"/>
        <pt x="1604" y="566" on="0"/>
        <pt x="1371" y="397" on="0"/>
        <pt x="1087" y="289" on="0"/>
        <pt x="862" y="289" on="0"/>
        <pt x="800" y="379" on="1"/>
        <pt x="579" y="29" on="1"/>
        <pt x="558" y="6" on="0"/>
        <pt x="534" y="6" on="1"/>
        <pt x="485" y="-3" on="1"/>
        <pt x="461" y="-1" on="1"/>
        <pt x="444" y="-1" on="1"/>
        <pt x="385" y="-1" on="0"/>
        <pt x="385" y="36" on="1"/>
        <pt x="385" y="120" on="0"/>
        <pt x="1009" y="1022" on="1"/>
        <pt x="875" y="992" on="0"/>
        <pt x="734" y="932" on="1"/>
        <pt x="495" y="830" on="0"/>
      </contour>
      <contour>
        <pt x="866" y="483" on="1"/>
        <pt x="874" y="467" on="0"/>
        <pt x="910" y="459" on="0"/>
        <pt x="934" y="459" on="1"/>
        <pt x="960" y="459" on="1"/>
        <pt x="1052" y="459" on="0"/>
        <pt x="1266" y="548" on="0"/>
        <pt x="1428" y="672" on="0"/>
        <pt x="1537" y="807" on="0"/>
        <pt x="1537" y="913" on="0"/>
        <pt x="1493" y="955" on="1"/>
        <pt x="1413" y="1031" on="0"/>
        <pt x="1230" y="1042" on="1"/>
        <pt x="972" y="652" on="0"/>
      </contour>
    </TTGlyph>
    <TTGlyph name="U" xMin="192" yMin="-14" xMax="1881" yMax="1448">
      <contour>
        <pt x="1577" y="553" on="1"/>
        <pt x="1604" y="553" on="0"/>
        <pt x="1604" y="411" on="0"/>
        <pt x="1595" y="387" on="1"/>
        <pt x="1565" y="310" on="0"/>
        <pt x="1346" y="119" on="0"/>
        <pt x="1085" y="-14" on="0"/>
        <pt x="1001" y="-14" on="1"/>
        <pt x="961" y="-14" on="0"/>
        <pt x="906" y="48" on="0"/>
        <pt x="906" y="98" on="1"/>
        <pt x="906" y="187" on="0"/>
        <pt x="1110" y="553" on="0"/>
        <pt x="1255" y="752" on="1"/>
        <pt x="1014" y="472" on="0"/>
        <pt x="813" y="276" on="0"/>
        <pt x="655" y="137" on="0"/>
        <pt x="592" y="95" on="1"/>
        <pt x="442" y="-4" on="0"/>
        <pt x="266" y="-4" on="0"/>
        <pt x="192" y="93" on="0"/>
        <pt x="192" y="152" on="1"/>
        <pt x="192" y="325" on="0"/>
        <pt x="597" y="952" on="0"/>
        <pt x="767" y="1151" on="1"/>
        <pt x="623" y="1024" on="0"/>
        <pt x="514" y="1024" on="0"/>
        <pt x="460" y="1091" on="0"/>
        <pt x="460" y="1176" on="0"/>
        <pt x="540" y="1251" on="0"/>
        <pt x="577" y="1251" on="0"/>
        <pt x="577" y="1245" on="0"/>
        <pt x="547" y="1208" on="0"/>
        <pt x="547" y="1194" on="0"/>
        <pt x="560" y="1194" on="1"/>
        <pt x="599" y="1194" on="0"/>
        <pt x="861" y="1352" on="0"/>
        <pt x="954" y="1427" on="1"/>
        <pt x="979" y="1448" on="0"/>
        <pt x="1044" y="1448" on="0"/>
        <pt x="1074" y="1432" on="1"/>
        <pt x="1076" y="1437" on="0"/>
        <pt x="1106" y="1423" on="0"/>
        <pt x="1136" y="1393" on="0"/>
        <pt x="1136" y="1367" on="0"/>
        <pt x="1128" y="1356" on="1"/>
        <pt x="712" y="818" on="0"/>
        <pt x="605" y="655" on="1"/>
        <pt x="388" y="324" on="0"/>
        <pt x="388" y="225" on="1"/>
        <pt x="388" y="190" on="0"/>
        <pt x="447" y="190" on="0"/>
        <pt x="584" y="302" on="1"/>
        <pt x="960" y="608" on="0"/>
        <pt x="1638" y="1382" on="1"/>
        <pt x="1665" y="1413" on="0"/>
        <pt x="1689" y="1411" on="1"/>
        <pt x="1698" y="1411" on="1"/>
        <pt x="1702" y="1411" on="0"/>
        <pt x="1739" y="1418" on="0"/>
        <pt x="1781" y="1418" on="1"/>
        <pt x="1881" y="1418" on="0"/>
        <pt x="1881" y="1381" on="1"/>
        <pt x="1881" y="1365" on="0"/>
        <pt x="1822" y="1285" on="0"/>
        <pt x="1636" y="1021" on="0"/>
        <pt x="1359" y="615" on="0"/>
        <pt x="1158" y="275" on="0"/>
        <pt x="1158" y="229" on="1"/>
        <pt x="1158" y="228" on="0"/>
        <pt x="1165" y="228" on="0"/>
        <pt x="1193" y="242" on="1"/>
        <pt x="1279" y="287" on="0"/>
        <pt x="1510" y="483" on="0"/>
        <pt x="1571" y="553" on="0"/>
      </contour>
    </TTGlyph>
    <TTGlyph name="Uacute" xMin="192" yMin="-14" xMax="1881" yMax="1929">
      <component glyphName="U" x="0" y="0" flags="0x1004"/>
      <component glyphName="acute" x="821" y="639" flags="0x1004"/>
    </TTGlyph>
    <TTGlyph name="Ubreve" xMin="192" yMin="-14" xMax="1881" yMax="1898">
      <component glyphName="U" x="0" y="0" flags="0x1004"/>
      <component glyphName="breve" x="680" y="639" flags="0x1004"/>
    </TTGlyph>
    <TTGlyph name="Ucircumflex" xMin="192" yMin="-14" xMax="1881" yMax="1934">
      <component glyphName="U" x="0" y="0" flags="0x1004"/>
      <component glyphName="circumflex" x="743" y="639" flags="0x1004"/>
    </TTGlyph>
    <TTGlyph name="Udieresis" xMin="192" yMin="-14" xMax="1881" yMax="1810">
      <component glyphName="U" x="0" y="0" flags="0x1004"/>
      <component glyphName="dieresis" x="755" y="639" flags="0x1004"/>
    </TTGlyph>
    <TTGlyph name="Ugrave" xMin="192" yMin="-14" xMax="1881" yMax="1933">
      <component glyphName="U" x="0" y="0" flags="0x1004"/>
      <component glyphName="grave" x="636" y="639" flags="0x1004"/>
    </TTGlyph>
    <TTGlyph name="Uhungarumlaut" xMin="192" yMin="-14" xMax="1886" yMax="1931">
      <component glyphName="U" x="0" y="0" flags="0x1004"/>
      <component glyphName="hungarumlaut" x="815" y="639" flags="0x1004"/>
    </TTGlyph>
    <TTGlyph name="Umacron" xMin="192" yMin="-14" xMax="1881" yMax="1796">
      <component glyphName="U" x="0" y="0" flags="0x1004"/>
      <component glyphName="macron" x="749" y="639" flags="0x1004"/>
    </TTGlyph>
    <TTGlyph name="Uogonek" xMin="192" yMin="-367" xMax="1881" yMax="1448">
      <contour>
        <pt x="1577" y="553" on="1"/>
        <pt x="1604" y="553" on="0"/>
        <pt x="1604" y="411" on="0"/>
        <pt x="1578" y="342" on="0"/>
        <pt x="1465" y="231" on="0"/>
        <pt x="1359" y="154" on="0"/>
        <pt x="1176" y="28" on="0"/>
        <pt x="1095" y="-31" on="0"/>
        <pt x="999" y="-151" on="0"/>
        <pt x="999" y="-203" on="0"/>
        <pt x="1011" y="-212" on="1"/>
        <pt x="1063" y="-212" on="0"/>
        <pt x="1235" y="-142" on="0"/>
        <pt x="1255" y="-142" on="1"/>
        <pt x="1269" y="-142" on="0"/>
        <pt x="1269" y="-208" on="0"/>
        <pt x="1263" y="-228" on="1"/>
        <pt x="1230" y="-290" on="0"/>
        <pt x="1082" y="-367" on="0"/>
        <pt x="986" y="-367" on="1"/>
        <pt x="948" y="-367" on="0"/>
        <pt x="876" y="-278" on="0"/>
        <pt x="876" y="-191" on="0"/>
        <pt x="941" y="-65" on="0"/>
        <pt x="984" y="-12" on="1"/>
        <pt x="950" y="-6" on="0"/>
        <pt x="906" y="53" on="0"/>
        <pt x="906" y="98" on="1"/>
        <pt x="906" y="187" on="0"/>
        <pt x="1110" y="553" on="0"/>
        <pt x="1255" y="752" on="1"/>
        <pt x="1014" y="472" on="0"/>
        <pt x="813" y="276" on="0"/>
        <pt x="655" y="137" on="0"/>
        <pt x="592" y="95" on="1"/>
        <pt x="442" y="-4" on="0"/>
        <pt x="266" y="-4" on="0"/>
        <pt x="192" y="93" on="0"/>
        <pt x="192" y="152" on="1"/>
        <pt x="192" y="325" on="0"/>
        <pt x="597" y="952" on="0"/>
        <pt x="767" y="1151" on="1"/>
        <pt x="623" y="1024" on="0"/>
        <pt x="514" y="1024" on="0"/>
        <pt x="460" y="1091" on="0"/>
        <pt x="460" y="1176" on="0"/>
        <pt x="540" y="1251" on="0"/>
        <pt x="577" y="1251" on="0"/>
        <pt x="577" y="1245" on="0"/>
        <pt x="547" y="1208" on="0"/>
        <pt x="547" y="1194" on="0"/>
        <pt x="560" y="1194" on="1"/>
        <pt x="599" y="1194" on="0"/>
        <pt x="861" y="1352" on="0"/>
        <pt x="954" y="1427" on="1"/>
        <pt x="979" y="1448" on="0"/>
        <pt x="1044" y="1448" on="0"/>
        <pt x="1074" y="1432" on="1"/>
        <pt x="1076" y="1437" on="0"/>
        <pt x="1106" y="1423" on="0"/>
        <pt x="1136" y="1393" on="0"/>
        <pt x="1136" y="1367" on="0"/>
        <pt x="1128" y="1356" on="1"/>
        <pt x="712" y="818" on="0"/>
        <pt x="605" y="655" on="1"/>
        <pt x="388" y="324" on="0"/>
        <pt x="388" y="225" on="1"/>
        <pt x="388" y="190" on="0"/>
        <pt x="447" y="190" on="0"/>
        <pt x="584" y="302" on="1"/>
        <pt x="960" y="608" on="0"/>
        <pt x="1638" y="1382" on="1"/>
        <pt x="1665" y="1413" on="0"/>
        <pt x="1689" y="1411" on="1"/>
        <pt x="1698" y="1411" on="1"/>
        <pt x="1702" y="1411" on="0"/>
        <pt x="1739" y="1418" on="0"/>
        <pt x="1781" y="1418" on="1"/>
        <pt x="1881" y="1418" on="0"/>
        <pt x="1881" y="1381" on="1"/>
        <pt x="1881" y="1365" on="0"/>
        <pt x="1822" y="1285" on="0"/>
        <pt x="1636" y="1021" on="0"/>
        <pt x="1359" y="615" on="0"/>
        <pt x="1158" y="275" on="0"/>
        <pt x="1158" y="229" on="1"/>
        <pt x="1158" y="228" on="0"/>
        <pt x="1165" y="228" on="0"/>
        <pt x="1193" y="242" on="1"/>
        <pt x="1279" y="287" on="0"/>
        <pt x="1510" y="483" on="0"/>
        <pt x="1571" y="553" on="0"/>
      </contour>
    </TTGlyph>
    <TTGlyph name="Uring" xMin="192" yMin="-14" xMax="1881" yMax="1945">
      <component glyphName="U" x="0" y="0" flags="0x1004"/>
      <component glyphName="ring" x="802" y="639" flags="0x1004"/>
    </TTGlyph>
    <TTGlyph name="Utilde" xMin="192" yMin="-14" xMax="1881" yMax="1827">
      <component glyphName="U" x="0" y="0" flags="0x1004"/>
      <component glyphName="tilde" x="692" y="639" flags="0x1004"/>
    </TTGlyph>
    <TTGlyph name="V" xMin="211" yMin="-14" xMax="1868" yMax="1495">
      <contour>
        <pt x="1640" y="1415" on="1"/>
        <pt x="1607" y="1408" on="1"/>
        <pt x="1596" y="1408" on="0"/>
        <pt x="1596" y="1436" on="0"/>
        <pt x="1604" y="1440" on="1"/>
        <pt x="1700" y="1495" on="0"/>
        <pt x="1788" y="1495" on="1"/>
        <pt x="1827" y="1495" on="0"/>
        <pt x="1868" y="1436" on="0"/>
        <pt x="1868" y="1337" on="0"/>
        <pt x="1729" y="1091" on="0"/>
        <pt x="1497" y="780" on="0"/>
        <pt x="1141" y="411" on="0"/>
        <pt x="782" y="130" on="0"/>
        <pt x="499" y="-14" on="0"/>
        <pt x="373" y="-14" on="1"/>
        <pt x="292" y="-14" on="0"/>
        <pt x="211" y="97" on="0"/>
        <pt x="211" y="238" on="0"/>
        <pt x="306" y="459" on="0"/>
        <pt x="440" y="676" on="0"/>
        <pt x="528" y="796" on="1"/>
        <pt x="660" y="979" on="0"/>
        <pt x="805" y="1149" on="1"/>
        <pt x="644" y="1015" on="0"/>
        <pt x="527" y="969" on="0"/>
        <pt x="442" y="969" on="0"/>
        <pt x="395" y="1040" on="0"/>
        <pt x="395" y="1123" on="0"/>
        <pt x="462" y="1206" on="0"/>
        <pt x="492" y="1206" on="1"/>
        <pt x="503" y="1206" on="0"/>
        <pt x="503" y="1190" on="0"/>
        <pt x="488" y="1169" on="0"/>
        <pt x="488" y="1165" on="1"/>
        <pt x="488" y="1154" on="0"/>
        <pt x="522" y="1154" on="0"/>
        <pt x="590" y="1184" on="0"/>
        <pt x="859" y="1364" on="0"/>
        <pt x="922" y="1423" on="1"/>
        <pt x="947" y="1445" on="0"/>
        <pt x="1040" y="1445" on="0"/>
        <pt x="1134" y="1400" on="0"/>
        <pt x="1134" y="1377" on="1"/>
        <pt x="1134" y="1372" on="0"/>
        <pt x="1130" y="1363" on="0"/>
        <pt x="1126" y="1332" on="0"/>
        <pt x="1099" y="1289" on="0"/>
        <pt x="905" y="1018" on="1"/>
        <pt x="420" y="342" on="0"/>
        <pt x="420" y="219" on="1"/>
        <pt x="420" y="174" on="0"/>
        <pt x="455" y="174" on="1"/>
        <pt x="503" y="174" on="0"/>
        <pt x="779" y="349" on="0"/>
        <pt x="1015" y="562" on="0"/>
        <pt x="1243" y="798" on="0"/>
        <pt x="1485" y="1076" on="0"/>
        <pt x="1653" y="1336" on="0"/>
        <pt x="1653" y="1403" on="1"/>
        <pt x="1653" y="1415" on="0"/>
      </contour>
    </TTGlyph>
    <TTGlyph name="W" xMin="145" yMin="-25" xMax="2285" yMax="1485">
      <contour>
        <pt x="1973" y="1384" on="1"/>
        <pt x="1962" y="1384" on="0"/>
        <pt x="1962" y="1414" on="0"/>
        <pt x="1979" y="1423" on="0"/>
        <pt x="2020" y="1444" on="0"/>
        <pt x="2036" y="1451" on="0"/>
        <pt x="2070" y="1467" on="0"/>
        <pt x="2091" y="1473" on="0"/>
        <pt x="2106" y="1478" on="1"/>
        <pt x="2131" y="1485" on="0"/>
        <pt x="2206" y="1485" on="0"/>
        <pt x="2285" y="1433" on="0"/>
        <pt x="2285" y="1391" on="1"/>
        <pt x="2285" y="1304" on="0"/>
        <pt x="2133" y="1017" on="0"/>
        <pt x="1895" y="707" on="0"/>
        <pt x="1599" y="387" on="0"/>
        <pt x="1317" y="135" on="0"/>
        <pt x="1068" y="-25" on="0"/>
        <pt x="1001" y="-25" on="1"/>
        <pt x="859" y="-25" on="0"/>
        <pt x="859" y="104" on="1"/>
        <pt x="859" y="285" on="0"/>
        <pt x="1064" y="627" on="1"/>
        <pt x="665" y="155" on="0"/>
        <pt x="396" y="18" on="1"/>
        <pt x="326" y="-18" on="0"/>
        <pt x="252" y="-18" on="0"/>
        <pt x="145" y="73" on="0"/>
        <pt x="145" y="117" on="1"/>
        <pt x="145" y="366" on="0"/>
        <pt x="491" y="814" on="1"/>
        <pt x="623" y="985" on="0"/>
        <pt x="820" y="1196" on="1"/>
        <pt x="648" y="1047" on="0"/>
        <pt x="558" y="1047" on="1"/>
        <pt x="510" y="1047" on="0"/>
        <pt x="487" y="1094" on="1"/>
        <pt x="466" y="1128" on="0"/>
        <pt x="466" y="1189" on="0"/>
        <pt x="546" y="1261" on="0"/>
        <pt x="560" y="1261" on="0"/>
        <pt x="572" y="1251" on="0"/>
        <pt x="572" y="1247" on="1"/>
        <pt x="558" y="1232" on="0"/>
        <pt x="558" y="1223" on="0"/>
        <pt x="582" y="1223" on="0"/>
        <pt x="958" y="1452" on="0"/>
        <pt x="976" y="1452" on="1"/>
        <pt x="1028" y="1452" on="0"/>
        <pt x="1124" y="1395" on="0"/>
        <pt x="1124" y="1356" on="0"/>
        <pt x="1084" y="1292" on="0"/>
        <pt x="648" y="729" on="0"/>
        <pt x="450" y="440" on="0"/>
        <pt x="358" y="255" on="0"/>
        <pt x="358" y="215" on="0"/>
        <pt x="364" y="215" on="1"/>
        <pt x="406" y="215" on="0"/>
        <pt x="923" y="722" on="0"/>
        <pt x="1391" y="1217" on="0"/>
        <pt x="1432" y="1271" on="0"/>
        <pt x="1480" y="1294" on="0"/>
        <pt x="1528" y="1294" on="1"/>
        <pt x="1662" y="1294" on="0"/>
        <pt x="1662" y="1243" on="1"/>
        <pt x="1662" y="1222" on="0"/>
        <pt x="1545" y="1086" on="0"/>
        <pt x="1521" y="1055" on="1"/>
        <pt x="1396" y="896" on="0"/>
        <pt x="1089" y="318" on="0"/>
        <pt x="1089" y="237" on="1"/>
        <pt x="1089" y="215" on="0"/>
        <pt x="1118" y="215" on="0"/>
        <pt x="1261" y="328" on="0"/>
        <pt x="1495" y="553" on="0"/>
        <pt x="1793" y="885" on="0"/>
        <pt x="2064" y="1290" on="0"/>
        <pt x="2064" y="1394" on="0"/>
        <pt x="2024" y="1394" on="1"/>
      </contour>
    </TTGlyph>
    <TTGlyph name="Wacute" xMin="145" yMin="-25" xMax="2285" yMax="1869">
      <component glyphName="W" x="0" y="0" flags="0x1004"/>
      <component glyphName="acute" x="949" y="579" flags="0x1004"/>
    </TTGlyph>
    <TTGlyph name="Wcircumflex" xMin="145" yMin="-25" xMax="2285" yMax="1874">
      <component glyphName="W" x="0" y="0" flags="0x1004"/>
      <component glyphName="circumflex" x="871" y="579" flags="0x1004"/>
    </TTGlyph>
    <TTGlyph name="Wdieresis" xMin="145" yMin="-25" xMax="2285" yMax="1750">
      <component glyphName="W" x="0" y="0" flags="0x1004"/>
      <component glyphName="dieresis" x="883" y="579" flags="0x1004"/>
    </TTGlyph>
    <TTGlyph name="Wgrave" xMin="145" yMin="-25" xMax="2285" yMax="1873">
      <component glyphName="W" x="0" y="0" flags="0x1004"/>
      <component glyphName="grave" x="764" y="579" flags="0x1004"/>
    </TTGlyph>
    <TTGlyph name="X" xMin="-56" yMin="-35" xMax="1779" yMax="1458">
      <contour>
        <pt x="45" y="-19" on="1"/>
        <pt x="39" y="-20" on="1"/>
        <pt x="32" y="-20" on="0"/>
        <pt x="-11" y="19" on="0"/>
        <pt x="-21" y="28" on="0"/>
        <pt x="-35" y="38" on="0"/>
        <pt x="-40" y="42" on="0"/>
        <pt x="-48" y="50" on="0"/>
        <pt x="-51" y="55" on="0"/>
        <pt x="-53" y="58" on="1"/>
        <pt x="-56" y="64" on="0"/>
        <pt x="-56" y="87" on="0"/>
        <pt x="-49" y="109" on="1"/>
        <pt x="-39" y="143" on="0"/>
        <pt x="351" y="460" on="0"/>
        <pt x="721" y="748" on="1"/>
        <pt x="735" y="802" on="0"/>
        <pt x="777" y="958" on="0"/>
        <pt x="802" y="1053" on="0"/>
        <pt x="815" y="1104" on="1"/>
        <pt x="840" y="1201" on="0"/>
        <pt x="840" y="1229" on="0"/>
        <pt x="831" y="1229" on="1"/>
        <pt x="794" y="1229" on="0"/>
        <pt x="537" y="1000" on="0"/>
        <pt x="537" y="965" on="1"/>
        <pt x="537" y="942" on="0"/>
        <pt x="520" y="942" on="1"/>
        <pt x="509" y="942" on="0"/>
        <pt x="466" y="989" on="0"/>
        <pt x="461" y="1028" on="0"/>
        <pt x="458" y="1042" on="1"/>
        <pt x="453" y="1073" on="0"/>
        <pt x="453" y="1092" on="1"/>
        <pt x="453" y="1143" on="0"/>
        <pt x="645" y="1322" on="0"/>
        <pt x="876" y="1458" on="0"/>
        <pt x="980" y="1458" on="0"/>
        <pt x="1043" y="1386" on="0"/>
        <pt x="1043" y="1250" on="0"/>
        <pt x="957" y="932" on="1"/>
        <pt x="1518" y="1363" on="0"/>
        <pt x="1578" y="1398" on="0"/>
        <pt x="1698" y="1398" on="0"/>
        <pt x="1760" y="1374" on="1"/>
        <pt x="1779" y="1366" on="0"/>
        <pt x="1779" y="1341" on="0"/>
        <pt x="1764" y="1319" on="0"/>
        <pt x="1725" y="1288" on="0"/>
        <pt x="1607" y="1203" on="0"/>
        <pt x="1524" y="1142" on="1"/>
        <pt x="1331" y="1000" on="0"/>
        <pt x="883" y="651" on="1"/>
        <pt x="787" y="282" on="0"/>
        <pt x="787" y="174" on="1"/>
        <pt x="787" y="146" on="0"/>
        <pt x="800" y="146" on="0"/>
        <pt x="811" y="154" on="1"/>
        <pt x="870" y="189" on="0"/>
        <pt x="1139" y="424" on="0"/>
        <pt x="1192" y="487" on="0"/>
        <pt x="1202" y="486" on="1"/>
        <pt x="1217" y="486" on="0"/>
        <pt x="1217" y="450" on="1"/>
        <pt x="1216" y="433" on="1"/>
        <pt x="1216" y="432" on="0"/>
        <pt x="1235" y="377" on="0"/>
        <pt x="1235" y="304" on="0"/>
        <pt x="1207" y="261" on="0"/>
        <pt x="1152" y="197" on="0"/>
        <pt x="1054" y="104" on="0"/>
        <pt x="999" y="64" on="1"/>
        <pt x="865" y="-35" on="0"/>
        <pt x="746" y="-35" on="1"/>
        <pt x="690" y="-35" on="0"/>
        <pt x="600" y="51" on="0"/>
        <pt x="600" y="240" on="0"/>
        <pt x="652" y="463" on="1"/>
        <pt x="80" y="-17" on="0"/>
        <pt x="66" y="-23" on="0"/>
        <pt x="60" y="-23" on="1"/>
      </contour>
    </TTGlyph>
    <TTGlyph name="Y" xMin="171" yMin="-614" xMax="1781" yMax="1458">
      <contour>
        <pt x="1683" y="1389" on="1"/>
        <pt x="1721" y="1391" on="1"/>
        <pt x="1738" y="1391" on="0"/>
        <pt x="1781" y="1361" on="0"/>
        <pt x="1781" y="1350" on="1"/>
        <pt x="1776" y="1328" on="0"/>
        <pt x="1545" y="948" on="1"/>
        <pt x="824" y="-237" on="0"/>
        <pt x="751" y="-389" on="1"/>
        <pt x="788" y="-350" on="0"/>
        <pt x="877" y="-275" on="0"/>
        <pt x="888" y="-275" on="0"/>
        <pt x="900" y="-288" on="0"/>
        <pt x="900" y="-301" on="0"/>
        <pt x="882" y="-321" on="0"/>
        <pt x="775" y="-460" on="0"/>
        <pt x="723" y="-519" on="0"/>
        <pt x="682" y="-586" on="0"/>
        <pt x="653" y="-614" on="0"/>
        <pt x="632" y="-614" on="1"/>
        <pt x="571" y="-614" on="0"/>
        <pt x="488" y="-509" on="0"/>
        <pt x="488" y="-473" on="1"/>
        <pt x="488" y="-403" on="0"/>
        <pt x="1083" y="549" on="0"/>
        <pt x="1310" y="872" on="1"/>
        <pt x="785" y="252" on="0"/>
        <pt x="474" y="58" on="1"/>
        <pt x="366" y="-10" on="0"/>
        <pt x="298" y="-10" on="1"/>
        <pt x="265" y="-10" on="0"/>
        <pt x="200" y="28" on="0"/>
        <pt x="171" y="86" on="0"/>
        <pt x="171" y="235" on="0"/>
        <pt x="299" y="514" on="0"/>
        <pt x="400" y="673" on="1"/>
        <pt x="579" y="957" on="0"/>
        <pt x="730" y="1159" on="1"/>
        <pt x="596" y="1038" on="0"/>
        <pt x="511" y="1038" on="1"/>
        <pt x="472" y="1038" on="0"/>
        <pt x="447" y="1061" on="0"/>
        <pt x="404" y="1110" on="0"/>
        <pt x="404" y="1169" on="0"/>
        <pt x="425" y="1203" on="0"/>
        <pt x="434" y="1212" on="1"/>
        <pt x="468" y="1246" on="0"/>
        <pt x="488" y="1258" on="0"/>
        <pt x="517" y="1258" on="0"/>
        <pt x="517" y="1249" on="0"/>
        <pt x="496" y="1231" on="0"/>
        <pt x="496" y="1221" on="0"/>
        <pt x="518" y="1221" on="0"/>
        <pt x="552" y="1232" on="0"/>
        <pt x="607" y="1261" on="0"/>
        <pt x="652" y="1286" on="0"/>
        <pt x="742" y="1339" on="0"/>
        <pt x="789" y="1365" on="0"/>
        <pt x="880" y="1432" on="0"/>
        <pt x="902" y="1444" on="1"/>
        <pt x="939" y="1466" on="0"/>
        <pt x="986" y="1448" on="0"/>
        <pt x="1013" y="1442" on="0"/>
        <pt x="1034" y="1431" on="0"/>
        <pt x="1043" y="1424" on="1"/>
        <pt x="1074" y="1402" on="0"/>
        <pt x="1074" y="1343" on="0"/>
        <pt x="1017" y="1265" on="0"/>
        <pt x="819" y="974" on="0"/>
        <pt x="570" y="597" on="0"/>
        <pt x="381" y="267" on="0"/>
        <pt x="381" y="224" on="1"/>
        <pt x="381" y="209" on="0"/>
        <pt x="397" y="209" on="0"/>
        <pt x="448" y="248" on="1"/>
        <pt x="716" y="455" on="0"/>
        <pt x="1131" y="897" on="1"/>
        <pt x="1472" y="1260" on="0"/>
        <pt x="1533" y="1346" on="1"/>
        <pt x="1552" y="1372" on="0"/>
        <pt x="1589" y="1390" on="0"/>
        <pt x="1627" y="1390" on="1"/>
      </contour>
    </TTGlyph>
    <TTGlyph name="Yacute" xMin="171" yMin="-614" xMax="1781" yMax="1933">
      <component glyphName="Y" x="0" y="0" flags="0x1004"/>
      <component glyphName="acute" x="772" y="643" flags="0x1004"/>
    </TTGlyph>
    <TTGlyph name="Ycircumflex" xMin="171" yMin="-614" xMax="1781" yMax="1938">
      <component glyphName="Y" x="0" y="0" flags="0x1004"/>
      <component glyphName="circumflex" x="694" y="643" flags="0x1004"/>
    </TTGlyph>
    <TTGlyph name="Ydieresis" xMin="171" yMin="-614" xMax="1781" yMax="1814">
      <component glyphName="Y" x="0" y="0" flags="0x1004"/>
      <component glyphName="dieresis" x="706" y="643" flags="0x1004"/>
    </TTGlyph>
    <TTGlyph name="Ygrave" xMin="171" yMin="-614" xMax="1781" yMax="1937">
      <component glyphName="Y" x="0" y="0" flags="0x1004"/>
      <component glyphName="grave" x="587" y="643" flags="0x1004"/>
    </TTGlyph>
    <TTGlyph name="Z" xMin="80" yMin="-34" xMax="1699" yMax="1501">
      <contour>
        <pt x="622" y="1405" on="1"/>
        <pt x="622" y="1362" on="0"/>
        <pt x="872" y="1362" on="1"/>
        <pt x="992" y="1362" on="0"/>
        <pt x="1343" y="1385" on="0"/>
        <pt x="1416" y="1411" on="0"/>
        <pt x="1468" y="1450" on="0"/>
        <pt x="1480" y="1464" on="1"/>
        <pt x="1512" y="1501" on="0"/>
        <pt x="1615" y="1501" on="0"/>
        <pt x="1699" y="1462" on="0"/>
        <pt x="1699" y="1395" on="0"/>
        <pt x="1641" y="1325" on="0"/>
        <pt x="1577" y="1280" on="0"/>
        <pt x="1500" y="1234" on="0"/>
        <pt x="1488" y="1224" on="0"/>
        <pt x="1444" y="1186" on="1"/>
        <pt x="1255" y="1028" on="0"/>
        <pt x="442" y="256" on="0"/>
        <pt x="352" y="166" on="1"/>
        <pt x="462" y="191" on="0"/>
        <pt x="830" y="241" on="0"/>
        <pt x="1145" y="241" on="0"/>
        <pt x="1314" y="174" on="0"/>
        <pt x="1314" y="92" on="1"/>
        <pt x="1314" y="53" on="0"/>
        <pt x="1279" y="-30" on="0"/>
        <pt x="1267" y="-30" on="1"/>
        <pt x="1263" y="-30" on="0"/>
        <pt x="1255" y="-5" on="0"/>
        <pt x="1251" y="-2" on="1"/>
        <pt x="1204" y="29" on="0"/>
        <pt x="961" y="29" on="0"/>
        <pt x="386" y="-18" on="0"/>
        <pt x="245" y="-34" on="0"/>
        <pt x="223" y="-34" on="1"/>
        <pt x="160" y="-34" on="0"/>
        <pt x="80" y="53" on="0"/>
        <pt x="80" y="87" on="1"/>
        <pt x="88" y="119" on="1"/>
        <pt x="88" y="167" on="0"/>
        <pt x="555" y="645" on="0"/>
        <pt x="1084" y="1128" on="0"/>
        <pt x="1210" y="1227" on="1"/>
        <pt x="1123" y="1202" on="0"/>
        <pt x="859" y="1163" on="0"/>
        <pt x="742" y="1163" on="1"/>
        <pt x="450" y="1163" on="0"/>
        <pt x="450" y="1290" on="1"/>
        <pt x="450" y="1332" on="0"/>
        <pt x="497" y="1400" on="0"/>
        <pt x="530" y="1418" on="1"/>
        <pt x="596" y="1455" on="0"/>
        <pt x="655" y="1455" on="0"/>
        <pt x="655" y="1442" on="1"/>
        <pt x="655" y="1436" on="0"/>
        <pt x="622" y="1412" on="0"/>
      </contour>
    </TTGlyph>
    <TTGlyph name="Zacute" xMin="80" yMin="-34" xMax="1699" yMax="1933">
      <component glyphName="Z" x="0" y="0" flags="0x1004"/>
      <component glyphName="acute" x="463" y="643" flags="0x1004"/>
    </TTGlyph>
    <TTGlyph name="Zcaron" xMin="80" yMin="-34" xMax="1699" yMax="1937">
      <component glyphName="Z" x="0" y="0" flags="0x1004"/>
      <component glyphName="caron" x="354" y="643" flags="0x1004"/>
    </TTGlyph>
    <TTGlyph name="Zdotaccent" xMin="80" yMin="-34" xMax="1699" yMax="1830">
      <component glyphName="Z" x="0" y="0" flags="0x1004"/>
      <component glyphName="dotaccent" x="372" y="643" flags="0x1004"/>
    </TTGlyph>
    <TTGlyph name="a" xMin="6" yMin="-35" xMax="987" yMax="768">
      <contour>
        <pt x="825" y="760" on="1"/>
        <pt x="901" y="760" on="0"/>
        <pt x="901" y="708" on="1"/>
        <pt x="901" y="680" on="0"/>
        <pt x="875" y="654" on="0"/>
        <pt x="790" y="507" on="0"/>
        <pt x="687" y="278" on="0"/>
        <pt x="672" y="197" on="1"/>
        <pt x="669" y="187" on="0"/>
        <pt x="669" y="169" on="1"/>
        <pt x="669" y="114" on="0"/>
        <pt x="729" y="114" on="0"/>
        <pt x="811" y="171" on="0"/>
        <pt x="875" y="236" on="0"/>
        <pt x="936" y="304" on="0"/>
        <pt x="948" y="314" on="0"/>
        <pt x="960" y="314" on="1"/>
        <pt x="979" y="314" on="0"/>
        <pt x="987" y="256" on="0"/>
        <pt x="987" y="194" on="0"/>
        <pt x="981" y="182" on="1"/>
        <pt x="952" y="125" on="0"/>
        <pt x="755" y="-35" on="0"/>
        <pt x="594" y="-35" on="0"/>
        <pt x="518" y="63" on="0"/>
        <pt x="518" y="182" on="0"/>
        <pt x="538" y="227" on="1"/>
        <pt x="455" y="119" on="0"/>
        <pt x="240" y="-31" on="0"/>
        <pt x="104" y="-31" on="0"/>
        <pt x="61" y="10" on="1"/>
        <pt x="6" y="61" on="0"/>
        <pt x="6" y="242" on="0"/>
        <pt x="87" y="425" on="0"/>
        <pt x="219" y="576" on="0"/>
        <pt x="298" y="638" on="1"/>
        <pt x="464" y="768" on="0"/>
        <pt x="604" y="768" on="1"/>
        <pt x="658" y="768" on="0"/>
        <pt x="726" y="732" on="0"/>
        <pt x="735" y="705" on="1"/>
        <pt x="759" y="741" on="0"/>
        <pt x="792" y="760" on="0"/>
      </contour>
      <contour>
        <pt x="692" y="649" on="1"/>
        <pt x="521" y="649" on="0"/>
        <pt x="338" y="459" on="1"/>
        <pt x="273" y="391" on="0"/>
        <pt x="164" y="201" on="0"/>
        <pt x="164" y="131" on="0"/>
        <pt x="184" y="131" on="1"/>
        <pt x="212" y="131" on="0"/>
        <pt x="468" y="352" on="0"/>
        <pt x="510" y="404" on="1"/>
        <pt x="556" y="462" on="0"/>
      </contour>
    </TTGlyph>
    <TTGlyph name="aacute" xMin="6" yMin="-35" xMax="1050" yMax="1294">
      <contour>
        <pt x="825" y="760" on="1"/>
        <pt x="901" y="760" on="0"/>
        <pt x="901" y="708" on="1"/>
        <pt x="901" y="680" on="0"/>
        <pt x="875" y="654" on="0"/>
        <pt x="790" y="507" on="0"/>
        <pt x="687" y="278" on="0"/>
        <pt x="672" y="197" on="1"/>
        <pt x="669" y="187" on="0"/>
        <pt x="669" y="169" on="1"/>
        <pt x="669" y="114" on="0"/>
        <pt x="729" y="114" on="0"/>
        <pt x="811" y="171" on="0"/>
        <pt x="875" y="236" on="0"/>
        <pt x="936" y="304" on="0"/>
        <pt x="948" y="314" on="0"/>
        <pt x="960" y="314" on="1"/>
        <pt x="979" y="314" on="0"/>
        <pt x="987" y="256" on="0"/>
        <pt x="987" y="194" on="0"/>
        <pt x="981" y="182" on="1"/>
        <pt x="952" y="125" on="0"/>
        <pt x="755" y="-35" on="0"/>
        <pt x="594" y="-35" on="0"/>
        <pt x="518" y="63" on="0"/>
        <pt x="518" y="182" on="0"/>
        <pt x="538" y="227" on="1"/>
        <pt x="455" y="119" on="0"/>
        <pt x="240" y="-31" on="0"/>
        <pt x="104" y="-31" on="0"/>
        <pt x="61" y="10" on="1"/>
        <pt x="6" y="61" on="0"/>
        <pt x="6" y="242" on="0"/>
        <pt x="87" y="425" on="0"/>
        <pt x="219" y="576" on="0"/>
        <pt x="298" y="638" on="1"/>
        <pt x="464" y="768" on="0"/>
        <pt x="604" y="768" on="1"/>
        <pt x="658" y="768" on="0"/>
        <pt x="726" y="732" on="0"/>
        <pt x="735" y="705" on="1"/>
        <pt x="759" y="741" on="0"/>
        <pt x="792" y="760" on="0"/>
      </contour>
      <contour>
        <pt x="692" y="649" on="1"/>
        <pt x="521" y="649" on="0"/>
        <pt x="338" y="459" on="1"/>
        <pt x="273" y="391" on="0"/>
        <pt x="164" y="201" on="0"/>
        <pt x="164" y="131" on="0"/>
        <pt x="184" y="131" on="1"/>
        <pt x="212" y="131" on="0"/>
        <pt x="468" y="352" on="0"/>
        <pt x="510" y="404" on="1"/>
        <pt x="556" y="462" on="0"/>
      </contour>
      <contour>
        <pt x="939" y="1031" on="0"/>
        <pt x="693" y="893" on="0"/>
        <pt x="634" y="893" on="0"/>
        <pt x="634" y="919" on="1"/>
        <pt x="634" y="928" on="0"/>
        <pt x="639" y="938" on="1"/>
        <pt x="661" y="996" on="0"/>
        <pt x="748" y="1091" on="0"/>
        <pt x="852" y="1175" on="0"/>
        <pt x="930" y="1230" on="0"/>
        <pt x="960" y="1258" on="0"/>
        <pt x="966" y="1276" on="1"/>
        <pt x="973" y="1294" on="0"/>
        <pt x="1013" y="1294" on="0"/>
        <pt x="1050" y="1225" on="0"/>
        <pt x="1050" y="1194" on="1"/>
        <pt x="1050" y="1112" on="0"/>
        <pt x="966" y="1057" on="1"/>
      </contour>
    </TTGlyph>
    <TTGlyph name="abreve" xMin="6" yMin="-35" xMax="1022" yMax="1263">
      <contour>
        <pt x="825" y="760" on="1"/>
        <pt x="901" y="760" on="0"/>
        <pt x="901" y="708" on="1"/>
        <pt x="901" y="680" on="0"/>
        <pt x="875" y="654" on="0"/>
        <pt x="790" y="507" on="0"/>
        <pt x="687" y="278" on="0"/>
        <pt x="672" y="197" on="1"/>
        <pt x="669" y="187" on="0"/>
        <pt x="669" y="169" on="1"/>
        <pt x="669" y="114" on="0"/>
        <pt x="729" y="114" on="0"/>
        <pt x="811" y="171" on="0"/>
        <pt x="875" y="236" on="0"/>
        <pt x="936" y="304" on="0"/>
        <pt x="948" y="314" on="0"/>
        <pt x="960" y="314" on="1"/>
        <pt x="979" y="314" on="0"/>
        <pt x="987" y="256" on="0"/>
        <pt x="987" y="194" on="0"/>
        <pt x="981" y="182" on="1"/>
        <pt x="952" y="125" on="0"/>
        <pt x="755" y="-35" on="0"/>
        <pt x="594" y="-35" on="0"/>
        <pt x="518" y="63" on="0"/>
        <pt x="518" y="182" on="0"/>
        <pt x="538" y="227" on="1"/>
        <pt x="455" y="119" on="0"/>
        <pt x="240" y="-31" on="0"/>
        <pt x="104" y="-31" on="0"/>
        <pt x="61" y="10" on="1"/>
        <pt x="6" y="61" on="0"/>
        <pt x="6" y="242" on="0"/>
        <pt x="87" y="425" on="0"/>
        <pt x="219" y="576" on="0"/>
        <pt x="298" y="638" on="1"/>
        <pt x="464" y="768" on="0"/>
        <pt x="604" y="768" on="1"/>
        <pt x="658" y="768" on="0"/>
        <pt x="726" y="732" on="0"/>
        <pt x="735" y="705" on="1"/>
        <pt x="759" y="741" on="0"/>
        <pt x="792" y="760" on="0"/>
      </contour>
      <contour>
        <pt x="692" y="649" on="1"/>
        <pt x="521" y="649" on="0"/>
        <pt x="338" y="459" on="1"/>
        <pt x="273" y="391" on="0"/>
        <pt x="164" y="201" on="0"/>
        <pt x="164" y="131" on="0"/>
        <pt x="184" y="131" on="1"/>
        <pt x="212" y="131" on="0"/>
        <pt x="468" y="352" on="0"/>
        <pt x="510" y="404" on="1"/>
        <pt x="556" y="462" on="0"/>
      </contour>
      <contour>
        <pt x="409" y="1223" on="0"/>
        <pt x="434" y="1257" on="0"/>
        <pt x="478" y="1257" on="0"/>
        <pt x="514" y="1220" on="0"/>
        <pt x="554" y="1132" on="0"/>
        <pt x="573" y="1099" on="0"/>
        <pt x="624" y="1075" on="0"/>
        <pt x="696" y="1075" on="0"/>
        <pt x="777" y="1114" on="0"/>
        <pt x="835" y="1169" on="0"/>
        <pt x="861" y="1196" on="1"/>
        <pt x="924" y="1263" on="0"/>
        <pt x="969" y="1263" on="1"/>
        <pt x="981" y="1263" on="0"/>
        <pt x="1022" y="1215" on="0"/>
        <pt x="1022" y="1187" on="0"/>
        <pt x="984" y="1123" on="0"/>
        <pt x="915" y="1041" on="0"/>
        <pt x="872" y="1003" on="1"/>
        <pt x="772" y="913" on="0"/>
        <pt x="558" y="913" on="0"/>
        <pt x="409" y="1088" on="0"/>
        <pt x="409" y="1206" on="1"/>
      </contour>
    </TTGlyph>
    <TTGlyph name="acircumflex" xMin="6" yMin="-35" xMax="994" yMax="1299">
      <contour>
        <pt x="825" y="760" on="1"/>
        <pt x="901" y="760" on="0"/>
        <pt x="901" y="708" on="1"/>
        <pt x="901" y="680" on="0"/>
        <pt x="875" y="654" on="0"/>
        <pt x="790" y="507" on="0"/>
        <pt x="687" y="278" on="0"/>
        <pt x="672" y="197" on="1"/>
        <pt x="669" y="187" on="0"/>
        <pt x="669" y="169" on="1"/>
        <pt x="669" y="114" on="0"/>
        <pt x="729" y="114" on="0"/>
        <pt x="811" y="171" on="0"/>
        <pt x="875" y="236" on="0"/>
        <pt x="936" y="304" on="0"/>
        <pt x="948" y="314" on="0"/>
        <pt x="960" y="314" on="1"/>
        <pt x="979" y="314" on="0"/>
        <pt x="987" y="256" on="0"/>
        <pt x="987" y="194" on="0"/>
        <pt x="981" y="182" on="1"/>
        <pt x="952" y="125" on="0"/>
        <pt x="755" y="-35" on="0"/>
        <pt x="594" y="-35" on="0"/>
        <pt x="518" y="63" on="0"/>
        <pt x="518" y="182" on="0"/>
        <pt x="538" y="227" on="1"/>
        <pt x="455" y="119" on="0"/>
        <pt x="240" y="-31" on="0"/>
        <pt x="104" y="-31" on="0"/>
        <pt x="61" y="10" on="1"/>
        <pt x="6" y="61" on="0"/>
        <pt x="6" y="242" on="0"/>
        <pt x="87" y="425" on="0"/>
        <pt x="219" y="576" on="0"/>
        <pt x="298" y="638" on="1"/>
        <pt x="464" y="768" on="0"/>
        <pt x="604" y="768" on="1"/>
        <pt x="658" y="768" on="0"/>
        <pt x="726" y="732" on="0"/>
        <pt x="735" y="705" on="1"/>
        <pt x="759" y="741" on="0"/>
        <pt x="792" y="760" on="0"/>
      </contour>
      <contour>
        <pt x="692" y="649" on="1"/>
        <pt x="521" y="649" on="0"/>
        <pt x="338" y="459" on="1"/>
        <pt x="273" y="391" on="0"/>
        <pt x="164" y="201" on="0"/>
        <pt x="164" y="131" on="0"/>
        <pt x="184" y="131" on="1"/>
        <pt x="212" y="131" on="0"/>
        <pt x="468" y="352" on="0"/>
        <pt x="510" y="404" on="1"/>
        <pt x="556" y="462" on="0"/>
      </contour>
      <contour>
        <pt x="994" y="893" on="0"/>
        <pt x="935" y="893" on="0"/>
        <pt x="892" y="908" on="0"/>
        <pt x="861" y="940" on="0"/>
        <pt x="838" y="972" on="0"/>
        <pt x="818" y="1025" on="0"/>
        <pt x="806" y="1060" on="0"/>
        <pt x="789" y="1121" on="0"/>
        <pt x="785" y="1135" on="1"/>
        <pt x="721" y="1071" on="0"/>
        <pt x="499" y="908" on="0"/>
        <pt x="451" y="908" on="1"/>
        <pt x="429" y="908" on="0"/>
        <pt x="429" y="952" on="0"/>
        <pt x="448" y="991" on="0"/>
        <pt x="495" y="1038" on="0"/>
        <pt x="528" y="1068" on="0"/>
        <pt x="565" y="1098" on="1"/>
        <pt x="698" y="1205" on="0"/>
        <pt x="761" y="1278" on="1"/>
        <pt x="772" y="1299" on="0"/>
        <pt x="858" y="1299" on="0"/>
        <pt x="912" y="1242" on="0"/>
        <pt x="928" y="1177" on="0"/>
        <pt x="940" y="1098" on="0"/>
        <pt x="945" y="1086" on="0"/>
        <pt x="963" y="1039" on="0"/>
        <pt x="973" y="1013" on="0"/>
        <pt x="980" y="992" on="1"/>
        <pt x="994" y="948" on="0"/>
      </contour>
    </TTGlyph>
    <TTGlyph name="acute" xMin="576" yMin="889" xMax="992" yMax="1290">
      <contour>
        <pt x="881" y="1027" on="0"/>
        <pt x="635" y="889" on="0"/>
        <pt x="576" y="889" on="0"/>
        <pt x="576" y="915" on="1"/>
        <pt x="576" y="924" on="0"/>
        <pt x="581" y="934" on="1"/>
        <pt x="603" y="992" on="0"/>
        <pt x="690" y="1087" on="0"/>
        <pt x="794" y="1171" on="0"/>
        <pt x="872" y="1226" on="0"/>
        <pt x="902" y="1254" on="0"/>
        <pt x="908" y="1272" on="1"/>
        <pt x="915" y="1290" on="0"/>
        <pt x="955" y="1290" on="0"/>
        <pt x="992" y="1221" on="0"/>
        <pt x="992" y="1190" on="1"/>
        <pt x="992" y="1108" on="0"/>
        <pt x="908" y="1053" on="1"/>
      </contour>
    </TTGlyph>
    <TTGlyph name="adieresis" xMin="6" yMin="-35" xMax="1041" yMax="1175">
      <contour>
        <pt x="825" y="760" on="1"/>
        <pt x="901" y="760" on="0"/>
        <pt x="901" y="708" on="1"/>
        <pt x="901" y="680" on="0"/>
        <pt x="875" y="654" on="0"/>
        <pt x="790" y="507" on="0"/>
        <pt x="687" y="278" on="0"/>
        <pt x="672" y="197" on="1"/>
        <pt x="669" y="187" on="0"/>
        <pt x="669" y="169" on="1"/>
        <pt x="669" y="114" on="0"/>
        <pt x="729" y="114" on="0"/>
        <pt x="811" y="171" on="0"/>
        <pt x="875" y="236" on="0"/>
        <pt x="936" y="304" on="0"/>
        <pt x="948" y="314" on="0"/>
        <pt x="960" y="314" on="1"/>
        <pt x="979" y="314" on="0"/>
        <pt x="987" y="256" on="0"/>
        <pt x="987" y="194" on="0"/>
        <pt x="981" y="182" on="1"/>
        <pt x="952" y="125" on="0"/>
        <pt x="755" y="-35" on="0"/>
        <pt x="594" y="-35" on="0"/>
        <pt x="518" y="63" on="0"/>
        <pt x="518" y="182" on="0"/>
        <pt x="538" y="227" on="1"/>
        <pt x="455" y="119" on="0"/>
        <pt x="240" y="-31" on="0"/>
        <pt x="104" y="-31" on="0"/>
        <pt x="61" y="10" on="1"/>
        <pt x="6" y="61" on="0"/>
        <pt x="6" y="242" on="0"/>
        <pt x="87" y="425" on="0"/>
        <pt x="219" y="576" on="0"/>
        <pt x="298" y="638" on="1"/>
        <pt x="464" y="768" on="0"/>
        <pt x="604" y="768" on="1"/>
        <pt x="658" y="768" on="0"/>
        <pt x="726" y="732" on="0"/>
        <pt x="735" y="705" on="1"/>
        <pt x="759" y="741" on="0"/>
        <pt x="792" y="760" on="0"/>
      </contour>
      <contour>
        <pt x="692" y="649" on="1"/>
        <pt x="521" y="649" on="0"/>
        <pt x="338" y="459" on="1"/>
        <pt x="273" y="391" on="0"/>
        <pt x="164" y="201" on="0"/>
        <pt x="164" y="131" on="0"/>
        <pt x="184" y="131" on="1"/>
        <pt x="212" y="131" on="0"/>
        <pt x="468" y="352" on="0"/>
        <pt x="510" y="404" on="1"/>
        <pt x="556" y="462" on="0"/>
      </contour>
      <contour>
        <pt x="996" y="1169" on="0"/>
        <pt x="1041" y="1132" on="0"/>
        <pt x="1041" y="1031" on="0"/>
        <pt x="938" y="923" on="0"/>
        <pt x="871" y="923" on="1"/>
        <pt x="834" y="923" on="0"/>
        <pt x="795" y="967" on="0"/>
        <pt x="795" y="1019" on="0"/>
        <pt x="817" y="1071" on="0"/>
        <pt x="856" y="1128" on="0"/>
        <pt x="925" y="1169" on="0"/>
      </contour>
      <contour>
        <pt x="711" y="1036" on="0"/>
        <pt x="617" y="923" on="0"/>
        <pt x="496" y="923" on="0"/>
        <pt x="496" y="1007" on="1"/>
        <pt x="496" y="1060" on="0"/>
        <pt x="572" y="1175" on="0"/>
        <pt x="639" y="1175" on="1"/>
        <pt x="667" y="1175" on="0"/>
        <pt x="711" y="1133" on="0"/>
      </contour>
    </TTGlyph>
    <TTGlyph name="ae" xMin="6" yMin="-39" xMax="1227" yMax="809">
      <contour>
        <pt x="884" y="705" on="1"/>
        <pt x="1006" y="809" on="0"/>
        <pt x="1126" y="809" on="1"/>
        <pt x="1159" y="809" on="0"/>
        <pt x="1227" y="777" on="0"/>
        <pt x="1227" y="748" on="1"/>
        <pt x="1227" y="682" on="0"/>
        <pt x="1120" y="582" on="0"/>
        <pt x="1052" y="582" on="1"/>
        <pt x="1030" y="582" on="0"/>
        <pt x="1016" y="603" on="0"/>
        <pt x="1016" y="637" on="0"/>
        <pt x="1020" y="653" on="1"/>
        <pt x="984" y="641" on="0"/>
        <pt x="898" y="592" on="0"/>
        <pt x="735" y="464" on="0"/>
        <pt x="735" y="440" on="1"/>
        <pt x="735" y="432" on="0"/>
        <pt x="782" y="432" on="0"/>
        <pt x="913" y="494" on="0"/>
        <pt x="952" y="494" on="0"/>
        <pt x="958" y="492" on="1"/>
        <pt x="971" y="485" on="0"/>
        <pt x="1001" y="438" on="0"/>
        <pt x="1001" y="411" on="0"/>
        <pt x="927" y="349" on="0"/>
        <pt x="773" y="319" on="0"/>
        <pt x="642" y="212" on="0"/>
        <pt x="642" y="172" on="1"/>
        <pt x="642" y="98" on="0"/>
        <pt x="794" y="98" on="1"/>
        <pt x="879" y="98" on="0"/>
        <pt x="965" y="152" on="1"/>
        <pt x="1038" y="198" on="0"/>
        <pt x="1155" y="293" on="0"/>
        <pt x="1186" y="315" on="0"/>
        <pt x="1194" y="315" on="1"/>
        <pt x="1220" y="315" on="0"/>
        <pt x="1220" y="199" on="0"/>
        <pt x="1206" y="162" on="0"/>
        <pt x="1173" y="135" on="1"/>
        <pt x="959" y="-39" on="0"/>
        <pt x="768" y="-39" on="1"/>
        <pt x="613" y="-39" on="0"/>
        <pt x="573" y="50" on="1"/>
        <pt x="528" y="-12" on="0"/>
        <pt x="397" y="-12" on="0"/>
        <pt x="397" y="40" on="1"/>
        <pt x="397" y="47" on="0"/>
        <pt x="418" y="79" on="1"/>
        <pt x="290" y="-31" on="0"/>
        <pt x="166" y="-31" on="1"/>
        <pt x="94" y="-31" on="0"/>
        <pt x="6" y="78" on="0"/>
        <pt x="6" y="242" on="0"/>
        <pt x="87" y="425" on="0"/>
        <pt x="219" y="576" on="0"/>
        <pt x="298" y="638" on="1"/>
        <pt x="464" y="768" on="0"/>
        <pt x="604" y="768" on="1"/>
        <pt x="658" y="768" on="0"/>
        <pt x="726" y="732" on="0"/>
        <pt x="735" y="705" on="1"/>
        <pt x="759" y="741" on="0"/>
        <pt x="792" y="760" on="0"/>
        <pt x="860" y="760" on="0"/>
        <pt x="898" y="737" on="0"/>
      </contour>
      <contour>
        <pt x="692" y="649" on="1"/>
        <pt x="521" y="649" on="0"/>
        <pt x="338" y="459" on="1"/>
        <pt x="273" y="391" on="0"/>
        <pt x="164" y="201" on="0"/>
        <pt x="164" y="131" on="0"/>
        <pt x="203" y="131" on="0"/>
        <pt x="257" y="151" on="0"/>
        <pt x="302" y="178" on="1"/>
        <pt x="403" y="239" on="0"/>
        <pt x="536" y="424" on="1"/>
        <pt x="660" y="606" on="0"/>
      </contour>
    </TTGlyph>
    <TTGlyph name="aeacute" xMin="6" yMin="-39" xMax="1227" yMax="1280">
      <contour>
        <pt x="884" y="705" on="1"/>
        <pt x="1006" y="809" on="0"/>
        <pt x="1126" y="809" on="1"/>
        <pt x="1159" y="809" on="0"/>
        <pt x="1227" y="777" on="0"/>
        <pt x="1227" y="748" on="1"/>
        <pt x="1227" y="682" on="0"/>
        <pt x="1120" y="582" on="0"/>
        <pt x="1052" y="582" on="1"/>
        <pt x="1030" y="582" on="0"/>
        <pt x="1016" y="603" on="0"/>
        <pt x="1016" y="637" on="0"/>
        <pt x="1020" y="653" on="1"/>
        <pt x="984" y="641" on="0"/>
        <pt x="898" y="592" on="0"/>
        <pt x="735" y="464" on="0"/>
        <pt x="735" y="440" on="1"/>
        <pt x="735" y="432" on="0"/>
        <pt x="782" y="432" on="0"/>
        <pt x="913" y="494" on="0"/>
        <pt x="952" y="494" on="0"/>
        <pt x="958" y="492" on="1"/>
        <pt x="971" y="485" on="0"/>
        <pt x="1001" y="438" on="0"/>
        <pt x="1001" y="411" on="0"/>
        <pt x="927" y="349" on="0"/>
        <pt x="773" y="319" on="0"/>
        <pt x="642" y="212" on="0"/>
        <pt x="642" y="172" on="1"/>
        <pt x="642" y="98" on="0"/>
        <pt x="794" y="98" on="1"/>
        <pt x="879" y="98" on="0"/>
        <pt x="965" y="152" on="1"/>
        <pt x="1038" y="198" on="0"/>
        <pt x="1155" y="293" on="0"/>
        <pt x="1186" y="315" on="0"/>
        <pt x="1194" y="315" on="1"/>
        <pt x="1220" y="315" on="0"/>
        <pt x="1220" y="199" on="0"/>
        <pt x="1206" y="162" on="0"/>
        <pt x="1173" y="135" on="1"/>
        <pt x="959" y="-39" on="0"/>
        <pt x="768" y="-39" on="1"/>
        <pt x="613" y="-39" on="0"/>
        <pt x="573" y="50" on="1"/>
        <pt x="528" y="-12" on="0"/>
        <pt x="397" y="-12" on="0"/>
        <pt x="397" y="40" on="1"/>
        <pt x="397" y="47" on="0"/>
        <pt x="418" y="79" on="1"/>
        <pt x="290" y="-31" on="0"/>
        <pt x="166" y="-31" on="1"/>
        <pt x="94" y="-31" on="0"/>
        <pt x="6" y="78" on="0"/>
        <pt x="6" y="242" on="0"/>
        <pt x="87" y="425" on="0"/>
        <pt x="219" y="576" on="0"/>
        <pt x="298" y="638" on="1"/>
        <pt x="464" y="768" on="0"/>
        <pt x="604" y="768" on="1"/>
        <pt x="658" y="768" on="0"/>
        <pt x="726" y="732" on="0"/>
        <pt x="735" y="705" on="1"/>
        <pt x="759" y="741" on="0"/>
        <pt x="792" y="760" on="0"/>
        <pt x="860" y="760" on="0"/>
        <pt x="898" y="737" on="0"/>
      </contour>
      <contour>
        <pt x="692" y="649" on="1"/>
        <pt x="521" y="649" on="0"/>
        <pt x="338" y="459" on="1"/>
        <pt x="273" y="391" on="0"/>
        <pt x="164" y="201" on="0"/>
        <pt x="164" y="131" on="0"/>
        <pt x="203" y="131" on="0"/>
        <pt x="257" y="151" on="0"/>
        <pt x="302" y="178" on="1"/>
        <pt x="403" y="239" on="0"/>
        <pt x="536" y="424" on="1"/>
        <pt x="660" y="606" on="0"/>
      </contour>
      <contour>
        <pt x="1078" y="1017" on="0"/>
        <pt x="832" y="879" on="0"/>
        <pt x="773" y="879" on="0"/>
        <pt x="773" y="905" on="1"/>
        <pt x="773" y="914" on="0"/>
        <pt x="778" y="924" on="1"/>
        <pt x="800" y="982" on="0"/>
        <pt x="887" y="1077" on="0"/>
        <pt x="991" y="1161" on="0"/>
        <pt x="1069" y="1216" on="0"/>
        <pt x="1099" y="1244" on="0"/>
        <pt x="1105" y="1262" on="1"/>
        <pt x="1112" y="1280" on="0"/>
        <pt x="1152" y="1280" on="0"/>
        <pt x="1189" y="1211" on="0"/>
        <pt x="1189" y="1180" on="1"/>
        <pt x="1189" y="1098" on="0"/>
        <pt x="1105" y="1043" on="1"/>
      </contour>
    </TTGlyph>
    <TTGlyph name="agrave" xMin="6" yMin="-35" xMax="987" yMax="1298">
      <contour>
        <pt x="825" y="760" on="1"/>
        <pt x="901" y="760" on="0"/>
        <pt x="901" y="708" on="1"/>
        <pt x="901" y="680" on="0"/>
        <pt x="875" y="654" on="0"/>
        <pt x="790" y="507" on="0"/>
        <pt x="687" y="278" on="0"/>
        <pt x="672" y="197" on="1"/>
        <pt x="669" y="187" on="0"/>
        <pt x="669" y="169" on="1"/>
        <pt x="669" y="114" on="0"/>
        <pt x="729" y="114" on="0"/>
        <pt x="811" y="171" on="0"/>
        <pt x="875" y="236" on="0"/>
        <pt x="936" y="304" on="0"/>
        <pt x="948" y="314" on="0"/>
        <pt x="960" y="314" on="1"/>
        <pt x="979" y="314" on="0"/>
        <pt x="987" y="256" on="0"/>
        <pt x="987" y="194" on="0"/>
        <pt x="981" y="182" on="1"/>
        <pt x="952" y="125" on="0"/>
        <pt x="755" y="-35" on="0"/>
        <pt x="594" y="-35" on="0"/>
        <pt x="518" y="63" on="0"/>
        <pt x="518" y="182" on="0"/>
        <pt x="538" y="227" on="1"/>
        <pt x="455" y="119" on="0"/>
        <pt x="240" y="-31" on="0"/>
        <pt x="104" y="-31" on="0"/>
        <pt x="61" y="10" on="1"/>
        <pt x="6" y="61" on="0"/>
        <pt x="6" y="242" on="0"/>
        <pt x="87" y="425" on="0"/>
        <pt x="219" y="576" on="0"/>
        <pt x="298" y="638" on="1"/>
        <pt x="464" y="768" on="0"/>
        <pt x="604" y="768" on="1"/>
        <pt x="658" y="768" on="0"/>
        <pt x="726" y="732" on="0"/>
        <pt x="735" y="705" on="1"/>
        <pt x="759" y="741" on="0"/>
        <pt x="792" y="760" on="0"/>
      </contour>
      <contour>
        <pt x="692" y="649" on="1"/>
        <pt x="521" y="649" on="0"/>
        <pt x="338" y="459" on="1"/>
        <pt x="273" y="391" on="0"/>
        <pt x="164" y="201" on="0"/>
        <pt x="164" y="131" on="0"/>
        <pt x="184" y="131" on="1"/>
        <pt x="212" y="131" on="0"/>
        <pt x="468" y="352" on="0"/>
        <pt x="510" y="404" on="1"/>
        <pt x="556" y="462" on="0"/>
      </contour>
      <contour>
        <pt x="690" y="893" on="0"/>
        <pt x="633" y="893" on="0"/>
        <pt x="594" y="909" on="0"/>
        <pt x="569" y="942" on="0"/>
        <pt x="555" y="966" on="0"/>
        <pt x="538" y="1008" on="0"/>
        <pt x="509" y="1066" on="0"/>
        <pt x="444" y="1162" on="0"/>
        <pt x="411" y="1209" on="0"/>
        <pt x="411" y="1245" on="0"/>
        <pt x="506" y="1298" on="0"/>
        <pt x="561" y="1298" on="0"/>
        <pt x="576" y="1293" on="0"/>
        <pt x="588" y="1278" on="0"/>
        <pt x="596" y="1262" on="0"/>
        <pt x="607" y="1228" on="0"/>
        <pt x="611" y="1213" on="1"/>
        <pt x="634" y="1127" on="0"/>
        <pt x="653" y="1071" on="1"/>
        <pt x="690" y="961" on="0"/>
      </contour>
    </TTGlyph>
    <TTGlyph name="amacron" xMin="6" yMin="-35" xMax="1025" yMax="1161">
      <contour>
        <pt x="825" y="760" on="1"/>
        <pt x="901" y="760" on="0"/>
        <pt x="901" y="708" on="1"/>
        <pt x="901" y="680" on="0"/>
        <pt x="875" y="654" on="0"/>
        <pt x="790" y="507" on="0"/>
        <pt x="687" y="278" on="0"/>
        <pt x="672" y="197" on="1"/>
        <pt x="669" y="187" on="0"/>
        <pt x="669" y="169" on="1"/>
        <pt x="669" y="114" on="0"/>
        <pt x="729" y="114" on="0"/>
        <pt x="811" y="171" on="0"/>
        <pt x="875" y="236" on="0"/>
        <pt x="936" y="304" on="0"/>
        <pt x="948" y="314" on="0"/>
        <pt x="960" y="314" on="1"/>
        <pt x="979" y="314" on="0"/>
        <pt x="987" y="256" on="0"/>
        <pt x="987" y="194" on="0"/>
        <pt x="981" y="182" on="1"/>
        <pt x="952" y="125" on="0"/>
        <pt x="755" y="-35" on="0"/>
        <pt x="594" y="-35" on="0"/>
        <pt x="518" y="63" on="0"/>
        <pt x="518" y="182" on="0"/>
        <pt x="538" y="227" on="1"/>
        <pt x="455" y="119" on="0"/>
        <pt x="240" y="-31" on="0"/>
        <pt x="104" y="-31" on="0"/>
        <pt x="61" y="10" on="1"/>
        <pt x="6" y="61" on="0"/>
        <pt x="6" y="242" on="0"/>
        <pt x="87" y="425" on="0"/>
        <pt x="219" y="576" on="0"/>
        <pt x="298" y="638" on="1"/>
        <pt x="464" y="768" on="0"/>
        <pt x="604" y="768" on="1"/>
        <pt x="658" y="768" on="0"/>
        <pt x="726" y="732" on="0"/>
        <pt x="735" y="705" on="1"/>
        <pt x="759" y="741" on="0"/>
        <pt x="792" y="760" on="0"/>
      </contour>
      <contour>
        <pt x="692" y="649" on="1"/>
        <pt x="521" y="649" on="0"/>
        <pt x="338" y="459" on="1"/>
        <pt x="273" y="391" on="0"/>
        <pt x="164" y="201" on="0"/>
        <pt x="164" y="131" on="0"/>
        <pt x="184" y="131" on="1"/>
        <pt x="212" y="131" on="0"/>
        <pt x="468" y="352" on="0"/>
        <pt x="510" y="404" on="1"/>
        <pt x="556" y="462" on="0"/>
      </contour>
      <contour>
        <pt x="828" y="977" on="1"/>
        <pt x="710" y="977" on="1"/>
        <pt x="598" y="977" on="0"/>
        <pt x="523" y="967" on="1"/>
        <pt x="505" y="967" on="0"/>
        <pt x="505" y="1007" on="1"/>
        <pt x="505" y="1143" on="0"/>
        <pt x="577" y="1143" on="1"/>
        <pt x="790" y="1133" on="1"/>
        <pt x="878" y="1133" on="0"/>
        <pt x="990" y="1161" on="0"/>
        <pt x="1003" y="1161" on="1"/>
        <pt x="1025" y="1161" on="0"/>
        <pt x="1025" y="1086" on="0"/>
        <pt x="1013" y="1050" on="0"/>
        <pt x="999" y="1024" on="0"/>
        <pt x="968" y="1004" on="0"/>
        <pt x="948" y="992" on="0"/>
        <pt x="903" y="983" on="0"/>
        <pt x="894" y="981" on="1"/>
        <pt x="874" y="977" on="0"/>
      </contour>
    </TTGlyph>
</ttFont>
